G04 EAGLE Gerber RS-274X export*
G75*
%MOMM*%
%FSLAX34Y34*%
%LPD*%
%INTop Copper*%
%IPPOS*%
%AMOC8*
5,1,8,0,0,1.08239X$1,22.5*%
G01*
G04 Define Apertures*
%ADD10C,1.778000*%
%ADD11C,0.756400*%
%ADD12C,0.508000*%
%ADD13C,0.254000*%
G36*
X87074Y219871D02*
X86282Y219710D01*
X48731Y219710D01*
X48013Y219841D01*
X47329Y220271D01*
X46866Y220935D01*
X46699Y221726D01*
X46853Y222520D01*
X48514Y226529D01*
X48514Y230672D01*
X46929Y234499D01*
X43999Y237429D01*
X40172Y239014D01*
X36029Y239014D01*
X34178Y238247D01*
X33433Y238093D01*
X32638Y238241D01*
X31963Y238688D01*
X26557Y244094D01*
X24172Y244094D01*
X23425Y244237D01*
X22747Y244678D01*
X22295Y245348D01*
X21529Y247199D01*
X18599Y250129D01*
X14772Y251714D01*
X12192Y251714D01*
X11460Y251851D01*
X10778Y252286D01*
X10321Y252953D01*
X10160Y253746D01*
X10160Y254254D01*
X10297Y254987D01*
X10732Y255668D01*
X11399Y256125D01*
X12192Y256286D01*
X14772Y256286D01*
X18599Y257871D01*
X21529Y260801D01*
X21874Y261636D01*
X22292Y262272D01*
X22959Y262729D01*
X23752Y262890D01*
X27469Y262890D01*
X28187Y262759D01*
X28871Y262329D01*
X29334Y261665D01*
X29501Y260874D01*
X29347Y260080D01*
X27686Y256071D01*
X27686Y251929D01*
X29271Y248101D01*
X32201Y245171D01*
X36029Y243586D01*
X40172Y243586D01*
X43999Y245171D01*
X46929Y248101D01*
X48514Y251929D01*
X48514Y256071D01*
X46853Y260080D01*
X46700Y260793D01*
X46835Y261591D01*
X47271Y262272D01*
X47938Y262729D01*
X48731Y262890D01*
X62517Y262890D01*
X63280Y262741D01*
X63954Y262295D01*
X70299Y255950D01*
X70733Y255306D01*
X70894Y254513D01*
X70894Y252945D01*
X71702Y250994D01*
X73194Y249502D01*
X75145Y248694D01*
X77255Y248694D01*
X79206Y249502D01*
X80698Y250994D01*
X81506Y252945D01*
X81506Y255055D01*
X80698Y257006D01*
X79206Y258498D01*
X77255Y259306D01*
X75687Y259306D01*
X74924Y259455D01*
X74250Y259901D01*
X65673Y268478D01*
X46811Y268478D01*
X46109Y268603D01*
X45421Y269028D01*
X44953Y269688D01*
X44780Y270478D01*
X44928Y271273D01*
X45374Y271947D01*
X46929Y273501D01*
X48514Y277329D01*
X48514Y281472D01*
X46929Y285299D01*
X46390Y285837D01*
X45982Y286422D01*
X45796Y287209D01*
X45932Y288007D01*
X46368Y288688D01*
X47035Y289145D01*
X47827Y289306D01*
X70875Y289306D01*
X71637Y289157D01*
X72311Y288711D01*
X73194Y287828D01*
X75145Y287020D01*
X77255Y287020D01*
X79206Y287828D01*
X80698Y289320D01*
X81506Y291271D01*
X81506Y293381D01*
X80698Y295332D01*
X79206Y296824D01*
X77255Y297632D01*
X75145Y297632D01*
X73194Y296824D01*
X71859Y295489D01*
X71215Y295055D01*
X70423Y294894D01*
X47827Y294894D01*
X47125Y295019D01*
X46437Y295444D01*
X45969Y296104D01*
X45796Y296894D01*
X45944Y297689D01*
X46390Y298363D01*
X46929Y298901D01*
X48514Y302729D01*
X48514Y306872D01*
X46929Y310699D01*
X43999Y313629D01*
X40172Y315214D01*
X36029Y315214D01*
X32201Y313629D01*
X29271Y310699D01*
X27686Y306872D01*
X27686Y302729D01*
X29271Y298901D01*
X29810Y298363D01*
X30218Y297778D01*
X30404Y296991D01*
X30268Y296194D01*
X29832Y295512D01*
X29165Y295055D01*
X28373Y294894D01*
X24172Y294894D01*
X23425Y295037D01*
X22747Y295478D01*
X22295Y296148D01*
X21529Y297999D01*
X18599Y300929D01*
X14772Y302514D01*
X12192Y302514D01*
X11460Y302651D01*
X10778Y303086D01*
X10321Y303753D01*
X10160Y304546D01*
X10160Y305054D01*
X10297Y305787D01*
X10732Y306468D01*
X11399Y306925D01*
X12192Y307086D01*
X14772Y307086D01*
X18599Y308671D01*
X21529Y311601D01*
X23114Y315429D01*
X23114Y319572D01*
X21529Y323399D01*
X18599Y326329D01*
X14772Y327914D01*
X12192Y327914D01*
X11460Y328051D01*
X10778Y328486D01*
X10321Y329153D01*
X10160Y329946D01*
X10160Y330454D01*
X10297Y331187D01*
X10732Y331868D01*
X11399Y332325D01*
X12192Y332486D01*
X14772Y332486D01*
X18599Y334071D01*
X21529Y337001D01*
X23114Y340829D01*
X23114Y344972D01*
X21529Y348799D01*
X18599Y351729D01*
X14772Y353314D01*
X12192Y353314D01*
X11460Y353451D01*
X10778Y353886D01*
X10321Y354553D01*
X10160Y355346D01*
X10160Y355854D01*
X10297Y356587D01*
X10732Y357268D01*
X11399Y357725D01*
X12192Y357886D01*
X14772Y357886D01*
X18599Y359471D01*
X21529Y362401D01*
X22069Y363706D01*
X22465Y364319D01*
X23124Y364787D01*
X23914Y364960D01*
X24709Y364812D01*
X25383Y364365D01*
X28012Y361737D01*
X28440Y361107D01*
X28607Y360316D01*
X28453Y359522D01*
X27686Y357671D01*
X27686Y353529D01*
X29271Y349701D01*
X32201Y346771D01*
X36029Y345186D01*
X40172Y345186D01*
X43999Y346771D01*
X46929Y349701D01*
X48514Y353529D01*
X48514Y357672D01*
X46929Y361499D01*
X43999Y364429D01*
X40172Y366014D01*
X36029Y366014D01*
X34178Y365247D01*
X33433Y365093D01*
X32638Y365241D01*
X31963Y365688D01*
X29551Y368100D01*
X29117Y368744D01*
X28956Y369537D01*
X28956Y370511D01*
X29081Y371213D01*
X29506Y371901D01*
X30166Y372369D01*
X30956Y372542D01*
X31751Y372394D01*
X31897Y372298D01*
X36029Y370586D01*
X40172Y370586D01*
X43999Y372171D01*
X46929Y375101D01*
X48514Y378929D01*
X48514Y383072D01*
X46929Y386899D01*
X43999Y389829D01*
X40172Y391414D01*
X36029Y391414D01*
X31962Y389730D01*
X31840Y389644D01*
X31053Y389458D01*
X30256Y389594D01*
X29574Y390030D01*
X29117Y390697D01*
X28956Y391489D01*
X28956Y395911D01*
X29081Y396613D01*
X29506Y397301D01*
X30166Y397769D01*
X30956Y397942D01*
X31751Y397794D01*
X31897Y397698D01*
X36029Y395986D01*
X40171Y395986D01*
X42022Y396753D01*
X42767Y396907D01*
X43562Y396759D01*
X44237Y396312D01*
X149011Y291538D01*
X149445Y290894D01*
X149606Y290101D01*
X149606Y284952D01*
X149457Y284189D01*
X149011Y283515D01*
X147902Y282406D01*
X147094Y280455D01*
X147094Y278345D01*
X147902Y276394D01*
X149394Y274902D01*
X151345Y274094D01*
X153455Y274094D01*
X155406Y274902D01*
X156898Y276394D01*
X157706Y278345D01*
X157706Y280455D01*
X156898Y282406D01*
X155789Y283515D01*
X155355Y284159D01*
X155194Y284952D01*
X155194Y293257D01*
X48188Y400263D01*
X47760Y400893D01*
X47593Y401684D01*
X47747Y402478D01*
X48514Y404329D01*
X48514Y408472D01*
X46929Y412299D01*
X45374Y413853D01*
X44966Y414438D01*
X44780Y415225D01*
X44916Y416023D01*
X45352Y416704D01*
X46019Y417161D01*
X46811Y417322D01*
X209197Y417322D01*
X255437Y463562D01*
X256051Y463983D01*
X256841Y464157D01*
X257636Y464008D01*
X258311Y463562D01*
X260801Y461071D01*
X264629Y459486D01*
X268772Y459486D01*
X272599Y461071D01*
X275529Y464001D01*
X277114Y467829D01*
X277114Y471972D01*
X275529Y475799D01*
X272599Y478729D01*
X269112Y480173D01*
X268511Y480557D01*
X268038Y481213D01*
X267859Y482002D01*
X268000Y482798D01*
X268442Y483476D01*
X269112Y483927D01*
X273175Y485610D01*
X276390Y488825D01*
X278130Y493026D01*
X278130Y493776D01*
X255270Y493776D01*
X255270Y493026D01*
X257010Y488825D01*
X260225Y485610D01*
X264288Y483927D01*
X264889Y483543D01*
X265362Y482887D01*
X265542Y482099D01*
X265400Y481303D01*
X264958Y480625D01*
X264288Y480173D01*
X260801Y478729D01*
X257871Y475799D01*
X256683Y472929D01*
X256242Y472270D01*
X207478Y423505D01*
X206833Y423071D01*
X206041Y422910D01*
X48731Y422910D01*
X48013Y423041D01*
X47329Y423471D01*
X46866Y424135D01*
X46699Y424926D01*
X46853Y425720D01*
X48514Y429729D01*
X48514Y433872D01*
X46929Y437699D01*
X43999Y440629D01*
X43418Y440869D01*
X42782Y441287D01*
X42325Y441954D01*
X42164Y442746D01*
X42164Y470708D01*
X41545Y472202D01*
X23314Y490433D01*
X22886Y491063D01*
X22719Y491854D01*
X22873Y492648D01*
X23114Y493229D01*
X23114Y495808D01*
X23251Y496541D01*
X23686Y497222D01*
X24353Y497679D01*
X25146Y497840D01*
X253238Y497840D01*
X253971Y497703D01*
X254652Y497268D01*
X254956Y496824D01*
X278522Y496824D01*
X279006Y497328D01*
X279750Y497646D01*
X280558Y497649D01*
X284851Y496796D01*
X285583Y496492D01*
X289868Y493629D01*
X290429Y493068D01*
X293292Y488783D01*
X293596Y488051D01*
X294601Y482996D01*
X294640Y482600D01*
X294640Y444246D01*
X294503Y443514D01*
X294068Y442832D01*
X293401Y442375D01*
X292608Y442214D01*
X290029Y442214D01*
X286201Y440629D01*
X283271Y437699D01*
X281686Y433872D01*
X281686Y429729D01*
X283271Y425901D01*
X286201Y422971D01*
X289688Y421527D01*
X290289Y421143D01*
X290762Y420487D01*
X290942Y419698D01*
X290800Y418902D01*
X290358Y418225D01*
X289688Y417773D01*
X285625Y416090D01*
X282410Y412875D01*
X280670Y408674D01*
X280670Y407924D01*
X293624Y407924D01*
X293624Y404876D01*
X280670Y404876D01*
X280670Y404126D01*
X282410Y399925D01*
X285625Y396710D01*
X289688Y395027D01*
X290289Y394643D01*
X290762Y393987D01*
X290942Y393199D01*
X290800Y392403D01*
X290358Y391725D01*
X289688Y391273D01*
X286201Y389829D01*
X283271Y386899D01*
X281686Y383072D01*
X281686Y378929D01*
X283271Y375101D01*
X286201Y372171D01*
X290029Y370586D01*
X292608Y370586D01*
X293341Y370449D01*
X294022Y370014D01*
X294479Y369347D01*
X294640Y368554D01*
X294640Y368046D01*
X294503Y367314D01*
X294068Y366632D01*
X293401Y366175D01*
X292608Y366014D01*
X290029Y366014D01*
X286201Y364429D01*
X283271Y361499D01*
X281686Y357672D01*
X281686Y353529D01*
X283271Y349701D01*
X286201Y346771D01*
X290029Y345186D01*
X292608Y345186D01*
X293341Y345049D01*
X294022Y344614D01*
X294479Y343947D01*
X294640Y343154D01*
X294640Y342646D01*
X294503Y341914D01*
X294068Y341232D01*
X293401Y340775D01*
X292608Y340614D01*
X290029Y340614D01*
X286201Y339029D01*
X283271Y336099D01*
X281686Y332272D01*
X281686Y328129D01*
X283271Y324301D01*
X286201Y321371D01*
X290029Y319786D01*
X292608Y319786D01*
X293341Y319649D01*
X294022Y319214D01*
X294479Y318547D01*
X294640Y317754D01*
X294640Y317246D01*
X294503Y316514D01*
X294068Y315832D01*
X293401Y315375D01*
X292608Y315214D01*
X290029Y315214D01*
X286201Y313629D01*
X283271Y310699D01*
X281686Y306872D01*
X281686Y302729D01*
X283271Y298901D01*
X286201Y295971D01*
X290029Y294386D01*
X292608Y294386D01*
X293341Y294249D01*
X294022Y293814D01*
X294479Y293147D01*
X294640Y292354D01*
X294640Y291846D01*
X294503Y291114D01*
X294068Y290432D01*
X293401Y289975D01*
X292608Y289814D01*
X290029Y289814D01*
X286201Y288229D01*
X283271Y285299D01*
X281686Y281472D01*
X281686Y277329D01*
X283271Y273501D01*
X286201Y270571D01*
X290029Y268986D01*
X292608Y268986D01*
X293341Y268849D01*
X294022Y268414D01*
X294479Y267747D01*
X294640Y266954D01*
X294640Y266446D01*
X294503Y265714D01*
X294068Y265032D01*
X293401Y264575D01*
X292608Y264414D01*
X290029Y264414D01*
X286201Y262829D01*
X283271Y259899D01*
X282505Y258048D01*
X282087Y257412D01*
X281420Y256955D01*
X280628Y256794D01*
X276427Y256794D01*
X275725Y256919D01*
X275037Y257344D01*
X274569Y258004D01*
X274396Y258794D01*
X274544Y259589D01*
X274990Y260263D01*
X275529Y260801D01*
X277114Y264629D01*
X277114Y268772D01*
X275529Y272599D01*
X272599Y275529D01*
X268772Y277114D01*
X264629Y277114D01*
X260801Y275529D01*
X257871Y272599D01*
X257105Y270748D01*
X256687Y270112D01*
X256020Y269655D01*
X255228Y269494D01*
X125843Y269494D01*
X90850Y234501D01*
X90206Y234067D01*
X89413Y233906D01*
X87845Y233906D01*
X85894Y233098D01*
X84402Y231606D01*
X83594Y229655D01*
X83594Y227545D01*
X84402Y225594D01*
X85894Y224102D01*
X87059Y223619D01*
X87648Y223246D01*
X88126Y222594D01*
X88313Y221807D01*
X88177Y221010D01*
X87741Y220328D01*
X87074Y219871D01*
G37*
%LPC*%
G36*
X264629Y434086D02*
X268772Y434086D01*
X272599Y435671D01*
X275529Y438601D01*
X277114Y442429D01*
X277114Y446572D01*
X275529Y450399D01*
X272599Y453329D01*
X268772Y454914D01*
X264629Y454914D01*
X260801Y453329D01*
X257871Y450399D01*
X256286Y446572D01*
X256286Y442429D01*
X257871Y438601D01*
X260801Y435671D01*
X264629Y434086D01*
G37*
G36*
X264629Y408686D02*
X268772Y408686D01*
X272599Y410271D01*
X275529Y413201D01*
X277114Y417029D01*
X277114Y421172D01*
X275529Y424999D01*
X272599Y427929D01*
X268772Y429514D01*
X264629Y429514D01*
X260801Y427929D01*
X257871Y424999D01*
X256286Y421172D01*
X256286Y417029D01*
X257871Y413201D01*
X260801Y410271D01*
X264629Y408686D01*
G37*
G36*
X264629Y383286D02*
X268772Y383286D01*
X272599Y384871D01*
X275529Y387801D01*
X277114Y391629D01*
X277114Y395772D01*
X275529Y399599D01*
X272599Y402529D01*
X268772Y404114D01*
X264629Y404114D01*
X260801Y402529D01*
X257871Y399599D01*
X256286Y395772D01*
X256286Y391629D01*
X257871Y387801D01*
X260801Y384871D01*
X264629Y383286D01*
G37*
G36*
X240245Y274094D02*
X242355Y274094D01*
X244306Y274902D01*
X245798Y276394D01*
X246606Y278345D01*
X246606Y280455D01*
X245798Y282406D01*
X244689Y283515D01*
X244255Y284159D01*
X244094Y284952D01*
X244094Y340901D01*
X244243Y341664D01*
X244689Y342338D01*
X253523Y351172D01*
X254094Y351573D01*
X254879Y351765D01*
X255677Y351636D01*
X256362Y351206D01*
X256825Y350542D01*
X256992Y349751D01*
X256837Y348957D01*
X255270Y345174D01*
X255270Y344424D01*
X278130Y344424D01*
X278130Y345174D01*
X276390Y349375D01*
X273175Y352590D01*
X269112Y354273D01*
X268511Y354657D01*
X268038Y355313D01*
X267859Y356101D01*
X268000Y356897D01*
X268442Y357575D01*
X269112Y358027D01*
X272599Y359471D01*
X275529Y362401D01*
X277114Y366229D01*
X277114Y370372D01*
X275529Y374199D01*
X272599Y377129D01*
X268772Y378714D01*
X264629Y378714D01*
X260801Y377129D01*
X257871Y374199D01*
X256286Y370372D01*
X256286Y366229D01*
X257053Y364378D01*
X257207Y363633D01*
X257059Y362838D01*
X256612Y362163D01*
X238506Y344057D01*
X238506Y284952D01*
X238357Y284189D01*
X237911Y283515D01*
X236802Y282406D01*
X235994Y280455D01*
X235994Y278345D01*
X236802Y276394D01*
X238294Y274902D01*
X240245Y274094D01*
G37*
G36*
X264629Y307086D02*
X268772Y307086D01*
X272599Y308671D01*
X275529Y311601D01*
X277114Y315429D01*
X277114Y319572D01*
X275529Y323399D01*
X272599Y326329D01*
X269112Y327773D01*
X268511Y328157D01*
X268038Y328813D01*
X267859Y329602D01*
X268000Y330398D01*
X268442Y331076D01*
X269112Y331527D01*
X273175Y333210D01*
X276390Y336425D01*
X278130Y340626D01*
X278130Y341376D01*
X255270Y341376D01*
X255270Y340626D01*
X257010Y336425D01*
X260225Y333210D01*
X264288Y331527D01*
X264889Y331143D01*
X265362Y330487D01*
X265542Y329699D01*
X265400Y328903D01*
X264958Y328225D01*
X264288Y327773D01*
X260801Y326329D01*
X257871Y323399D01*
X256286Y319572D01*
X256286Y315429D01*
X257871Y311601D01*
X260801Y308671D01*
X264629Y307086D01*
G37*
G36*
X36029Y319786D02*
X40172Y319786D01*
X43999Y321371D01*
X46929Y324301D01*
X48514Y328129D01*
X48514Y332272D01*
X46929Y336099D01*
X43999Y339029D01*
X40172Y340614D01*
X36029Y340614D01*
X32201Y339029D01*
X29271Y336099D01*
X27686Y332272D01*
X27686Y328129D01*
X29271Y324301D01*
X32201Y321371D01*
X36029Y319786D01*
G37*
G36*
X264629Y281686D02*
X268772Y281686D01*
X272599Y283271D01*
X275529Y286201D01*
X277114Y290029D01*
X277114Y294172D01*
X275529Y297999D01*
X272599Y300929D01*
X268772Y302514D01*
X264629Y302514D01*
X260801Y300929D01*
X257871Y297999D01*
X256286Y294172D01*
X256286Y290029D01*
X257871Y286201D01*
X260801Y283271D01*
X264629Y281686D01*
G37*
%LPD*%
G36*
X256020Y244255D02*
X255228Y244094D01*
X119852Y244094D01*
X119089Y244243D01*
X118415Y244689D01*
X117306Y245798D01*
X114984Y246760D01*
X114372Y247155D01*
X113904Y247815D01*
X113730Y248605D01*
X113879Y249400D01*
X114325Y250074D01*
X127562Y263311D01*
X128206Y263745D01*
X128999Y263906D01*
X255228Y263906D01*
X255975Y263764D01*
X256653Y263322D01*
X257105Y262652D01*
X257327Y262116D01*
X257481Y261403D01*
X257345Y260606D01*
X256909Y259924D01*
X256242Y259467D01*
X255450Y259306D01*
X252945Y259306D01*
X250994Y258498D01*
X249502Y257006D01*
X248694Y255055D01*
X248694Y252945D01*
X249502Y250994D01*
X250994Y249502D01*
X252945Y248694D01*
X255450Y248694D01*
X256167Y248563D01*
X256852Y248133D01*
X257314Y247469D01*
X257482Y246678D01*
X257327Y245884D01*
X257105Y245348D01*
X256687Y244712D01*
X256020Y244255D01*
G37*
G36*
X255047Y10321D02*
X254254Y10160D01*
X25146Y10160D01*
X24414Y10297D01*
X23732Y10732D01*
X23275Y11399D01*
X23114Y12192D01*
X23114Y14772D01*
X21529Y18599D01*
X18599Y21529D01*
X14772Y23114D01*
X12192Y23114D01*
X11460Y23251D01*
X10778Y23686D01*
X10321Y24353D01*
X10160Y25146D01*
X10160Y25654D01*
X10297Y26387D01*
X10732Y27068D01*
X11399Y27525D01*
X12192Y27686D01*
X14772Y27686D01*
X18599Y29271D01*
X21529Y32201D01*
X23114Y36029D01*
X23114Y40172D01*
X21529Y43999D01*
X18599Y46929D01*
X14772Y48514D01*
X12192Y48514D01*
X11460Y48651D01*
X10778Y49086D01*
X10321Y49753D01*
X10160Y50546D01*
X10160Y51054D01*
X10297Y51787D01*
X10732Y52468D01*
X11399Y52925D01*
X12192Y53086D01*
X14772Y53086D01*
X18599Y54671D01*
X21529Y57601D01*
X23114Y61429D01*
X23114Y65572D01*
X21529Y69399D01*
X18599Y72329D01*
X14772Y73914D01*
X12192Y73914D01*
X11460Y74051D01*
X10778Y74486D01*
X10321Y75153D01*
X10160Y75946D01*
X10160Y76454D01*
X10297Y77187D01*
X10732Y77868D01*
X11399Y78325D01*
X12192Y78486D01*
X14772Y78486D01*
X18599Y80071D01*
X21529Y83001D01*
X23114Y86829D01*
X23114Y90972D01*
X21529Y94799D01*
X18599Y97729D01*
X14772Y99314D01*
X12192Y99314D01*
X11460Y99451D01*
X10778Y99886D01*
X10321Y100553D01*
X10160Y101346D01*
X10160Y101854D01*
X10297Y102587D01*
X10732Y103268D01*
X11399Y103725D01*
X12192Y103886D01*
X14772Y103886D01*
X18599Y105471D01*
X21529Y108401D01*
X23114Y112229D01*
X23114Y116372D01*
X21529Y120199D01*
X18599Y123129D01*
X14772Y124714D01*
X12192Y124714D01*
X11460Y124851D01*
X10778Y125286D01*
X10321Y125953D01*
X10160Y126746D01*
X10160Y127254D01*
X10297Y127987D01*
X10732Y128668D01*
X11399Y129125D01*
X12192Y129286D01*
X14772Y129286D01*
X18599Y130871D01*
X21529Y133801D01*
X22069Y135106D01*
X22465Y135719D01*
X23124Y136187D01*
X23914Y136360D01*
X24709Y136212D01*
X25383Y135765D01*
X28012Y133137D01*
X28440Y132507D01*
X28607Y131716D01*
X28453Y130922D01*
X27686Y129071D01*
X27686Y124929D01*
X29271Y121101D01*
X32201Y118171D01*
X35688Y116727D01*
X36289Y116343D01*
X36762Y115687D01*
X36942Y114898D01*
X36800Y114102D01*
X36358Y113425D01*
X35688Y112973D01*
X31625Y111290D01*
X28410Y108075D01*
X26670Y103874D01*
X26670Y103124D01*
X49530Y103124D01*
X49530Y103874D01*
X47790Y108075D01*
X44575Y111290D01*
X40512Y112973D01*
X39911Y113357D01*
X39438Y114013D01*
X39259Y114801D01*
X39400Y115597D01*
X39842Y116275D01*
X40512Y116727D01*
X43999Y118171D01*
X46929Y121101D01*
X48514Y124929D01*
X48514Y129072D01*
X46929Y132899D01*
X43999Y135829D01*
X40172Y137414D01*
X36029Y137414D01*
X34178Y136647D01*
X33433Y136493D01*
X32638Y136641D01*
X31963Y137088D01*
X26557Y142494D01*
X24172Y142494D01*
X23425Y142637D01*
X22747Y143078D01*
X22295Y143748D01*
X21529Y145599D01*
X18599Y148529D01*
X15112Y149973D01*
X14511Y150357D01*
X14038Y151013D01*
X13859Y151802D01*
X14000Y152598D01*
X14442Y153276D01*
X15112Y153727D01*
X19175Y155410D01*
X22390Y158625D01*
X24130Y162826D01*
X24130Y163576D01*
X11176Y163576D01*
X11176Y166624D01*
X24130Y166624D01*
X24130Y167374D01*
X22390Y171575D01*
X19175Y174790D01*
X15112Y176473D01*
X14511Y176857D01*
X14038Y177513D01*
X13859Y178301D01*
X14000Y179097D01*
X14442Y179775D01*
X15112Y180227D01*
X18599Y181671D01*
X21529Y184601D01*
X23114Y188429D01*
X23114Y192572D01*
X21529Y196399D01*
X18599Y199329D01*
X14772Y200914D01*
X12192Y200914D01*
X11460Y201051D01*
X10778Y201486D01*
X10321Y202153D01*
X10160Y202946D01*
X10160Y203454D01*
X10297Y204187D01*
X10732Y204868D01*
X11399Y205325D01*
X12192Y205486D01*
X14772Y205486D01*
X18599Y207071D01*
X21529Y210001D01*
X22716Y212868D01*
X23134Y213504D01*
X23801Y213961D01*
X24593Y214122D01*
X29389Y214122D01*
X30091Y213997D01*
X30779Y213572D01*
X31247Y212912D01*
X31420Y212122D01*
X31272Y211327D01*
X30826Y210653D01*
X29271Y209099D01*
X27686Y205272D01*
X27686Y201129D01*
X29271Y197301D01*
X32201Y194371D01*
X36029Y192786D01*
X40172Y192786D01*
X43999Y194371D01*
X46929Y197301D01*
X48514Y201129D01*
X48514Y205272D01*
X46929Y209099D01*
X45374Y210653D01*
X44966Y211238D01*
X44780Y212025D01*
X44916Y212823D01*
X45352Y213504D01*
X46019Y213961D01*
X46811Y214122D01*
X112061Y214122D01*
X123602Y225663D01*
X124246Y226097D01*
X125038Y226258D01*
X178525Y226258D01*
X179288Y226109D01*
X179746Y225806D01*
X256973Y225806D01*
X257675Y225681D01*
X258363Y225256D01*
X258831Y224596D01*
X259004Y223806D01*
X258856Y223011D01*
X258410Y222337D01*
X257871Y221799D01*
X257105Y219948D01*
X256687Y219312D01*
X256020Y218855D01*
X255228Y218694D01*
X185943Y218694D01*
X179962Y212713D01*
X179317Y212279D01*
X178525Y212118D01*
X160975Y212118D01*
X160212Y212267D01*
X159538Y212713D01*
X158301Y213950D01*
X157867Y214594D01*
X157706Y215387D01*
X157706Y216955D01*
X156898Y218906D01*
X155406Y220398D01*
X153455Y221206D01*
X151345Y221206D01*
X149394Y220398D01*
X147902Y218906D01*
X147094Y216955D01*
X147094Y214845D01*
X147902Y212894D01*
X149394Y211402D01*
X151345Y210594D01*
X152913Y210594D01*
X153676Y210445D01*
X154350Y209999D01*
X157819Y206530D01*
X181681Y206530D01*
X187662Y212511D01*
X188306Y212945D01*
X189099Y213106D01*
X255228Y213106D01*
X255975Y212964D01*
X256653Y212522D01*
X257105Y211852D01*
X257327Y211316D01*
X257481Y210603D01*
X257345Y209806D01*
X256909Y209124D01*
X256242Y208667D01*
X255450Y208506D01*
X252945Y208506D01*
X250994Y207698D01*
X249463Y206167D01*
X249143Y205666D01*
X248487Y205193D01*
X247699Y205013D01*
X246902Y205155D01*
X246225Y205597D01*
X245847Y206156D01*
X244306Y207698D01*
X242355Y208506D01*
X240245Y208506D01*
X238294Y207698D01*
X236802Y206206D01*
X235994Y204255D01*
X235994Y202145D01*
X236802Y200194D01*
X237911Y199085D01*
X238345Y198441D01*
X238506Y197649D01*
X238506Y138543D01*
X252843Y124206D01*
X256973Y124206D01*
X257675Y124081D01*
X258363Y123656D01*
X258831Y122996D01*
X259004Y122206D01*
X258856Y121411D01*
X258410Y120737D01*
X257871Y120199D01*
X256286Y116372D01*
X256286Y112229D01*
X257871Y108401D01*
X260801Y105471D01*
X264629Y103886D01*
X268772Y103886D01*
X272599Y105471D01*
X275529Y108401D01*
X277114Y112229D01*
X277114Y116372D01*
X275529Y120199D01*
X274990Y120737D01*
X274582Y121322D01*
X274396Y122109D01*
X274532Y122907D01*
X274968Y123588D01*
X275635Y124045D01*
X276427Y124206D01*
X280628Y124206D01*
X281375Y124063D01*
X282053Y123622D01*
X282505Y122952D01*
X283271Y121101D01*
X286201Y118171D01*
X290029Y116586D01*
X292608Y116586D01*
X293341Y116449D01*
X294022Y116014D01*
X294479Y115347D01*
X294640Y114554D01*
X294640Y114046D01*
X294503Y113314D01*
X294068Y112632D01*
X293401Y112175D01*
X292608Y112014D01*
X290029Y112014D01*
X286201Y110429D01*
X283271Y107499D01*
X281686Y103672D01*
X281686Y99529D01*
X283271Y95701D01*
X286201Y92771D01*
X289688Y91327D01*
X290289Y90943D01*
X290762Y90287D01*
X290942Y89498D01*
X290800Y88702D01*
X290358Y88025D01*
X289688Y87573D01*
X285625Y85890D01*
X282410Y82675D01*
X280670Y78474D01*
X280670Y77724D01*
X293624Y77724D01*
X293624Y64452D01*
X294022Y64198D01*
X294479Y63531D01*
X294640Y62738D01*
X294640Y12192D01*
X294503Y11460D01*
X294068Y10778D01*
X293401Y10321D01*
X292608Y10160D01*
X279146Y10160D01*
X278414Y10297D01*
X277732Y10732D01*
X277275Y11399D01*
X277114Y12192D01*
X277114Y14772D01*
X275529Y18599D01*
X272599Y21529D01*
X268772Y23114D01*
X264629Y23114D01*
X260801Y21529D01*
X257871Y18599D01*
X256286Y14772D01*
X256286Y12192D01*
X256149Y11460D01*
X255714Y10778D01*
X255047Y10321D01*
G37*
%LPC*%
G36*
X36029Y167386D02*
X40172Y167386D01*
X43999Y168971D01*
X46929Y171901D01*
X48514Y175729D01*
X48514Y179872D01*
X46929Y183699D01*
X43999Y186629D01*
X40172Y188214D01*
X36029Y188214D01*
X32201Y186629D01*
X29271Y183699D01*
X27686Y179872D01*
X27686Y175729D01*
X29271Y171901D01*
X32201Y168971D01*
X36029Y167386D01*
G37*
G36*
X36029Y141986D02*
X40172Y141986D01*
X43999Y143571D01*
X46929Y146501D01*
X48514Y150329D01*
X48514Y154472D01*
X46929Y158299D01*
X43999Y161229D01*
X40172Y162814D01*
X36029Y162814D01*
X32201Y161229D01*
X29271Y158299D01*
X27686Y154472D01*
X27686Y150329D01*
X29271Y146501D01*
X32201Y143571D01*
X36029Y141986D01*
G37*
G36*
X36029Y65786D02*
X40172Y65786D01*
X43999Y67371D01*
X46929Y70301D01*
X48514Y74129D01*
X48514Y78272D01*
X46929Y82099D01*
X43999Y85029D01*
X40512Y86473D01*
X39911Y86857D01*
X39438Y87513D01*
X39259Y88302D01*
X39400Y89098D01*
X39842Y89776D01*
X40512Y90227D01*
X44575Y91910D01*
X47790Y95125D01*
X49530Y99326D01*
X49530Y100076D01*
X26670Y100076D01*
X26670Y99326D01*
X28410Y95125D01*
X31625Y91910D01*
X35688Y90227D01*
X36289Y89843D01*
X36762Y89187D01*
X36942Y88399D01*
X36800Y87603D01*
X36358Y86925D01*
X35688Y86473D01*
X32201Y85029D01*
X29271Y82099D01*
X27686Y78272D01*
X27686Y74129D01*
X29271Y70301D01*
X32201Y67371D01*
X36029Y65786D01*
G37*
G36*
X264629Y78486D02*
X268772Y78486D01*
X272599Y80071D01*
X275529Y83001D01*
X277114Y86829D01*
X277114Y90972D01*
X275529Y94799D01*
X272599Y97729D01*
X268772Y99314D01*
X264629Y99314D01*
X260801Y97729D01*
X257871Y94799D01*
X256286Y90972D01*
X256286Y86829D01*
X257871Y83001D01*
X260801Y80071D01*
X264629Y78486D01*
G37*
G36*
X289826Y64770D02*
X290576Y64770D01*
X290576Y74676D01*
X280670Y74676D01*
X280670Y73926D01*
X282410Y69725D01*
X285625Y66510D01*
X289826Y64770D01*
G37*
G36*
X264629Y53086D02*
X268772Y53086D01*
X272599Y54671D01*
X275529Y57601D01*
X277114Y61429D01*
X277114Y65572D01*
X275529Y69399D01*
X272599Y72329D01*
X268772Y73914D01*
X264629Y73914D01*
X260801Y72329D01*
X257871Y69399D01*
X256286Y65572D01*
X256286Y61429D01*
X257871Y57601D01*
X260801Y54671D01*
X264629Y53086D01*
G37*
G36*
X264629Y27686D02*
X268772Y27686D01*
X272599Y29271D01*
X275529Y32201D01*
X277114Y36029D01*
X277114Y40172D01*
X275529Y43999D01*
X272599Y46929D01*
X268772Y48514D01*
X264629Y48514D01*
X260801Y46929D01*
X257871Y43999D01*
X256286Y40172D01*
X256286Y36029D01*
X257871Y32201D01*
X260801Y29271D01*
X264629Y27686D01*
G37*
%LPD*%
D10*
X38100Y431800D03*
X38100Y406400D03*
X38100Y381000D03*
X38100Y355600D03*
X38100Y330200D03*
X38100Y304800D03*
X38100Y279400D03*
X38100Y254000D03*
X38100Y228600D03*
X38100Y203200D03*
X38100Y177800D03*
X38100Y152400D03*
X38100Y127000D03*
X38100Y101600D03*
X38100Y76200D03*
X292100Y431800D03*
X292100Y406400D03*
X292100Y381000D03*
X292100Y355600D03*
X292100Y330200D03*
X292100Y304800D03*
X292100Y279400D03*
X292100Y254000D03*
X292100Y228600D03*
X292100Y203200D03*
X292100Y177800D03*
X292100Y152400D03*
X292100Y127000D03*
X292100Y101600D03*
X292100Y76200D03*
X12700Y495300D03*
X12700Y469900D03*
X12700Y444500D03*
X12700Y419100D03*
X12700Y393700D03*
X12700Y368300D03*
X12700Y342900D03*
X12700Y317500D03*
X12700Y292100D03*
X12700Y266700D03*
X12700Y241300D03*
X12700Y215900D03*
X12700Y190500D03*
X12700Y165100D03*
X12700Y139700D03*
X12700Y114300D03*
X12700Y88900D03*
X12700Y63500D03*
X12700Y38100D03*
X12700Y12700D03*
X266700Y495300D03*
X266700Y469900D03*
X266700Y444500D03*
X266700Y419100D03*
X266700Y393700D03*
X266700Y368300D03*
X266700Y342900D03*
X266700Y317500D03*
X266700Y292100D03*
X266700Y266700D03*
X266700Y241300D03*
X266700Y215900D03*
X266700Y190500D03*
X266700Y165100D03*
X266700Y139700D03*
X266700Y114300D03*
X266700Y88900D03*
X266700Y63500D03*
X266700Y38100D03*
X266700Y12700D03*
D11*
X63500Y190500D03*
X50800Y12700D03*
X241300Y12700D03*
X50800Y482600D03*
X241300Y482600D03*
X139700Y368300D03*
X63500Y76200D03*
X228600Y139700D03*
X228600Y76200D03*
X139700Y254000D03*
X228600Y254000D03*
X63500Y317500D03*
X241300Y393700D03*
X228600Y317500D03*
X177800Y215900D03*
X190500Y203200D03*
X63500Y241300D03*
X63500Y355600D03*
X88900Y266700D03*
D12*
X38100Y469900D02*
X12700Y495300D01*
X38100Y469900D02*
X38100Y431800D01*
D13*
X127000Y266700D02*
X88900Y228600D01*
D11*
X88900Y228600D03*
D13*
X127000Y266700D02*
X266700Y266700D01*
X152400Y279400D02*
X152400Y292100D01*
X38100Y406400D01*
D11*
X152400Y279400D03*
D13*
X38100Y355600D02*
X26162Y367538D01*
X35292Y420116D02*
X208040Y420116D01*
X35292Y420116D02*
X26162Y410986D01*
X26162Y367538D01*
X208040Y420116D02*
X255912Y467988D01*
X257824Y469900D02*
X266700Y469900D01*
X257824Y469900D02*
X255912Y467988D01*
X254000Y152400D02*
X266700Y139700D01*
X254000Y152400D02*
X254000Y203200D01*
D11*
X254000Y203200D03*
X254000Y254000D03*
D13*
X292100Y254000D01*
X241300Y342900D02*
X266700Y368300D01*
X241300Y342900D02*
X241300Y279400D01*
D11*
X241300Y279400D03*
X241300Y203200D03*
D13*
X254000Y127000D02*
X292100Y127000D01*
X241300Y139700D02*
X241300Y203200D01*
X241300Y139700D02*
X254000Y127000D01*
D11*
X114300Y241300D03*
D13*
X266700Y241300D01*
D11*
X152400Y215900D03*
D13*
X158976Y209324D02*
X180524Y209324D01*
X158976Y209324D02*
X152400Y215900D01*
X187100Y215900D02*
X266700Y215900D01*
X187100Y215900D02*
X180524Y209324D01*
X25400Y139700D02*
X12700Y139700D01*
X25400Y139700D02*
X38100Y127000D01*
X12700Y215900D02*
X13716Y216916D01*
X110903Y216916D01*
X180524Y229052D02*
X180976Y228600D01*
X123039Y229052D02*
X110903Y216916D01*
X123039Y229052D02*
X180524Y229052D01*
X180976Y228600D02*
X292100Y228600D01*
X13716Y265684D02*
X12700Y266700D01*
X13716Y265684D02*
X64516Y265684D01*
D11*
X76200Y254000D03*
D13*
X64516Y265684D01*
D11*
X76200Y292326D03*
D13*
X75974Y292100D02*
X12700Y292100D01*
X75974Y292100D02*
X76200Y292326D01*
X25400Y241300D02*
X12700Y241300D01*
X25400Y241300D02*
X38100Y228600D01*
M02*
