G04 EAGLE Gerber RS-274X export*
G75*
%MOMM*%
%FSLAX34Y34*%
%LPD*%
%INBottom Copper*%
%IPPOS*%
%AMOC8*
5,1,8,0,0,1.08239X$1,22.5*%
G01*
G04 Define Apertures*
%ADD10C,1.778000*%
%ADD11C,0.756400*%
%ADD12C,0.254000*%
G36*
X278784Y295620D02*
X277995Y295440D01*
X277199Y295582D01*
X276521Y296023D01*
X276069Y296694D01*
X275529Y297999D01*
X272599Y300929D01*
X268772Y302514D01*
X264629Y302514D01*
X262778Y301747D01*
X262033Y301593D01*
X261238Y301741D01*
X260563Y302188D01*
X229757Y332994D01*
X49572Y332994D01*
X48825Y333137D01*
X48147Y333578D01*
X47695Y334248D01*
X46929Y336099D01*
X43999Y339029D01*
X40172Y340614D01*
X36029Y340614D01*
X31962Y338930D01*
X31840Y338844D01*
X31053Y338658D01*
X30256Y338794D01*
X29574Y339230D01*
X29117Y339897D01*
X28956Y340689D01*
X28956Y345111D01*
X29081Y345813D01*
X29506Y346501D01*
X30166Y346969D01*
X30956Y347142D01*
X31751Y346994D01*
X31897Y346898D01*
X36029Y345186D01*
X40172Y345186D01*
X43999Y346771D01*
X46929Y349701D01*
X48514Y353529D01*
X48514Y357672D01*
X46929Y361499D01*
X43999Y364429D01*
X40172Y366014D01*
X36029Y366014D01*
X31962Y364330D01*
X31840Y364244D01*
X31053Y364058D01*
X30256Y364194D01*
X29574Y364630D01*
X29117Y365297D01*
X28956Y366089D01*
X28956Y370511D01*
X29081Y371213D01*
X29506Y371901D01*
X30166Y372369D01*
X30956Y372542D01*
X31751Y372394D01*
X31897Y372298D01*
X36029Y370586D01*
X40172Y370586D01*
X43999Y372171D01*
X46929Y375101D01*
X47695Y376952D01*
X48113Y377588D01*
X48780Y378045D01*
X49572Y378206D01*
X201201Y378206D01*
X201964Y378057D01*
X202638Y377611D01*
X256612Y323637D01*
X257040Y323007D01*
X257207Y322216D01*
X257053Y321422D01*
X256286Y319571D01*
X256286Y315429D01*
X257871Y311601D01*
X260801Y308671D01*
X264629Y307086D01*
X268772Y307086D01*
X272599Y308671D01*
X275529Y311601D01*
X277114Y315429D01*
X277114Y319572D01*
X275529Y323399D01*
X272599Y326329D01*
X269112Y327773D01*
X268511Y328157D01*
X268038Y328813D01*
X267859Y329602D01*
X268000Y330398D01*
X268442Y331076D01*
X269112Y331527D01*
X273175Y333210D01*
X276390Y336425D01*
X278130Y340626D01*
X278130Y341376D01*
X255270Y341376D01*
X255270Y340626D01*
X256837Y336843D01*
X256990Y336162D01*
X256867Y335363D01*
X256442Y334675D01*
X255782Y334207D01*
X254992Y334033D01*
X254197Y334182D01*
X253523Y334628D01*
X204357Y383794D01*
X49572Y383794D01*
X48825Y383937D01*
X48147Y384378D01*
X47695Y385048D01*
X46929Y386899D01*
X45938Y387889D01*
X45530Y388474D01*
X45344Y389261D01*
X45480Y390059D01*
X45916Y390740D01*
X46583Y391197D01*
X47375Y391358D01*
X217509Y391358D01*
X260563Y434412D01*
X261193Y434840D01*
X261984Y435007D01*
X262778Y434853D01*
X264629Y434086D01*
X268772Y434086D01*
X272599Y435671D01*
X275529Y438601D01*
X277114Y442429D01*
X277114Y446572D01*
X275529Y450399D01*
X272599Y453329D01*
X268772Y454914D01*
X264629Y454914D01*
X260801Y453329D01*
X257871Y450399D01*
X256286Y446572D01*
X256286Y442429D01*
X257053Y440578D01*
X257207Y439833D01*
X257059Y439038D01*
X256612Y438363D01*
X215790Y397541D01*
X215146Y397107D01*
X214353Y396946D01*
X48279Y396946D01*
X47577Y397071D01*
X46889Y397496D01*
X46421Y398156D01*
X46248Y398946D01*
X46396Y399741D01*
X46842Y400415D01*
X46929Y400501D01*
X48514Y404329D01*
X48514Y408472D01*
X46929Y412299D01*
X43999Y415229D01*
X40172Y416814D01*
X36029Y416814D01*
X32201Y415229D01*
X29271Y412299D01*
X27686Y408472D01*
X27686Y404329D01*
X29271Y400501D01*
X31582Y398190D01*
X32004Y397576D01*
X32177Y396786D01*
X32029Y395991D01*
X31582Y395317D01*
X26583Y390317D01*
X25998Y389909D01*
X25211Y389723D01*
X24414Y389859D01*
X23732Y390294D01*
X23275Y390961D01*
X23114Y391754D01*
X23114Y395772D01*
X21529Y399599D01*
X18599Y402529D01*
X14772Y404114D01*
X12192Y404114D01*
X11460Y404251D01*
X10778Y404686D01*
X10321Y405353D01*
X10160Y406146D01*
X10160Y406654D01*
X10297Y407387D01*
X10732Y408068D01*
X11399Y408525D01*
X12192Y408686D01*
X14772Y408686D01*
X18599Y410271D01*
X21529Y413201D01*
X23114Y417029D01*
X23114Y421172D01*
X21529Y424999D01*
X18599Y427929D01*
X14772Y429514D01*
X12192Y429514D01*
X11460Y429651D01*
X10778Y430086D01*
X10321Y430753D01*
X10160Y431546D01*
X10160Y432054D01*
X10297Y432787D01*
X10732Y433468D01*
X11399Y433925D01*
X12192Y434086D01*
X14772Y434086D01*
X18599Y435671D01*
X21529Y438601D01*
X23114Y442429D01*
X23114Y446572D01*
X21529Y450399D01*
X18599Y453329D01*
X14772Y454914D01*
X12192Y454914D01*
X11460Y455051D01*
X10778Y455486D01*
X10321Y456153D01*
X10160Y456946D01*
X10160Y457454D01*
X10297Y458187D01*
X10732Y458868D01*
X11399Y459325D01*
X12192Y459486D01*
X14772Y459486D01*
X18599Y461071D01*
X21529Y464001D01*
X23114Y467829D01*
X23114Y471972D01*
X21529Y475799D01*
X18599Y478729D01*
X14772Y480314D01*
X12192Y480314D01*
X11460Y480451D01*
X10778Y480886D01*
X10321Y481553D01*
X10160Y482346D01*
X10160Y482854D01*
X10297Y483587D01*
X10732Y484268D01*
X11399Y484725D01*
X12192Y484886D01*
X14772Y484886D01*
X18599Y486471D01*
X21529Y489401D01*
X23114Y493229D01*
X23114Y495808D01*
X23251Y496541D01*
X23686Y497222D01*
X24353Y497679D01*
X25146Y497840D01*
X253238Y497840D01*
X253971Y497703D01*
X254652Y497268D01*
X254956Y496824D01*
X278522Y496824D01*
X279006Y497328D01*
X279750Y497646D01*
X280558Y497649D01*
X284851Y496796D01*
X285583Y496492D01*
X289868Y493629D01*
X290429Y493068D01*
X293292Y488783D01*
X293596Y488051D01*
X294601Y482996D01*
X294640Y482600D01*
X294640Y444246D01*
X294503Y443514D01*
X294068Y442832D01*
X293401Y442375D01*
X292608Y442214D01*
X290029Y442214D01*
X286201Y440629D01*
X283271Y437699D01*
X281686Y433872D01*
X281686Y429729D01*
X283271Y425901D01*
X286201Y422971D01*
X289688Y421527D01*
X290289Y421143D01*
X290762Y420487D01*
X290942Y419698D01*
X290800Y418902D01*
X290358Y418225D01*
X289688Y417773D01*
X285625Y416090D01*
X282410Y412875D01*
X280670Y408674D01*
X280670Y407924D01*
X293624Y407924D01*
X293624Y404876D01*
X280670Y404876D01*
X280670Y404126D01*
X282410Y399925D01*
X285625Y396710D01*
X289688Y395027D01*
X290289Y394643D01*
X290762Y393987D01*
X290942Y393199D01*
X290800Y392403D01*
X290358Y391725D01*
X289688Y391273D01*
X286201Y389829D01*
X283271Y386899D01*
X281686Y383072D01*
X281686Y378929D01*
X283271Y375101D01*
X286201Y372171D01*
X290029Y370586D01*
X292608Y370586D01*
X293341Y370449D01*
X294022Y370014D01*
X294479Y369347D01*
X294640Y368554D01*
X294640Y368046D01*
X294503Y367314D01*
X294068Y366632D01*
X293401Y366175D01*
X292608Y366014D01*
X290029Y366014D01*
X286201Y364429D01*
X283271Y361499D01*
X281686Y357672D01*
X281686Y353529D01*
X283271Y349701D01*
X286201Y346771D01*
X290029Y345186D01*
X292608Y345186D01*
X293341Y345049D01*
X294022Y344614D01*
X294479Y343947D01*
X294640Y343154D01*
X294640Y342646D01*
X294503Y341914D01*
X294068Y341232D01*
X293401Y340775D01*
X292608Y340614D01*
X290029Y340614D01*
X286201Y339029D01*
X283271Y336099D01*
X281686Y332272D01*
X281686Y328129D01*
X283271Y324301D01*
X286201Y321371D01*
X290029Y319786D01*
X292608Y319786D01*
X293341Y319649D01*
X294022Y319214D01*
X294479Y318547D01*
X294640Y317754D01*
X294640Y317246D01*
X294503Y316514D01*
X294068Y315832D01*
X293401Y315375D01*
X292608Y315214D01*
X290029Y315214D01*
X286201Y313629D01*
X283271Y310699D01*
X281686Y306872D01*
X281686Y302729D01*
X282453Y300878D01*
X282607Y300133D01*
X282459Y299338D01*
X282012Y298663D01*
X279383Y296035D01*
X278784Y295620D01*
G37*
%LPC*%
G36*
X264629Y459486D02*
X268772Y459486D01*
X272599Y461071D01*
X275529Y464001D01*
X277114Y467829D01*
X277114Y471972D01*
X275529Y475799D01*
X272599Y478729D01*
X269112Y480173D01*
X268511Y480557D01*
X268038Y481213D01*
X267859Y482002D01*
X268000Y482798D01*
X268442Y483476D01*
X269112Y483927D01*
X273175Y485610D01*
X276390Y488825D01*
X278130Y493026D01*
X278130Y493776D01*
X255270Y493776D01*
X255270Y493026D01*
X257010Y488825D01*
X260225Y485610D01*
X264288Y483927D01*
X264889Y483543D01*
X265362Y482887D01*
X265542Y482099D01*
X265400Y481303D01*
X264958Y480625D01*
X264288Y480173D01*
X260801Y478729D01*
X257871Y475799D01*
X256286Y471972D01*
X256286Y467829D01*
X257871Y464001D01*
X260801Y461071D01*
X264629Y459486D01*
G37*
G36*
X36029Y421386D02*
X40172Y421386D01*
X43999Y422971D01*
X46929Y425901D01*
X48514Y429729D01*
X48514Y433872D01*
X46929Y437699D01*
X43999Y440629D01*
X40172Y442214D01*
X36029Y442214D01*
X32201Y440629D01*
X29271Y437699D01*
X27686Y433872D01*
X27686Y429729D01*
X29271Y425901D01*
X32201Y422971D01*
X36029Y421386D01*
G37*
G36*
X264629Y408686D02*
X268772Y408686D01*
X272599Y410271D01*
X275529Y413201D01*
X277114Y417029D01*
X277114Y421172D01*
X275529Y424999D01*
X272599Y427929D01*
X268772Y429514D01*
X264629Y429514D01*
X260801Y427929D01*
X257871Y424999D01*
X256286Y421172D01*
X256286Y417029D01*
X257871Y413201D01*
X260801Y410271D01*
X264629Y408686D01*
G37*
G36*
X264629Y383286D02*
X268772Y383286D01*
X272599Y384871D01*
X275529Y387801D01*
X277114Y391629D01*
X277114Y395772D01*
X275529Y399599D01*
X272599Y402529D01*
X268772Y404114D01*
X264629Y404114D01*
X260801Y402529D01*
X257871Y399599D01*
X256286Y395772D01*
X256286Y391629D01*
X257871Y387801D01*
X260801Y384871D01*
X264629Y383286D01*
G37*
G36*
X255270Y344424D02*
X278130Y344424D01*
X278130Y345174D01*
X276390Y349375D01*
X273175Y352590D01*
X269112Y354273D01*
X268511Y354657D01*
X268038Y355313D01*
X267859Y356101D01*
X268000Y356897D01*
X268442Y357575D01*
X269112Y358027D01*
X272599Y359471D01*
X275529Y362401D01*
X277114Y366229D01*
X277114Y370372D01*
X275529Y374199D01*
X272599Y377129D01*
X268772Y378714D01*
X264629Y378714D01*
X260801Y377129D01*
X257871Y374199D01*
X256286Y370372D01*
X256286Y366229D01*
X257871Y362401D01*
X260801Y359471D01*
X264288Y358027D01*
X264889Y357643D01*
X265362Y356987D01*
X265542Y356198D01*
X265400Y355402D01*
X264958Y354725D01*
X264288Y354273D01*
X260225Y352590D01*
X257010Y349375D01*
X255270Y345174D01*
X255270Y344424D01*
G37*
%LPD*%
G36*
X255414Y159951D02*
X254624Y159778D01*
X253829Y159926D01*
X253155Y160372D01*
X118633Y294894D01*
X81978Y294894D01*
X81215Y295043D01*
X80541Y295489D01*
X79206Y296824D01*
X77255Y297632D01*
X75145Y297632D01*
X73194Y296824D01*
X71702Y295332D01*
X70894Y293381D01*
X70894Y291194D01*
X71013Y290641D01*
X70878Y289844D01*
X70442Y289162D01*
X69775Y288705D01*
X68982Y288544D01*
X59149Y288544D01*
X58386Y288693D01*
X57712Y289139D01*
X48188Y298663D01*
X47760Y299293D01*
X47593Y300084D01*
X47747Y300878D01*
X48514Y302729D01*
X48514Y306872D01*
X46929Y310699D01*
X43999Y313629D01*
X40172Y315214D01*
X36029Y315214D01*
X31962Y313530D01*
X31840Y313444D01*
X31053Y313258D01*
X30256Y313394D01*
X29574Y313830D01*
X29117Y314497D01*
X28956Y315289D01*
X28956Y319711D01*
X29081Y320413D01*
X29506Y321101D01*
X30166Y321569D01*
X30956Y321742D01*
X31751Y321594D01*
X31897Y321498D01*
X36029Y319786D01*
X40172Y319786D01*
X43999Y321371D01*
X46929Y324301D01*
X47695Y326152D01*
X48113Y326788D01*
X48780Y327245D01*
X49572Y327406D01*
X226601Y327406D01*
X227364Y327257D01*
X228038Y326811D01*
X256612Y298237D01*
X257040Y297607D01*
X257207Y296816D01*
X257053Y296022D01*
X256286Y294171D01*
X256286Y290029D01*
X257871Y286201D01*
X260801Y283271D01*
X264629Y281686D01*
X268772Y281686D01*
X272599Y283271D01*
X273137Y283810D01*
X273722Y284218D01*
X274509Y284404D01*
X275307Y284268D01*
X275988Y283832D01*
X276445Y283165D01*
X276606Y282373D01*
X276606Y276427D01*
X276481Y275725D01*
X276056Y275037D01*
X275396Y274569D01*
X274606Y274396D01*
X273811Y274544D01*
X273137Y274990D01*
X272599Y275529D01*
X268772Y277114D01*
X264629Y277114D01*
X260801Y275529D01*
X257871Y272599D01*
X256286Y268772D01*
X256286Y264629D01*
X257327Y262116D01*
X257481Y261403D01*
X257345Y260606D01*
X256909Y259924D01*
X256242Y259467D01*
X255450Y259306D01*
X252945Y259306D01*
X250994Y258498D01*
X249502Y257006D01*
X248694Y255055D01*
X248694Y252945D01*
X249502Y250994D01*
X250611Y249885D01*
X251045Y249241D01*
X251206Y248449D01*
X251206Y208752D01*
X251057Y207989D01*
X250611Y207315D01*
X249463Y206167D01*
X249143Y205666D01*
X248487Y205193D01*
X247699Y205013D01*
X246902Y205155D01*
X246225Y205597D01*
X245847Y206156D01*
X244689Y207315D01*
X244255Y207959D01*
X244094Y208752D01*
X244094Y273849D01*
X244243Y274611D01*
X244689Y275285D01*
X245798Y276394D01*
X246606Y278345D01*
X246606Y280455D01*
X245798Y282406D01*
X244306Y283898D01*
X242355Y284706D01*
X240245Y284706D01*
X238294Y283898D01*
X236802Y282406D01*
X235994Y280455D01*
X235994Y278345D01*
X236802Y276394D01*
X237911Y275285D01*
X238345Y274641D01*
X238506Y273849D01*
X238506Y208752D01*
X238357Y207989D01*
X237911Y207315D01*
X236802Y206206D01*
X235840Y203884D01*
X235445Y203272D01*
X234785Y202804D01*
X233995Y202630D01*
X233200Y202779D01*
X232526Y203225D01*
X158301Y277450D01*
X157867Y278094D01*
X157706Y278887D01*
X157706Y280455D01*
X156898Y282406D01*
X155406Y283898D01*
X153455Y284706D01*
X151345Y284706D01*
X149394Y283898D01*
X147902Y282406D01*
X147094Y280455D01*
X147094Y278345D01*
X147902Y276394D01*
X149394Y274902D01*
X151345Y274094D01*
X152913Y274094D01*
X153676Y273945D01*
X154350Y273499D01*
X240143Y187706D01*
X255228Y187706D01*
X255975Y187563D01*
X256653Y187122D01*
X257105Y186452D01*
X257871Y184601D01*
X260801Y181671D01*
X264629Y180086D01*
X268772Y180086D01*
X272599Y181671D01*
X273137Y182210D01*
X273722Y182618D01*
X274509Y182804D01*
X275307Y182668D01*
X275988Y182232D01*
X276445Y181565D01*
X276606Y180773D01*
X276606Y179799D01*
X276457Y179036D01*
X276011Y178362D01*
X272837Y175188D01*
X272207Y174760D01*
X271416Y174593D01*
X270622Y174747D01*
X268771Y175514D01*
X264629Y175514D01*
X260801Y173929D01*
X257871Y170999D01*
X256286Y167172D01*
X256286Y163029D01*
X256469Y162587D01*
X256621Y161906D01*
X256498Y161107D01*
X256074Y160419D01*
X255414Y159951D01*
G37*
G36*
X256762Y131298D02*
X255972Y131124D01*
X255177Y131272D01*
X254502Y131719D01*
X100384Y285837D01*
X99976Y286422D01*
X99790Y287209D01*
X99926Y288007D01*
X100361Y288688D01*
X101028Y289145D01*
X101821Y289306D01*
X115477Y289306D01*
X116240Y289157D01*
X116914Y288711D01*
X256019Y149606D01*
X256973Y149606D01*
X257675Y149481D01*
X258363Y149056D01*
X258831Y148396D01*
X259004Y147606D01*
X258856Y146811D01*
X258410Y146137D01*
X257871Y145599D01*
X256286Y141772D01*
X256286Y137629D01*
X257817Y133933D01*
X257969Y133253D01*
X257846Y132454D01*
X257421Y131765D01*
X256762Y131298D01*
G37*
G36*
X109541Y244255D02*
X108749Y244094D01*
X103599Y244094D01*
X102836Y244243D01*
X102162Y244689D01*
X77357Y269494D01*
X49643Y269494D01*
X44237Y264088D01*
X43607Y263660D01*
X42816Y263493D01*
X42022Y263647D01*
X40171Y264414D01*
X36029Y264414D01*
X31962Y262730D01*
X31840Y262644D01*
X31053Y262458D01*
X30256Y262594D01*
X29574Y263030D01*
X29117Y263697D01*
X28956Y264489D01*
X28956Y268911D01*
X29081Y269613D01*
X29506Y270301D01*
X30166Y270769D01*
X30956Y270942D01*
X31751Y270794D01*
X31897Y270698D01*
X36029Y268986D01*
X40172Y268986D01*
X43999Y270571D01*
X46929Y273501D01*
X47695Y275352D01*
X48113Y275988D01*
X48780Y276445D01*
X49572Y276606D01*
X89949Y276606D01*
X90712Y276457D01*
X91386Y276011D01*
X117411Y249986D01*
X117812Y249416D01*
X118004Y248630D01*
X117875Y247832D01*
X117444Y247147D01*
X116781Y246685D01*
X115990Y246517D01*
X115535Y246606D01*
X113245Y246606D01*
X111294Y245798D01*
X110185Y244689D01*
X109541Y244255D01*
G37*
G36*
X62294Y206155D02*
X61501Y205994D01*
X49572Y205994D01*
X48825Y206137D01*
X48147Y206578D01*
X47695Y207248D01*
X46929Y209099D01*
X43999Y212029D01*
X40172Y213614D01*
X36029Y213614D01*
X31962Y211930D01*
X31840Y211844D01*
X31053Y211658D01*
X30256Y211794D01*
X29574Y212230D01*
X29117Y212897D01*
X28956Y213689D01*
X28956Y218111D01*
X29081Y218813D01*
X29506Y219501D01*
X30166Y219969D01*
X30956Y220142D01*
X31751Y219994D01*
X31897Y219898D01*
X36029Y218186D01*
X40172Y218186D01*
X43999Y219771D01*
X46929Y222701D01*
X48514Y226529D01*
X48514Y230672D01*
X46929Y234499D01*
X43999Y237429D01*
X40172Y239014D01*
X36029Y239014D01*
X31962Y237330D01*
X31840Y237244D01*
X31053Y237058D01*
X30256Y237194D01*
X29574Y237630D01*
X29117Y238297D01*
X28956Y239089D01*
X28956Y243511D01*
X29081Y244213D01*
X29506Y244901D01*
X30166Y245369D01*
X30956Y245542D01*
X31751Y245394D01*
X31897Y245298D01*
X36029Y243586D01*
X40172Y243586D01*
X43999Y245171D01*
X46929Y248101D01*
X48514Y251929D01*
X48514Y256071D01*
X47747Y257922D01*
X47593Y258667D01*
X47741Y259462D01*
X48188Y260137D01*
X51362Y263311D01*
X52006Y263745D01*
X52799Y263906D01*
X74201Y263906D01*
X74964Y263757D01*
X75638Y263311D01*
X76175Y262774D01*
X76590Y262174D01*
X76769Y261386D01*
X76627Y260589D01*
X76186Y259912D01*
X75516Y259460D01*
X73194Y258498D01*
X71702Y257006D01*
X70894Y255055D01*
X70894Y252945D01*
X71702Y250994D01*
X73194Y249502D01*
X75145Y248694D01*
X76713Y248694D01*
X77476Y248545D01*
X78150Y248099D01*
X88875Y237374D01*
X89290Y236774D01*
X89469Y235986D01*
X89327Y235189D01*
X88886Y234512D01*
X88216Y234060D01*
X85894Y233098D01*
X84402Y231606D01*
X83594Y229655D01*
X83594Y228087D01*
X83445Y227324D01*
X82999Y226650D01*
X62938Y206589D01*
X62294Y206155D01*
G37*
G36*
X258019Y104301D02*
X257227Y104140D01*
X230853Y104140D01*
X230090Y104289D01*
X229416Y104735D01*
X99114Y235037D01*
X98706Y235622D01*
X98520Y236409D01*
X98656Y237207D01*
X99091Y237888D01*
X99758Y238345D01*
X100551Y238506D01*
X108749Y238506D01*
X109511Y238357D01*
X110185Y237911D01*
X111294Y236802D01*
X113245Y235994D01*
X115355Y235994D01*
X117306Y236802D01*
X118798Y238294D01*
X119606Y240245D01*
X119606Y242491D01*
X119520Y242877D01*
X119643Y243676D01*
X120067Y244364D01*
X120727Y244832D01*
X121517Y245005D01*
X122312Y244857D01*
X122986Y244411D01*
X147114Y220282D01*
X147542Y219653D01*
X147709Y218862D01*
X147555Y218068D01*
X147094Y216955D01*
X147094Y214845D01*
X147902Y212894D01*
X149394Y211402D01*
X151345Y210594D01*
X153455Y210594D01*
X155406Y211402D01*
X156898Y212894D01*
X157706Y214845D01*
X157706Y215707D01*
X157831Y216409D01*
X158256Y217097D01*
X158916Y217565D01*
X159706Y217739D01*
X160501Y217590D01*
X161175Y217144D01*
X256984Y121335D01*
X257412Y120705D01*
X257579Y119914D01*
X257425Y119120D01*
X256286Y116372D01*
X256286Y112229D01*
X257871Y108401D01*
X258664Y107609D01*
X259072Y107024D01*
X259258Y106237D01*
X259122Y105440D01*
X258686Y104758D01*
X258019Y104301D01*
G37*
G36*
X255047Y10321D02*
X254254Y10160D01*
X25146Y10160D01*
X24414Y10297D01*
X23732Y10732D01*
X23275Y11399D01*
X23114Y12192D01*
X23114Y14772D01*
X21529Y18599D01*
X18599Y21529D01*
X14772Y23114D01*
X12192Y23114D01*
X11460Y23251D01*
X10778Y23686D01*
X10321Y24353D01*
X10160Y25146D01*
X10160Y25654D01*
X10297Y26387D01*
X10732Y27068D01*
X11399Y27525D01*
X12192Y27686D01*
X14772Y27686D01*
X18599Y29271D01*
X21529Y32201D01*
X23114Y36029D01*
X23114Y40172D01*
X21529Y43999D01*
X18599Y46929D01*
X14772Y48514D01*
X12192Y48514D01*
X11460Y48651D01*
X10778Y49086D01*
X10321Y49753D01*
X10160Y50546D01*
X10160Y51054D01*
X10297Y51787D01*
X10732Y52468D01*
X11399Y52925D01*
X12192Y53086D01*
X14772Y53086D01*
X18599Y54671D01*
X21529Y57601D01*
X23114Y61429D01*
X23114Y65572D01*
X21529Y69399D01*
X18599Y72329D01*
X14772Y73914D01*
X12192Y73914D01*
X11460Y74051D01*
X10778Y74486D01*
X10321Y75153D01*
X10160Y75946D01*
X10160Y76454D01*
X10297Y77187D01*
X10732Y77868D01*
X11399Y78325D01*
X12192Y78486D01*
X14772Y78486D01*
X18599Y80071D01*
X21529Y83001D01*
X23114Y86829D01*
X23114Y90972D01*
X21529Y94799D01*
X18599Y97729D01*
X14772Y99314D01*
X12192Y99314D01*
X11460Y99451D01*
X10778Y99886D01*
X10321Y100553D01*
X10160Y101346D01*
X10160Y101854D01*
X10297Y102587D01*
X10732Y103268D01*
X11399Y103725D01*
X12192Y103886D01*
X14772Y103886D01*
X18599Y105471D01*
X21529Y108401D01*
X23114Y112229D01*
X23114Y116372D01*
X21529Y120199D01*
X18599Y123129D01*
X14772Y124714D01*
X12192Y124714D01*
X11460Y124851D01*
X10778Y125286D01*
X10321Y125953D01*
X10160Y126746D01*
X10160Y127254D01*
X10297Y127987D01*
X10732Y128668D01*
X11399Y129125D01*
X12192Y129286D01*
X14772Y129286D01*
X18599Y130871D01*
X21529Y133801D01*
X23114Y137629D01*
X23114Y141772D01*
X21529Y145599D01*
X18599Y148529D01*
X15112Y149973D01*
X14511Y150357D01*
X14038Y151013D01*
X13859Y151802D01*
X14000Y152598D01*
X14442Y153276D01*
X15112Y153727D01*
X19175Y155410D01*
X22390Y158625D01*
X22847Y159729D01*
X23242Y160341D01*
X23902Y160809D01*
X24692Y160983D01*
X25487Y160834D01*
X26161Y160388D01*
X28012Y158537D01*
X28440Y157907D01*
X28607Y157116D01*
X28453Y156322D01*
X27686Y154471D01*
X27686Y150329D01*
X29271Y146501D01*
X32201Y143571D01*
X36029Y141986D01*
X40172Y141986D01*
X43999Y143571D01*
X46929Y146501D01*
X48514Y150329D01*
X48514Y154472D01*
X46929Y158299D01*
X43999Y161229D01*
X40172Y162814D01*
X36029Y162814D01*
X34178Y162047D01*
X33433Y161893D01*
X32638Y162041D01*
X31963Y162488D01*
X29551Y164900D01*
X29117Y165544D01*
X28956Y166337D01*
X28956Y167311D01*
X29081Y168013D01*
X29506Y168701D01*
X30166Y169169D01*
X30956Y169342D01*
X31751Y169194D01*
X31897Y169098D01*
X36029Y167386D01*
X40172Y167386D01*
X43999Y168971D01*
X46929Y171901D01*
X48514Y175729D01*
X48514Y179872D01*
X46929Y183699D01*
X43999Y186629D01*
X40172Y188214D01*
X36029Y188214D01*
X31962Y186530D01*
X31840Y186444D01*
X31053Y186258D01*
X30256Y186394D01*
X29574Y186830D01*
X29117Y187497D01*
X28956Y188289D01*
X28956Y192711D01*
X29081Y193413D01*
X29506Y194101D01*
X30166Y194569D01*
X30956Y194742D01*
X31751Y194594D01*
X31897Y194498D01*
X36029Y192786D01*
X40172Y192786D01*
X43999Y194371D01*
X46929Y197301D01*
X47695Y199152D01*
X48113Y199788D01*
X48780Y200245D01*
X49572Y200406D01*
X64657Y200406D01*
X86950Y222699D01*
X87594Y223133D01*
X88387Y223294D01*
X89955Y223294D01*
X91906Y224102D01*
X93398Y225594D01*
X94360Y227916D01*
X94755Y228528D01*
X95415Y228996D01*
X96205Y229170D01*
X97000Y229021D01*
X97674Y228575D01*
X227697Y98552D01*
X256719Y98552D01*
X257421Y98427D01*
X258109Y98002D01*
X258577Y97342D01*
X258750Y96552D01*
X258602Y95757D01*
X258156Y95083D01*
X257871Y94799D01*
X256286Y90972D01*
X256286Y86829D01*
X257871Y83001D01*
X260801Y80071D01*
X264629Y78486D01*
X268772Y78486D01*
X272599Y80071D01*
X275529Y83001D01*
X277114Y86829D01*
X277114Y90972D01*
X275529Y94799D01*
X273673Y96654D01*
X273252Y97269D01*
X273078Y98059D01*
X273227Y98854D01*
X273673Y99528D01*
X278217Y104072D01*
X278802Y104480D01*
X279589Y104666D01*
X280387Y104531D01*
X281068Y104095D01*
X281525Y103428D01*
X281686Y102635D01*
X281686Y99529D01*
X283271Y95701D01*
X286201Y92771D01*
X289688Y91327D01*
X290289Y90943D01*
X290762Y90287D01*
X290942Y89498D01*
X290800Y88702D01*
X290358Y88025D01*
X289688Y87573D01*
X285625Y85890D01*
X282410Y82675D01*
X280670Y78474D01*
X280670Y77724D01*
X293624Y77724D01*
X293624Y64452D01*
X294022Y64198D01*
X294479Y63531D01*
X294640Y62738D01*
X294640Y12192D01*
X294503Y11460D01*
X294068Y10778D01*
X293401Y10321D01*
X292608Y10160D01*
X279146Y10160D01*
X278414Y10297D01*
X277732Y10732D01*
X277275Y11399D01*
X277114Y12192D01*
X277114Y14772D01*
X275529Y18599D01*
X272599Y21529D01*
X268772Y23114D01*
X264629Y23114D01*
X260801Y21529D01*
X257871Y18599D01*
X256286Y14772D01*
X256286Y12192D01*
X256149Y11460D01*
X255714Y10778D01*
X255047Y10321D01*
G37*
%LPC*%
G36*
X26670Y103124D02*
X49530Y103124D01*
X49530Y103874D01*
X47790Y108075D01*
X44575Y111290D01*
X40512Y112973D01*
X39911Y113357D01*
X39438Y114013D01*
X39259Y114801D01*
X39400Y115597D01*
X39842Y116275D01*
X40512Y116727D01*
X43999Y118171D01*
X46929Y121101D01*
X48514Y124929D01*
X48514Y129072D01*
X46929Y132899D01*
X43999Y135829D01*
X40172Y137414D01*
X36029Y137414D01*
X32201Y135829D01*
X29271Y132899D01*
X27686Y129072D01*
X27686Y124929D01*
X29271Y121101D01*
X32201Y118171D01*
X35688Y116727D01*
X36289Y116343D01*
X36762Y115687D01*
X36942Y114898D01*
X36800Y114102D01*
X36358Y113425D01*
X35688Y112973D01*
X31625Y111290D01*
X28410Y108075D01*
X26670Y103874D01*
X26670Y103124D01*
G37*
G36*
X36029Y65786D02*
X40172Y65786D01*
X43999Y67371D01*
X46929Y70301D01*
X48514Y74129D01*
X48514Y78272D01*
X46929Y82099D01*
X43999Y85029D01*
X40512Y86473D01*
X39911Y86857D01*
X39438Y87513D01*
X39259Y88302D01*
X39400Y89098D01*
X39842Y89776D01*
X40512Y90227D01*
X44575Y91910D01*
X47790Y95125D01*
X49530Y99326D01*
X49530Y100076D01*
X26670Y100076D01*
X26670Y99326D01*
X28410Y95125D01*
X31625Y91910D01*
X35688Y90227D01*
X36289Y89843D01*
X36762Y89187D01*
X36942Y88399D01*
X36800Y87603D01*
X36358Y86925D01*
X35688Y86473D01*
X32201Y85029D01*
X29271Y82099D01*
X27686Y78272D01*
X27686Y74129D01*
X29271Y70301D01*
X32201Y67371D01*
X36029Y65786D01*
G37*
G36*
X289826Y64770D02*
X290576Y64770D01*
X290576Y74676D01*
X280670Y74676D01*
X280670Y73926D01*
X282410Y69725D01*
X285625Y66510D01*
X289826Y64770D01*
G37*
G36*
X264629Y53086D02*
X268772Y53086D01*
X272599Y54671D01*
X275529Y57601D01*
X277114Y61429D01*
X277114Y65572D01*
X275529Y69399D01*
X272599Y72329D01*
X268772Y73914D01*
X264629Y73914D01*
X260801Y72329D01*
X257871Y69399D01*
X256286Y65572D01*
X256286Y61429D01*
X257871Y57601D01*
X260801Y54671D01*
X264629Y53086D01*
G37*
G36*
X264629Y27686D02*
X268772Y27686D01*
X272599Y29271D01*
X275529Y32201D01*
X277114Y36029D01*
X277114Y40172D01*
X275529Y43999D01*
X272599Y46929D01*
X268772Y48514D01*
X264629Y48514D01*
X260801Y46929D01*
X257871Y43999D01*
X256286Y40172D01*
X256286Y36029D01*
X257871Y32201D01*
X260801Y29271D01*
X264629Y27686D01*
G37*
%LPD*%
D10*
X38100Y431800D03*
X38100Y406400D03*
X38100Y381000D03*
X38100Y355600D03*
X38100Y330200D03*
X38100Y304800D03*
X38100Y279400D03*
X38100Y254000D03*
X38100Y228600D03*
X38100Y203200D03*
X38100Y177800D03*
X38100Y152400D03*
X38100Y127000D03*
X38100Y101600D03*
X38100Y76200D03*
X292100Y431800D03*
X292100Y406400D03*
X292100Y381000D03*
X292100Y355600D03*
X292100Y330200D03*
X292100Y304800D03*
X292100Y279400D03*
X292100Y254000D03*
X292100Y228600D03*
X292100Y203200D03*
X292100Y177800D03*
X292100Y152400D03*
X292100Y127000D03*
X292100Y101600D03*
X292100Y76200D03*
X12700Y495300D03*
X12700Y469900D03*
X12700Y444500D03*
X12700Y419100D03*
X12700Y393700D03*
X12700Y368300D03*
X12700Y342900D03*
X12700Y317500D03*
X12700Y292100D03*
X12700Y266700D03*
X12700Y241300D03*
X12700Y215900D03*
X12700Y190500D03*
X12700Y165100D03*
X12700Y139700D03*
X12700Y114300D03*
X12700Y88900D03*
X12700Y63500D03*
X12700Y38100D03*
X12700Y12700D03*
X266700Y495300D03*
X266700Y469900D03*
X266700Y444500D03*
X266700Y419100D03*
X266700Y393700D03*
X266700Y368300D03*
X266700Y342900D03*
X266700Y317500D03*
X266700Y292100D03*
X266700Y266700D03*
X266700Y241300D03*
X266700Y215900D03*
X266700Y190500D03*
X266700Y165100D03*
X266700Y139700D03*
X266700Y114300D03*
X266700Y88900D03*
X266700Y63500D03*
X266700Y38100D03*
X266700Y12700D03*
D11*
X63500Y190500D03*
X50800Y12700D03*
X241300Y12700D03*
X50800Y482600D03*
X241300Y482600D03*
X139700Y368300D03*
X63500Y76200D03*
X228600Y139700D03*
X228600Y76200D03*
X139700Y254000D03*
X228600Y254000D03*
X63500Y317500D03*
X241300Y393700D03*
X228600Y317500D03*
X177800Y215900D03*
X190500Y203200D03*
X63500Y241300D03*
X63500Y355600D03*
X88900Y266700D03*
D12*
X38100Y381000D02*
X203200Y381000D01*
X266700Y317500D01*
X266700Y292100D02*
X228600Y330200D01*
X38100Y330200D01*
D11*
X88900Y228600D03*
D12*
X63500Y203200D01*
X38100Y203200D01*
D11*
X152400Y279400D03*
D12*
X241300Y190500D01*
X266700Y190500D01*
X279400Y177800D02*
X266700Y165100D01*
X279400Y177800D02*
X279400Y292100D01*
X292100Y304800D01*
D11*
X254000Y203200D03*
D12*
X254000Y254000D01*
D11*
X254000Y254000D03*
X241300Y279400D03*
D12*
X241300Y203200D01*
D11*
X241300Y203200D03*
D12*
X26162Y164338D02*
X26162Y385945D01*
X26162Y164338D02*
X38100Y152400D01*
X216352Y394152D02*
X266700Y444500D01*
X216352Y394152D02*
X34369Y394152D01*
X26162Y385945D01*
D11*
X114300Y241300D03*
D12*
X50800Y266700D02*
X38100Y254000D01*
X76200Y266700D02*
X101600Y241300D01*
X76200Y266700D02*
X50800Y266700D01*
X101600Y241300D02*
X114300Y241300D01*
D11*
X152400Y215900D03*
D12*
X91948Y279400D02*
X38100Y279400D01*
X152400Y218948D02*
X152400Y215900D01*
X152400Y218948D02*
X91948Y279400D01*
X266700Y115570D02*
X266700Y114300D01*
X266700Y115570D02*
X96520Y285750D01*
X57150Y285750D01*
X38100Y304800D01*
D11*
X76200Y254000D03*
D12*
X228854Y101346D02*
X271540Y101346D01*
X228854Y101346D02*
X76200Y254000D01*
X292086Y152400D02*
X292100Y152400D01*
X292086Y152400D02*
X279146Y139460D01*
X279146Y108952D02*
X271540Y101346D01*
X279146Y108952D02*
X279146Y139460D01*
X292100Y173976D02*
X292100Y177800D01*
X292100Y173976D02*
X270524Y152400D01*
X257176Y152400D01*
X117476Y292100D01*
D11*
X76200Y292326D03*
D12*
X76426Y292100D02*
X117476Y292100D01*
X76426Y292100D02*
X76200Y292326D01*
M02*
