M48
;GenerationSoftware,Autodesk,EAGLE,9.7.0*%
;CreationDate,2024-06-24T16:31:20Z*%
FMAT,2
ICI,OFF
METRIC,TZ,000.000
T2C0.350
T1C1.016
%
G90
M71
T1
X1270Y21590
X1270Y19050
X1270Y16510
X1270Y13970
X1270Y11430
X1270Y8890
X1270Y6350
X1270Y3810
X1270Y1270
X26670Y49530
X26670Y46990
X26670Y44450
X29210Y30480
X26670Y41910
X26670Y39370
X26670Y36830
X26670Y34290
X26670Y29210
X26670Y26670
X26670Y24130
X26670Y21590
X26670Y19050
X26670Y16510
X26670Y13970
X26670Y11430
X26670Y8890
X26670Y6350
X26670Y3810
X26670Y1270
X3810Y43180
X3810Y40640
X3810Y38100
X3810Y35560
X3810Y33020
X3810Y30480
X3810Y27940
X3810Y25400
X3810Y22860
X3810Y20320
X3810Y17780
X3810Y15240
X3810Y12700
X3810Y10160
X3810Y7620
X29210Y43180
X29210Y40640
X29210Y38100
X29210Y35560
X29210Y33020
X26670Y31750
X29210Y27940
X29210Y25400
X29210Y22860
X29210Y20320
X29210Y17780
X29210Y15240
X29210Y12700
X29210Y10160
X29210Y7620
X1270Y49530
X1270Y46990
X1270Y44450
X1270Y41910
X1270Y39370
X1270Y36830
X1270Y34290
X1270Y31750
X1270Y29210
X1270Y26670
X1270Y24130
T2
X6350Y19050
X5080Y1270
X24130Y1270
X5080Y48260
X24130Y48260
X13970Y36830
X6350Y7620
X22860Y13970
X22860Y7620
X13970Y25400
X22860Y25400
X6350Y31750
X22860Y31750
X17780Y21590
X19050Y20320
X6350Y24130
X6350Y35560
X8890Y26670
X8890Y22860
X15240Y27940
X25400Y20320
X25400Y25400
X24130Y27940
X24130Y20320
X11430Y24130
X15240Y21590
X7620Y25400
X7620Y29233
X24130Y39370
M30