G04 EAGLE Gerber RS-274X export*
G75*
%MOMM*%
%FSLAX34Y34*%
%LPD*%
%INSilkscreen Top*%
%IPPOS*%
%AMOC8*
5,1,8,0,0,1.08239X$1,22.5*%
G01*
G04 Define Apertures*
%ADD10C,0.406400*%
%ADD11C,0.254000*%
%ADD12C,0.152400*%
G36*
X96545Y134486D02*
X96016Y134499D01*
X95514Y134539D01*
X95040Y134606D01*
X94594Y134699D01*
X94176Y134819D01*
X93784Y134966D01*
X93421Y135139D01*
X93085Y135339D01*
X92778Y135563D01*
X92499Y135810D01*
X92248Y136079D01*
X92027Y136371D01*
X91834Y136685D01*
X91671Y137021D01*
X91535Y137380D01*
X91429Y137762D01*
X93650Y138081D01*
X93713Y137857D01*
X93793Y137647D01*
X93890Y137450D01*
X94004Y137266D01*
X94134Y137096D01*
X94281Y136939D01*
X94445Y136795D01*
X94625Y136664D01*
X94821Y136547D01*
X95032Y136446D01*
X95257Y136361D01*
X95497Y136291D01*
X95752Y136237D01*
X96022Y136198D01*
X96307Y136175D01*
X96606Y136167D01*
X97006Y136182D01*
X97026Y136184D01*
X97380Y136227D01*
X97728Y136303D01*
X98050Y136408D01*
X98346Y136544D01*
X98617Y136710D01*
X98862Y136907D01*
X99081Y137133D01*
X99275Y137390D01*
X99442Y137676D01*
X99584Y137993D01*
X99700Y138341D01*
X99790Y138718D01*
X99855Y139126D01*
X99893Y139563D01*
X99906Y140031D01*
X99906Y142166D01*
X99882Y142166D01*
X99718Y141857D01*
X99540Y141567D01*
X99347Y141298D01*
X99139Y141048D01*
X98917Y140818D01*
X98681Y140607D01*
X98430Y140417D01*
X98182Y140257D01*
X98164Y140246D01*
X97885Y140095D01*
X97595Y139964D01*
X97294Y139853D01*
X96980Y139763D01*
X96656Y139692D01*
X96319Y139642D01*
X95972Y139612D01*
X95612Y139602D01*
X95312Y139608D01*
X95022Y139627D01*
X94742Y139659D01*
X94473Y139703D01*
X94213Y139760D01*
X93963Y139830D01*
X93724Y139912D01*
X93495Y140007D01*
X93275Y140114D01*
X93066Y140234D01*
X92678Y140513D01*
X92331Y140842D01*
X92024Y141221D01*
X91755Y141655D01*
X91522Y142147D01*
X91325Y142696D01*
X91164Y143304D01*
X91038Y143969D01*
X90949Y144692D01*
X90895Y145473D01*
X90877Y146312D01*
X90896Y147164D01*
X90954Y147958D01*
X91050Y148694D01*
X91185Y149372D01*
X91359Y149992D01*
X91570Y150555D01*
X91821Y151061D01*
X92110Y151508D01*
X92438Y151900D01*
X92806Y152241D01*
X93006Y152391D01*
X93215Y152528D01*
X93434Y152653D01*
X93663Y152764D01*
X93903Y152862D01*
X94152Y152947D01*
X94411Y153019D01*
X94680Y153078D01*
X94960Y153124D01*
X95249Y153156D01*
X95548Y153176D01*
X95858Y153183D01*
X96205Y153173D01*
X96540Y153142D01*
X96863Y153092D01*
X97175Y153022D01*
X97475Y152931D01*
X97764Y152820D01*
X98040Y152689D01*
X98305Y152539D01*
X98557Y152369D01*
X98794Y152182D01*
X99016Y151979D01*
X99224Y151758D01*
X99417Y151520D01*
X99595Y151265D01*
X99758Y150993D01*
X99906Y150704D01*
X99931Y150704D01*
X99943Y151207D01*
X99980Y151980D01*
X100029Y152683D01*
X100053Y152880D01*
X100078Y152974D01*
X102176Y152974D01*
X102144Y152554D01*
X102121Y151956D01*
X102102Y150226D01*
X102102Y140080D01*
X102081Y139403D01*
X102015Y138769D01*
X101907Y138179D01*
X101755Y137633D01*
X101559Y137130D01*
X101321Y136671D01*
X101038Y136256D01*
X100713Y135885D01*
X100344Y135557D01*
X99931Y135273D01*
X99475Y135032D01*
X98976Y134836D01*
X98433Y134683D01*
X97847Y134574D01*
X97218Y134508D01*
X96545Y134486D01*
G37*
%LPC*%
G36*
X96361Y141234D02*
X96618Y141243D01*
X96868Y141272D01*
X97110Y141320D01*
X97345Y141387D01*
X97573Y141473D01*
X97794Y141579D01*
X98007Y141703D01*
X98213Y141847D01*
X98410Y142009D01*
X98595Y142187D01*
X98769Y142382D01*
X98794Y142415D01*
X98931Y142594D01*
X99082Y142822D01*
X99221Y143067D01*
X99348Y143329D01*
X99465Y143607D01*
X99568Y143901D01*
X99658Y144208D01*
X99734Y144529D01*
X99796Y144863D01*
X99844Y145211D01*
X99879Y145573D01*
X99899Y145948D01*
X99906Y146337D01*
X99899Y146735D01*
X99879Y147119D01*
X99844Y147489D01*
X99796Y147844D01*
X99734Y148186D01*
X99658Y148514D01*
X99568Y148828D01*
X99465Y149128D01*
X99349Y149412D01*
X99221Y149679D01*
X99082Y149929D01*
X98932Y150162D01*
X98771Y150377D01*
X98599Y150575D01*
X98415Y150756D01*
X98219Y150919D01*
X98015Y151064D01*
X97804Y151190D01*
X97587Y151297D01*
X97362Y151384D01*
X97131Y151452D01*
X96893Y151500D01*
X96649Y151529D01*
X96398Y151539D01*
X95989Y151520D01*
X95609Y151462D01*
X95257Y151366D01*
X94935Y151232D01*
X94641Y151059D01*
X94376Y150849D01*
X94139Y150599D01*
X93932Y150312D01*
X93751Y149981D01*
X93594Y149603D01*
X93461Y149178D01*
X93352Y148705D01*
X93267Y148184D01*
X93207Y147616D01*
X93171Y147000D01*
X93159Y146337D01*
X93170Y145680D01*
X93204Y145071D01*
X93261Y144510D01*
X93340Y143997D01*
X93442Y143532D01*
X93566Y143114D01*
X93713Y142745D01*
X93883Y142424D01*
X94080Y142145D01*
X94309Y141903D01*
X94570Y141698D01*
X94864Y141531D01*
X95190Y141401D01*
X95548Y141308D01*
X95938Y141252D01*
X96361Y141234D01*
G37*
%LPD*%
G36*
X229654Y187826D02*
X229125Y187839D01*
X228624Y187879D01*
X228150Y187946D01*
X227704Y188039D01*
X227285Y188159D01*
X226894Y188306D01*
X226530Y188479D01*
X226195Y188679D01*
X225887Y188903D01*
X225608Y189150D01*
X225358Y189419D01*
X225136Y189711D01*
X224944Y190025D01*
X224780Y190361D01*
X224645Y190720D01*
X224538Y191102D01*
X226759Y191421D01*
X226822Y191197D01*
X226903Y190987D01*
X227000Y190790D01*
X227113Y190606D01*
X227243Y190436D01*
X227390Y190279D01*
X227554Y190135D01*
X227734Y190004D01*
X227930Y189887D01*
X228141Y189786D01*
X228366Y189701D01*
X228607Y189631D01*
X228862Y189577D01*
X229132Y189538D01*
X229416Y189515D01*
X229715Y189507D01*
X230115Y189522D01*
X230136Y189524D01*
X230489Y189567D01*
X230837Y189643D01*
X231159Y189748D01*
X231456Y189884D01*
X231726Y190050D01*
X231971Y190247D01*
X232191Y190473D01*
X232384Y190730D01*
X232552Y191016D01*
X232693Y191333D01*
X232809Y191681D01*
X232900Y192058D01*
X232964Y192466D01*
X233003Y192903D01*
X233016Y193371D01*
X233016Y195506D01*
X232991Y195506D01*
X232827Y195197D01*
X232649Y194907D01*
X232456Y194638D01*
X232249Y194388D01*
X232027Y194158D01*
X231790Y193947D01*
X231539Y193757D01*
X231291Y193597D01*
X231274Y193586D01*
X230995Y193435D01*
X230705Y193304D01*
X230403Y193193D01*
X230090Y193103D01*
X229765Y193032D01*
X229429Y192982D01*
X229081Y192952D01*
X228722Y192942D01*
X228422Y192948D01*
X228132Y192967D01*
X227852Y192999D01*
X227582Y193043D01*
X227322Y193100D01*
X227073Y193170D01*
X226833Y193252D01*
X226604Y193347D01*
X226385Y193454D01*
X226176Y193574D01*
X225788Y193853D01*
X225440Y194182D01*
X225133Y194561D01*
X224865Y194995D01*
X224632Y195487D01*
X224434Y196036D01*
X224273Y196644D01*
X224148Y197309D01*
X224058Y198032D01*
X224004Y198813D01*
X223986Y199652D01*
X224006Y200504D01*
X224063Y201298D01*
X224160Y202034D01*
X224295Y202712D01*
X224468Y203332D01*
X224680Y203895D01*
X224930Y204401D01*
X225219Y204848D01*
X225548Y205240D01*
X225916Y205581D01*
X226115Y205731D01*
X226324Y205868D01*
X226543Y205993D01*
X226773Y206104D01*
X227012Y206202D01*
X227261Y206287D01*
X227520Y206359D01*
X227790Y206418D01*
X228069Y206464D01*
X228358Y206496D01*
X228658Y206516D01*
X228967Y206523D01*
X229314Y206513D01*
X229649Y206482D01*
X229973Y206432D01*
X230284Y206362D01*
X230585Y206271D01*
X230873Y206160D01*
X231150Y206029D01*
X231415Y205879D01*
X231666Y205709D01*
X231903Y205522D01*
X232126Y205319D01*
X232333Y205098D01*
X232526Y204860D01*
X232704Y204605D01*
X232867Y204333D01*
X233016Y204044D01*
X233040Y204044D01*
X233052Y204547D01*
X233089Y205320D01*
X233138Y206023D01*
X233163Y206220D01*
X233187Y206314D01*
X235285Y206314D01*
X235253Y205894D01*
X235230Y205296D01*
X235212Y203566D01*
X235212Y193420D01*
X235190Y192743D01*
X235125Y192109D01*
X235016Y191519D01*
X234864Y190973D01*
X234669Y190470D01*
X234430Y190011D01*
X234148Y189596D01*
X233822Y189225D01*
X233453Y188897D01*
X233041Y188613D01*
X232585Y188372D01*
X232086Y188176D01*
X231543Y188023D01*
X230957Y187914D01*
X230327Y187848D01*
X229654Y187826D01*
G37*
%LPC*%
G36*
X229470Y194574D02*
X229727Y194583D01*
X229977Y194612D01*
X230219Y194660D01*
X230455Y194727D01*
X230683Y194813D01*
X230903Y194919D01*
X231117Y195043D01*
X231323Y195187D01*
X231519Y195349D01*
X231704Y195527D01*
X231878Y195722D01*
X231903Y195755D01*
X232040Y195934D01*
X232191Y196162D01*
X232330Y196407D01*
X232458Y196669D01*
X232574Y196947D01*
X232677Y197241D01*
X232767Y197548D01*
X232843Y197869D01*
X232905Y198203D01*
X232953Y198551D01*
X232988Y198913D01*
X233009Y199288D01*
X233016Y199677D01*
X233009Y200075D01*
X232988Y200459D01*
X232953Y200829D01*
X232905Y201184D01*
X232843Y201526D01*
X232767Y201854D01*
X232677Y202168D01*
X232574Y202468D01*
X232458Y202752D01*
X232331Y203019D01*
X232192Y203269D01*
X232042Y203502D01*
X231881Y203717D01*
X231708Y203915D01*
X231524Y204096D01*
X231329Y204259D01*
X231124Y204404D01*
X230914Y204530D01*
X230696Y204637D01*
X230472Y204724D01*
X230240Y204792D01*
X230003Y204840D01*
X229758Y204869D01*
X229507Y204879D01*
X229098Y204860D01*
X228718Y204802D01*
X228367Y204706D01*
X228044Y204572D01*
X227750Y204399D01*
X227485Y204189D01*
X227249Y203939D01*
X227041Y203652D01*
X226860Y203321D01*
X226703Y202943D01*
X226570Y202518D01*
X226461Y202045D01*
X226377Y201524D01*
X226316Y200956D01*
X226280Y200340D01*
X226268Y199677D01*
X226279Y199020D01*
X226313Y198411D01*
X226370Y197850D01*
X226449Y197337D01*
X226551Y196872D01*
X226675Y196454D01*
X226822Y196085D01*
X226992Y195764D01*
X227189Y195485D01*
X227418Y195243D01*
X227680Y195038D01*
X227973Y194871D01*
X228299Y194741D01*
X228657Y194648D01*
X229048Y194592D01*
X229470Y194574D01*
G37*
%LPD*%
G36*
X190520Y214496D02*
X188312Y214496D01*
X188312Y230273D01*
X188293Y231975D01*
X188270Y232566D01*
X188238Y232984D01*
X190373Y232984D01*
X190410Y232634D01*
X190465Y231708D01*
X190495Y230849D01*
X190545Y230849D01*
X190698Y231146D01*
X190863Y231422D01*
X191040Y231677D01*
X191228Y231912D01*
X191429Y232127D01*
X191642Y232320D01*
X191866Y232494D01*
X192103Y232647D01*
X192354Y232780D01*
X192626Y232896D01*
X192916Y232994D01*
X193225Y233075D01*
X193554Y233137D01*
X193901Y233181D01*
X194268Y233208D01*
X194654Y233217D01*
X194956Y233211D01*
X195248Y233191D01*
X195531Y233159D01*
X195804Y233114D01*
X196067Y233057D01*
X196320Y232986D01*
X196564Y232902D01*
X196798Y232806D01*
X197023Y232697D01*
X197237Y232575D01*
X197638Y232292D01*
X197999Y231959D01*
X198322Y231573D01*
X198607Y231133D01*
X198854Y230634D01*
X199063Y230076D01*
X199233Y229460D01*
X199366Y228785D01*
X199461Y228052D01*
X199518Y227259D01*
X199537Y226408D01*
X199518Y225568D01*
X199461Y224781D01*
X199365Y224049D01*
X199232Y223370D01*
X199060Y222747D01*
X198850Y222177D01*
X198602Y221662D01*
X198316Y221201D01*
X197992Y220794D01*
X197630Y220441D01*
X197434Y220285D01*
X197229Y220143D01*
X197015Y220014D01*
X196791Y219899D01*
X196557Y219797D01*
X196314Y219709D01*
X196061Y219634D01*
X195799Y219573D01*
X195527Y219526D01*
X195246Y219492D01*
X194955Y219471D01*
X194654Y219465D01*
X194279Y219474D01*
X193919Y219501D01*
X193575Y219546D01*
X193247Y219609D01*
X192934Y219690D01*
X192637Y219789D01*
X192356Y219906D01*
X192090Y220041D01*
X191841Y220194D01*
X191606Y220366D01*
X191388Y220555D01*
X191186Y220762D01*
X190999Y220987D01*
X190827Y221230D01*
X190672Y221492D01*
X190532Y221771D01*
X190471Y221771D01*
X190492Y221604D01*
X190508Y221201D01*
X190520Y219685D01*
X190520Y214496D01*
G37*
%LPC*%
G36*
X194065Y221096D02*
X194463Y221115D01*
X194832Y221172D01*
X195173Y221266D01*
X195487Y221398D01*
X195773Y221568D01*
X196031Y221776D01*
X196261Y222021D01*
X196464Y222305D01*
X196641Y222632D01*
X196794Y223011D01*
X196924Y223441D01*
X197030Y223923D01*
X197112Y224455D01*
X197171Y225039D01*
X197207Y225673D01*
X197218Y226359D01*
X197207Y227028D01*
X197172Y227647D01*
X197113Y228216D01*
X197031Y228736D01*
X196926Y229207D01*
X196797Y229628D01*
X196645Y230000D01*
X196470Y230322D01*
X196269Y230601D01*
X196041Y230843D01*
X195785Y231047D01*
X195501Y231214D01*
X195190Y231345D01*
X194851Y231438D01*
X194484Y231493D01*
X194090Y231512D01*
X193771Y231503D01*
X193469Y231477D01*
X193186Y231434D01*
X192920Y231374D01*
X192672Y231296D01*
X192442Y231201D01*
X192230Y231089D01*
X192035Y230960D01*
X191855Y230812D01*
X191686Y230645D01*
X191528Y230459D01*
X191382Y230253D01*
X191246Y230028D01*
X191122Y229783D01*
X191009Y229519D01*
X190906Y229236D01*
X190816Y228932D01*
X190737Y228606D01*
X190671Y228258D01*
X190617Y227888D01*
X190574Y227496D01*
X190544Y227082D01*
X190526Y226646D01*
X190520Y226188D01*
X190533Y225556D01*
X190572Y224967D01*
X190637Y224421D01*
X190729Y223918D01*
X190846Y223458D01*
X190989Y223041D01*
X191159Y222667D01*
X191354Y222335D01*
X191579Y222045D01*
X191837Y221793D01*
X192127Y221580D01*
X192449Y221406D01*
X192804Y221271D01*
X193192Y221174D01*
X193613Y221116D01*
X194065Y221096D01*
G37*
%LPD*%
G36*
X207270Y81146D02*
X205062Y81146D01*
X205062Y96923D01*
X205043Y98625D01*
X205020Y99216D01*
X204988Y99634D01*
X207123Y99634D01*
X207160Y99284D01*
X207215Y98358D01*
X207245Y97499D01*
X207295Y97499D01*
X207448Y97796D01*
X207613Y98072D01*
X207790Y98327D01*
X207978Y98562D01*
X208179Y98777D01*
X208392Y98970D01*
X208616Y99144D01*
X208853Y99297D01*
X209104Y99430D01*
X209376Y99546D01*
X209666Y99644D01*
X209975Y99725D01*
X210304Y99787D01*
X210651Y99831D01*
X211018Y99858D01*
X211404Y99867D01*
X211706Y99861D01*
X211998Y99841D01*
X212281Y99809D01*
X212554Y99764D01*
X212817Y99707D01*
X213070Y99636D01*
X213314Y99552D01*
X213548Y99456D01*
X213773Y99347D01*
X213987Y99225D01*
X214388Y98942D01*
X214749Y98609D01*
X215072Y98223D01*
X215357Y97783D01*
X215604Y97284D01*
X215813Y96726D01*
X215983Y96110D01*
X216116Y95435D01*
X216211Y94702D01*
X216268Y93909D01*
X216287Y93058D01*
X216268Y92218D01*
X216211Y91431D01*
X216115Y90699D01*
X215982Y90020D01*
X215810Y89397D01*
X215600Y88827D01*
X215352Y88312D01*
X215066Y87851D01*
X214742Y87444D01*
X214380Y87091D01*
X214184Y86935D01*
X213979Y86793D01*
X213765Y86664D01*
X213541Y86549D01*
X213307Y86447D01*
X213064Y86359D01*
X212811Y86284D01*
X212549Y86223D01*
X212277Y86176D01*
X211996Y86142D01*
X211705Y86121D01*
X211404Y86115D01*
X211029Y86124D01*
X210669Y86151D01*
X210325Y86196D01*
X209997Y86259D01*
X209684Y86340D01*
X209387Y86439D01*
X209106Y86556D01*
X208840Y86691D01*
X208591Y86844D01*
X208356Y87016D01*
X208138Y87205D01*
X207936Y87412D01*
X207749Y87637D01*
X207577Y87880D01*
X207422Y88142D01*
X207282Y88421D01*
X207221Y88421D01*
X207242Y88254D01*
X207258Y87851D01*
X207270Y86335D01*
X207270Y81146D01*
G37*
%LPC*%
G36*
X210815Y87746D02*
X211213Y87765D01*
X211582Y87822D01*
X211923Y87916D01*
X212237Y88048D01*
X212523Y88218D01*
X212781Y88426D01*
X213011Y88671D01*
X213214Y88955D01*
X213391Y89282D01*
X213544Y89661D01*
X213674Y90091D01*
X213780Y90573D01*
X213862Y91105D01*
X213921Y91689D01*
X213957Y92323D01*
X213968Y93009D01*
X213957Y93678D01*
X213922Y94297D01*
X213863Y94866D01*
X213781Y95386D01*
X213676Y95857D01*
X213547Y96278D01*
X213395Y96650D01*
X213220Y96972D01*
X213019Y97251D01*
X212791Y97493D01*
X212535Y97697D01*
X212251Y97864D01*
X211940Y97995D01*
X211601Y98088D01*
X211234Y98143D01*
X210840Y98162D01*
X210521Y98153D01*
X210219Y98127D01*
X209936Y98084D01*
X209670Y98024D01*
X209422Y97946D01*
X209192Y97851D01*
X208980Y97739D01*
X208785Y97610D01*
X208605Y97462D01*
X208436Y97295D01*
X208278Y97109D01*
X208132Y96903D01*
X207996Y96678D01*
X207872Y96433D01*
X207759Y96169D01*
X207656Y95886D01*
X207566Y95582D01*
X207487Y95256D01*
X207421Y94908D01*
X207367Y94538D01*
X207324Y94146D01*
X207294Y93732D01*
X207276Y93296D01*
X207270Y92838D01*
X207283Y92206D01*
X207322Y91617D01*
X207387Y91071D01*
X207479Y90568D01*
X207596Y90108D01*
X207739Y89691D01*
X207909Y89317D01*
X208104Y88985D01*
X208329Y88695D01*
X208587Y88443D01*
X208877Y88230D01*
X209199Y88056D01*
X209554Y87921D01*
X209942Y87824D01*
X210363Y87766D01*
X210815Y87746D01*
G37*
%LPD*%
G36*
X181369Y86115D02*
X181060Y86121D01*
X180761Y86141D01*
X180473Y86174D01*
X180195Y86220D01*
X179927Y86280D01*
X179670Y86353D01*
X179423Y86439D01*
X179187Y86538D01*
X178961Y86650D01*
X178745Y86776D01*
X178540Y86915D01*
X178345Y87067D01*
X178161Y87232D01*
X177987Y87411D01*
X177670Y87808D01*
X177393Y88258D01*
X177152Y88763D01*
X176949Y89322D01*
X176782Y89936D01*
X176653Y90604D01*
X176560Y91327D01*
X176505Y92104D01*
X176486Y92936D01*
X176505Y93777D01*
X176563Y94563D01*
X176658Y95295D01*
X176791Y95974D01*
X176963Y96597D01*
X177173Y97167D01*
X177421Y97682D01*
X177707Y98143D01*
X178031Y98550D01*
X178394Y98903D01*
X178589Y99059D01*
X178794Y99201D01*
X179009Y99330D01*
X179233Y99445D01*
X179466Y99547D01*
X179710Y99635D01*
X179962Y99710D01*
X180225Y99771D01*
X180496Y99818D01*
X180778Y99852D01*
X181069Y99873D01*
X181369Y99879D01*
X181738Y99871D01*
X182092Y99845D01*
X182430Y99802D01*
X182752Y99741D01*
X183059Y99664D01*
X183350Y99569D01*
X183625Y99457D01*
X183884Y99327D01*
X184129Y99179D01*
X184362Y99011D01*
X184583Y98822D01*
X184792Y98613D01*
X184988Y98383D01*
X185172Y98134D01*
X185344Y97863D01*
X185503Y97573D01*
X185528Y97573D01*
X185503Y99057D01*
X185503Y104566D01*
X187712Y104566D01*
X187712Y89096D01*
X187730Y87375D01*
X187753Y86779D01*
X187785Y86360D01*
X185675Y86360D01*
X185637Y86685D01*
X185595Y87268D01*
X185563Y87930D01*
X185552Y88495D01*
X185503Y88495D01*
X185344Y88187D01*
X185172Y87902D01*
X184987Y87640D01*
X184790Y87400D01*
X184581Y87183D01*
X184359Y86988D01*
X184125Y86816D01*
X183878Y86667D01*
X183617Y86537D01*
X183341Y86425D01*
X183051Y86330D01*
X182745Y86253D01*
X182423Y86192D01*
X182087Y86149D01*
X181736Y86123D01*
X181369Y86115D01*
G37*
%LPC*%
G36*
X181933Y87820D02*
X182386Y87840D01*
X182807Y87901D01*
X183196Y88003D01*
X183553Y88145D01*
X183877Y88328D01*
X184169Y88551D01*
X184429Y88816D01*
X184629Y89084D01*
X184657Y89120D01*
X184855Y89468D01*
X185027Y89860D01*
X185173Y90297D01*
X185292Y90780D01*
X185384Y91307D01*
X185450Y91878D01*
X185490Y92495D01*
X185503Y93157D01*
X185490Y93794D01*
X185450Y94387D01*
X185384Y94936D01*
X185292Y95441D01*
X185173Y95902D01*
X185027Y96319D01*
X184855Y96692D01*
X184657Y97021D01*
X184429Y97308D01*
X184171Y97558D01*
X183880Y97769D01*
X183559Y97941D01*
X183206Y98075D01*
X182821Y98171D01*
X182405Y98229D01*
X181958Y98248D01*
X181555Y98228D01*
X181182Y98171D01*
X180837Y98074D01*
X180521Y97940D01*
X180234Y97766D01*
X179976Y97554D01*
X179747Y97304D01*
X179547Y97015D01*
X179373Y96683D01*
X179222Y96302D01*
X179095Y95874D01*
X178991Y95397D01*
X178909Y94872D01*
X178851Y94299D01*
X178817Y93678D01*
X178805Y93009D01*
X178816Y92338D01*
X178851Y91716D01*
X178908Y91143D01*
X178989Y90620D01*
X179093Y90146D01*
X179219Y89722D01*
X179369Y89347D01*
X179541Y89022D01*
X179739Y88740D01*
X179967Y88496D01*
X180223Y88290D01*
X180507Y88120D01*
X180821Y87989D01*
X181163Y87895D01*
X181534Y87839D01*
X181933Y87820D01*
G37*
%LPD*%
G36*
X131664Y113030D02*
X129320Y113030D01*
X129320Y130316D01*
X136595Y130316D01*
X137302Y130294D01*
X137967Y130231D01*
X138591Y130124D01*
X139175Y129975D01*
X139717Y129784D01*
X140218Y129550D01*
X140679Y129273D01*
X141098Y128954D01*
X141472Y128596D01*
X141796Y128203D01*
X142070Y127776D01*
X142294Y127313D01*
X142468Y126816D01*
X142537Y126554D01*
X142593Y126283D01*
X142637Y126004D01*
X142668Y125716D01*
X142686Y125419D01*
X142693Y125114D01*
X142686Y124811D01*
X142668Y124516D01*
X142636Y124229D01*
X142593Y123950D01*
X142467Y123415D01*
X142292Y122912D01*
X142067Y122440D01*
X141792Y121999D01*
X141467Y121590D01*
X141092Y121213D01*
X140673Y120874D01*
X140219Y120579D01*
X139730Y120331D01*
X139204Y120127D01*
X138642Y119969D01*
X138045Y119856D01*
X137412Y119788D01*
X136743Y119765D01*
X131664Y119765D01*
X131664Y113030D01*
G37*
%LPC*%
G36*
X136411Y121618D02*
X136887Y121631D01*
X137331Y121672D01*
X137746Y121740D01*
X138129Y121835D01*
X138482Y121957D01*
X138804Y122106D01*
X139095Y122282D01*
X139356Y122486D01*
X139586Y122716D01*
X139785Y122974D01*
X139954Y123259D01*
X140092Y123571D01*
X140199Y123910D01*
X140276Y124276D01*
X140322Y124669D01*
X140337Y125090D01*
X140321Y125495D01*
X140274Y125874D01*
X140196Y126228D01*
X140086Y126555D01*
X139944Y126856D01*
X139771Y127130D01*
X139567Y127379D01*
X139331Y127601D01*
X139064Y127798D01*
X138765Y127968D01*
X138435Y128112D01*
X138074Y128229D01*
X137681Y128321D01*
X137256Y128386D01*
X136800Y128426D01*
X136313Y128439D01*
X131664Y128439D01*
X131664Y121618D01*
X136411Y121618D01*
G37*
%LPD*%
G36*
X110722Y139455D02*
X110364Y139462D01*
X110017Y139482D01*
X109682Y139517D01*
X109357Y139565D01*
X109044Y139628D01*
X108742Y139704D01*
X108450Y139794D01*
X108170Y139898D01*
X107901Y140016D01*
X107644Y140147D01*
X107397Y140293D01*
X107161Y140452D01*
X106937Y140625D01*
X106723Y140812D01*
X106521Y141013D01*
X106330Y141227D01*
X106150Y141455D01*
X105982Y141695D01*
X105826Y141948D01*
X105681Y142212D01*
X105547Y142489D01*
X105426Y142779D01*
X105315Y143080D01*
X105217Y143394D01*
X105130Y143720D01*
X105054Y144059D01*
X104938Y144773D01*
X104869Y145537D01*
X104846Y146349D01*
X104869Y147181D01*
X104898Y147577D01*
X104939Y147959D01*
X104991Y148328D01*
X105055Y148684D01*
X105130Y149026D01*
X105218Y149355D01*
X105316Y149670D01*
X105427Y149972D01*
X105549Y150261D01*
X105682Y150536D01*
X105828Y150797D01*
X105985Y151046D01*
X106153Y151280D01*
X106333Y151502D01*
X106525Y151710D01*
X106728Y151904D01*
X106943Y152086D01*
X107170Y152253D01*
X107408Y152408D01*
X107658Y152548D01*
X107919Y152676D01*
X108193Y152790D01*
X108477Y152891D01*
X108774Y152978D01*
X109082Y153052D01*
X109401Y153112D01*
X109732Y153159D01*
X110075Y153193D01*
X110430Y153213D01*
X110796Y153219D01*
X111170Y153213D01*
X111531Y153193D01*
X111880Y153161D01*
X112216Y153115D01*
X112540Y153056D01*
X112852Y152984D01*
X113150Y152899D01*
X113436Y152801D01*
X113710Y152690D01*
X113971Y152565D01*
X114219Y152428D01*
X114455Y152277D01*
X114679Y152114D01*
X114890Y151937D01*
X115088Y151748D01*
X115274Y151545D01*
X115447Y151328D01*
X115610Y151097D01*
X115761Y150852D01*
X115902Y150592D01*
X116030Y150318D01*
X116148Y150029D01*
X116255Y149726D01*
X116350Y149409D01*
X116434Y149077D01*
X116507Y148730D01*
X116619Y147994D01*
X116686Y147201D01*
X116709Y146349D01*
X116703Y145921D01*
X116685Y145506D01*
X116655Y145105D01*
X116613Y144718D01*
X116559Y144345D01*
X116493Y143986D01*
X116415Y143641D01*
X116326Y143310D01*
X116224Y142992D01*
X116110Y142689D01*
X115984Y142399D01*
X115846Y142124D01*
X115697Y141862D01*
X115535Y141614D01*
X115361Y141380D01*
X115175Y141160D01*
X114978Y140953D01*
X114770Y140760D01*
X114552Y140580D01*
X114322Y140414D01*
X114082Y140261D01*
X113830Y140121D01*
X113568Y139994D01*
X113295Y139881D01*
X113012Y139781D01*
X112717Y139694D01*
X112412Y139621D01*
X112095Y139561D01*
X111768Y139515D01*
X111430Y139481D01*
X111082Y139461D01*
X110722Y139455D01*
G37*
%LPC*%
G36*
X110698Y141086D02*
X111177Y141106D01*
X111620Y141166D01*
X112029Y141266D01*
X112401Y141405D01*
X112739Y141585D01*
X113040Y141804D01*
X113307Y142063D01*
X113538Y142362D01*
X113737Y142704D01*
X113911Y143090D01*
X114057Y143521D01*
X114177Y143997D01*
X114270Y144518D01*
X114337Y145083D01*
X114377Y145694D01*
X114390Y146349D01*
X114377Y147013D01*
X114339Y147629D01*
X114276Y148199D01*
X114186Y148722D01*
X114072Y149197D01*
X113931Y149626D01*
X113766Y150008D01*
X113574Y150343D01*
X113353Y150634D01*
X113097Y150887D01*
X112806Y151101D01*
X112481Y151276D01*
X112121Y151413D01*
X111726Y151510D01*
X111297Y151568D01*
X110832Y151588D01*
X110365Y151568D01*
X109930Y151508D01*
X109530Y151409D01*
X109163Y151270D01*
X108829Y151092D01*
X108529Y150874D01*
X108262Y150616D01*
X108029Y150318D01*
X107827Y149978D01*
X107651Y149594D01*
X107502Y149165D01*
X107381Y148691D01*
X107286Y148173D01*
X107218Y147609D01*
X107178Y147002D01*
X107164Y146349D01*
X107178Y145713D01*
X107218Y145118D01*
X107284Y144564D01*
X107378Y144051D01*
X107497Y143578D01*
X107644Y143146D01*
X107817Y142755D01*
X108017Y142405D01*
X108245Y142096D01*
X108504Y141828D01*
X108794Y141601D01*
X109113Y141416D01*
X109464Y141272D01*
X109845Y141169D01*
X110256Y141107D01*
X110698Y141086D01*
G37*
%LPD*%
G36*
X55656Y192795D02*
X55296Y192803D01*
X54948Y192829D01*
X54609Y192871D01*
X54282Y192930D01*
X53965Y193007D01*
X53659Y193100D01*
X53364Y193210D01*
X53080Y193338D01*
X52806Y193482D01*
X52543Y193643D01*
X52291Y193821D01*
X52049Y194016D01*
X51818Y194228D01*
X51598Y194457D01*
X51389Y194703D01*
X51190Y194966D01*
X51003Y195245D01*
X50828Y195540D01*
X50665Y195850D01*
X50514Y196175D01*
X50375Y196516D01*
X50248Y196872D01*
X50134Y197244D01*
X50031Y197631D01*
X49941Y198034D01*
X49862Y198452D01*
X49796Y198885D01*
X49741Y199334D01*
X49699Y199799D01*
X49669Y200278D01*
X49651Y200774D01*
X49645Y201284D01*
X49651Y201837D01*
X49670Y202374D01*
X49701Y202895D01*
X49745Y203399D01*
X49802Y203887D01*
X49871Y204358D01*
X49952Y204814D01*
X50046Y205253D01*
X50153Y205676D01*
X50272Y206082D01*
X50404Y206472D01*
X50549Y206846D01*
X50706Y207204D01*
X50875Y207545D01*
X51057Y207870D01*
X51252Y208179D01*
X51458Y208470D01*
X51675Y208742D01*
X51902Y208996D01*
X52140Y209231D01*
X52389Y209447D01*
X52649Y209644D01*
X52919Y209823D01*
X53199Y209982D01*
X53491Y210123D01*
X53793Y210245D01*
X54105Y210349D01*
X54428Y210433D01*
X54762Y210499D01*
X55107Y210546D01*
X55462Y210574D01*
X55828Y210583D01*
X56306Y210570D01*
X56761Y210528D01*
X57194Y210460D01*
X57604Y210363D01*
X57991Y210239D01*
X58356Y210088D01*
X58698Y209909D01*
X59017Y209703D01*
X59314Y209469D01*
X59589Y209208D01*
X59840Y208919D01*
X60069Y208603D01*
X60276Y208259D01*
X60460Y207888D01*
X60621Y207489D01*
X60759Y207062D01*
X58649Y206682D01*
X58562Y206938D01*
X58463Y207177D01*
X58351Y207399D01*
X58228Y207605D01*
X58092Y207795D01*
X57944Y207968D01*
X57785Y208125D01*
X57613Y208265D01*
X57429Y208388D01*
X57233Y208495D01*
X57025Y208586D01*
X56805Y208660D01*
X56572Y208718D01*
X56328Y208759D01*
X56072Y208784D01*
X55803Y208792D01*
X55570Y208785D01*
X55344Y208765D01*
X55125Y208730D01*
X54912Y208682D01*
X54706Y208620D01*
X54506Y208545D01*
X54127Y208352D01*
X53775Y208105D01*
X53449Y207802D01*
X53150Y207444D01*
X52877Y207032D01*
X52634Y206567D01*
X52424Y206053D01*
X52246Y205490D01*
X52100Y204877D01*
X51986Y204215D01*
X51905Y203504D01*
X51857Y202744D01*
X51841Y201934D01*
X51999Y202205D01*
X52172Y202459D01*
X52360Y202697D01*
X52564Y202917D01*
X52784Y203121D01*
X53018Y203309D01*
X53268Y203479D01*
X53534Y203633D01*
X53812Y203770D01*
X54099Y203888D01*
X54397Y203989D01*
X54705Y204071D01*
X55023Y204134D01*
X55351Y204180D01*
X55689Y204207D01*
X56036Y204216D01*
X56619Y204193D01*
X57171Y204123D01*
X57692Y204006D01*
X58182Y203842D01*
X58641Y203632D01*
X59069Y203374D01*
X59467Y203070D01*
X59833Y202720D01*
X60162Y202329D01*
X60448Y201907D01*
X60689Y201452D01*
X60887Y200965D01*
X61040Y200446D01*
X61150Y199895D01*
X61216Y199311D01*
X61238Y198696D01*
X61215Y198030D01*
X61145Y197400D01*
X61029Y196806D01*
X60867Y196248D01*
X60658Y195726D01*
X60403Y195241D01*
X60101Y194791D01*
X59754Y194377D01*
X59365Y194006D01*
X58941Y193685D01*
X58481Y193413D01*
X57987Y193190D01*
X57457Y193017D01*
X57179Y192949D01*
X56892Y192894D01*
X56596Y192850D01*
X56292Y192819D01*
X55978Y192801D01*
X55656Y192795D01*
G37*
%LPC*%
G36*
X55582Y194574D02*
X55970Y194590D01*
X56337Y194641D01*
X56682Y194724D01*
X57005Y194842D01*
X57308Y194993D01*
X57588Y195177D01*
X57847Y195395D01*
X58085Y195647D01*
X58298Y195928D01*
X58482Y196234D01*
X58638Y196565D01*
X58766Y196921D01*
X58865Y197303D01*
X58936Y197709D01*
X58979Y198141D01*
X58993Y198597D01*
X58979Y199053D01*
X58935Y199482D01*
X58864Y199884D01*
X58763Y200260D01*
X58633Y200608D01*
X58475Y200930D01*
X58288Y201225D01*
X58073Y201493D01*
X57831Y201731D01*
X57567Y201938D01*
X57281Y202113D01*
X56972Y202256D01*
X56640Y202368D01*
X56285Y202447D01*
X55908Y202495D01*
X55509Y202511D01*
X55132Y202497D01*
X54773Y202455D01*
X54433Y202384D01*
X54112Y202286D01*
X53809Y202159D01*
X53525Y202004D01*
X53259Y201821D01*
X53012Y201609D01*
X52789Y201373D01*
X52596Y201116D01*
X52433Y200837D01*
X52299Y200537D01*
X52195Y200216D01*
X52121Y199874D01*
X52076Y199510D01*
X52061Y199125D01*
X52077Y198636D01*
X52123Y198170D01*
X52200Y197727D01*
X52308Y197306D01*
X52447Y196908D01*
X52617Y196533D01*
X52818Y196180D01*
X53049Y195849D01*
X53305Y195550D01*
X53578Y195291D01*
X53868Y195072D01*
X54176Y194892D01*
X54502Y194753D01*
X54844Y194653D01*
X55205Y194593D01*
X55582Y194574D01*
G37*
%LPD*%
G36*
X120953Y166370D02*
X118867Y166370D01*
X118867Y183656D01*
X121947Y183656D01*
X126547Y171670D01*
X126788Y170920D01*
X127019Y170118D01*
X127208Y169405D01*
X127320Y168922D01*
X127472Y169540D01*
X127731Y170412D01*
X127993Y171227D01*
X128154Y171670D01*
X132669Y183656D01*
X135675Y183656D01*
X135675Y166370D01*
X133564Y166370D01*
X133564Y177902D01*
X133571Y178850D01*
X133592Y179779D01*
X133627Y180690D01*
X133675Y181582D01*
X133382Y180544D01*
X133104Y179626D01*
X132842Y178827D01*
X132595Y178147D01*
X128130Y166370D01*
X126486Y166370D01*
X121959Y178147D01*
X121272Y180233D01*
X120867Y181582D01*
X120904Y180221D01*
X120953Y177902D01*
X120953Y166370D01*
G37*
G36*
X161159Y86360D02*
X158730Y86360D01*
X165784Y103646D01*
X168447Y103646D01*
X175390Y86360D01*
X172998Y86360D01*
X171023Y91414D01*
X163147Y91414D01*
X161159Y86360D01*
G37*
%LPC*%
G36*
X170324Y93242D02*
X168103Y98947D01*
X167760Y99849D01*
X167416Y100861D01*
X167085Y101879D01*
X166974Y101536D01*
X166594Y100373D01*
X166067Y98923D01*
X163858Y93242D01*
X170324Y93242D01*
G37*
%LPD*%
G36*
X106510Y192795D02*
X106026Y192811D01*
X105572Y192861D01*
X105150Y192943D01*
X104759Y193058D01*
X104399Y193207D01*
X104070Y193388D01*
X103772Y193602D01*
X103505Y193850D01*
X103269Y194126D01*
X103064Y194426D01*
X102892Y194751D01*
X102750Y195101D01*
X102640Y195475D01*
X102561Y195874D01*
X102514Y196297D01*
X102499Y196745D01*
X102520Y197245D01*
X102583Y197716D01*
X102689Y198156D01*
X102837Y198567D01*
X103028Y198947D01*
X103261Y199298D01*
X103536Y199619D01*
X103854Y199910D01*
X104219Y200170D01*
X104636Y200398D01*
X105105Y200593D01*
X105625Y200757D01*
X106198Y200888D01*
X106823Y200987D01*
X107499Y201053D01*
X108228Y201088D01*
X111209Y201137D01*
X111209Y201861D01*
X111198Y202251D01*
X111166Y202613D01*
X111112Y202946D01*
X111037Y203250D01*
X110941Y203526D01*
X110822Y203772D01*
X110683Y203990D01*
X110522Y204179D01*
X110338Y204343D01*
X110129Y204485D01*
X109896Y204606D01*
X109639Y204704D01*
X109356Y204780D01*
X109050Y204835D01*
X108718Y204868D01*
X108363Y204879D01*
X108004Y204871D01*
X107671Y204847D01*
X107363Y204808D01*
X107081Y204753D01*
X106823Y204682D01*
X106592Y204596D01*
X106385Y204494D01*
X106204Y204376D01*
X106043Y204241D01*
X105900Y204087D01*
X105773Y203914D01*
X105664Y203722D01*
X105571Y203512D01*
X105495Y203283D01*
X105436Y203035D01*
X105394Y202769D01*
X103087Y202977D01*
X103174Y203411D01*
X103294Y203817D01*
X103447Y204195D01*
X103632Y204544D01*
X103850Y204866D01*
X104101Y205160D01*
X104384Y205426D01*
X104701Y205664D01*
X105050Y205874D01*
X105432Y206056D01*
X105847Y206210D01*
X106294Y206336D01*
X106774Y206433D01*
X107287Y206503D01*
X107833Y206545D01*
X108412Y206559D01*
X109018Y206541D01*
X109586Y206488D01*
X110115Y206398D01*
X110605Y206273D01*
X111056Y206111D01*
X111469Y205914D01*
X111843Y205681D01*
X112178Y205412D01*
X112474Y205110D01*
X112731Y204775D01*
X112948Y204408D01*
X113126Y204009D01*
X113264Y203578D01*
X113363Y203116D01*
X113422Y202621D01*
X113442Y202094D01*
X113442Y196377D01*
X113458Y195916D01*
X113506Y195517D01*
X113587Y195177D01*
X113699Y194899D01*
X113771Y194782D01*
X113857Y194681D01*
X113958Y194596D01*
X114073Y194526D01*
X114203Y194472D01*
X114348Y194433D01*
X114507Y194410D01*
X114681Y194402D01*
X115021Y194423D01*
X115405Y194488D01*
X115405Y193114D01*
X114985Y193028D01*
X114561Y192966D01*
X114133Y192930D01*
X113699Y192917D01*
X113403Y192927D01*
X113128Y192958D01*
X112873Y193008D01*
X112640Y193078D01*
X112427Y193169D01*
X112235Y193280D01*
X112064Y193410D01*
X111914Y193561D01*
X111782Y193734D01*
X111666Y193929D01*
X111564Y194147D01*
X111477Y194388D01*
X111406Y194652D01*
X111350Y194938D01*
X111308Y195247D01*
X111283Y195579D01*
X111209Y195579D01*
X110993Y195213D01*
X110768Y194874D01*
X110535Y194564D01*
X110293Y194281D01*
X110043Y194025D01*
X109784Y193798D01*
X109516Y193598D01*
X109240Y193426D01*
X108952Y193278D01*
X108648Y193150D01*
X108330Y193041D01*
X107996Y192953D01*
X107647Y192884D01*
X107284Y192834D01*
X106904Y192805D01*
X106510Y192795D01*
G37*
%LPC*%
G36*
X107013Y194451D02*
X107313Y194459D01*
X107604Y194485D01*
X107886Y194528D01*
X108160Y194589D01*
X108426Y194666D01*
X108683Y194761D01*
X108932Y194874D01*
X109172Y195003D01*
X109402Y195147D01*
X109620Y195305D01*
X109825Y195475D01*
X110017Y195658D01*
X110197Y195854D01*
X110365Y196062D01*
X110520Y196284D01*
X110663Y196518D01*
X110791Y196760D01*
X110902Y197003D01*
X110996Y197248D01*
X111072Y197495D01*
X111132Y197743D01*
X111175Y197994D01*
X111200Y198246D01*
X111209Y198499D01*
X111209Y199591D01*
X108792Y199542D01*
X108060Y199513D01*
X107423Y199450D01*
X106879Y199353D01*
X106643Y199292D01*
X106430Y199223D01*
X106052Y199056D01*
X105720Y198849D01*
X105436Y198602D01*
X105198Y198315D01*
X105097Y198156D01*
X105010Y197985D01*
X104936Y197802D01*
X104876Y197607D01*
X104829Y197400D01*
X104795Y197181D01*
X104775Y196951D01*
X104768Y196708D01*
X104777Y196446D01*
X104805Y196199D01*
X104850Y195967D01*
X104914Y195751D01*
X104996Y195550D01*
X105096Y195365D01*
X105214Y195195D01*
X105351Y195040D01*
X105504Y194902D01*
X105673Y194782D01*
X105858Y194681D01*
X106058Y194598D01*
X106273Y194534D01*
X106504Y194488D01*
X106751Y194460D01*
X107013Y194451D01*
G37*
%LPD*%
G36*
X194479Y86115D02*
X193995Y86131D01*
X193541Y86181D01*
X193119Y86263D01*
X192728Y86378D01*
X192368Y86527D01*
X192038Y86708D01*
X191740Y86922D01*
X191473Y87170D01*
X191238Y87446D01*
X191033Y87746D01*
X190860Y88071D01*
X190719Y88421D01*
X190609Y88795D01*
X190530Y89194D01*
X190483Y89617D01*
X190467Y90065D01*
X190489Y90565D01*
X190552Y91036D01*
X190658Y91476D01*
X190806Y91887D01*
X190997Y92267D01*
X191230Y92618D01*
X191505Y92939D01*
X191823Y93230D01*
X192188Y93490D01*
X192605Y93718D01*
X193073Y93913D01*
X193594Y94077D01*
X194167Y94208D01*
X194791Y94307D01*
X195468Y94373D01*
X196197Y94408D01*
X199178Y94457D01*
X199178Y95181D01*
X199167Y95571D01*
X199135Y95933D01*
X199081Y96266D01*
X199006Y96570D01*
X198909Y96846D01*
X198791Y97092D01*
X198652Y97310D01*
X198491Y97499D01*
X198307Y97663D01*
X198098Y97805D01*
X197865Y97926D01*
X197607Y98024D01*
X197325Y98100D01*
X197018Y98155D01*
X196687Y98188D01*
X196331Y98199D01*
X195973Y98191D01*
X195640Y98167D01*
X195332Y98128D01*
X195049Y98073D01*
X194792Y98002D01*
X194560Y97916D01*
X194354Y97814D01*
X194172Y97696D01*
X194012Y97561D01*
X193869Y97407D01*
X193742Y97234D01*
X193632Y97042D01*
X193540Y96832D01*
X193464Y96603D01*
X193405Y96355D01*
X193363Y96089D01*
X191056Y96297D01*
X191143Y96731D01*
X191263Y97137D01*
X191415Y97515D01*
X191601Y97864D01*
X191819Y98186D01*
X192069Y98480D01*
X192353Y98746D01*
X192669Y98984D01*
X193019Y99194D01*
X193401Y99376D01*
X193815Y99530D01*
X194263Y99656D01*
X194743Y99753D01*
X195256Y99823D01*
X195802Y99865D01*
X196381Y99879D01*
X196987Y99861D01*
X197554Y99808D01*
X198083Y99718D01*
X198573Y99593D01*
X199025Y99431D01*
X199438Y99234D01*
X199812Y99001D01*
X200147Y98732D01*
X200443Y98430D01*
X200700Y98095D01*
X200917Y97728D01*
X201095Y97329D01*
X201233Y96898D01*
X201331Y96436D01*
X201391Y95941D01*
X201410Y95414D01*
X201410Y89697D01*
X201427Y89236D01*
X201475Y88837D01*
X201555Y88497D01*
X201668Y88219D01*
X201740Y88102D01*
X201826Y88001D01*
X201927Y87916D01*
X202042Y87846D01*
X202172Y87792D01*
X202317Y87753D01*
X202476Y87730D01*
X202650Y87722D01*
X202990Y87743D01*
X203373Y87808D01*
X203373Y86434D01*
X202954Y86348D01*
X202530Y86286D01*
X202101Y86250D01*
X201668Y86237D01*
X201372Y86247D01*
X201096Y86278D01*
X200842Y86328D01*
X200608Y86398D01*
X200396Y86489D01*
X200204Y86600D01*
X200033Y86730D01*
X199883Y86881D01*
X199751Y87054D01*
X199634Y87249D01*
X199533Y87467D01*
X199446Y87708D01*
X199375Y87972D01*
X199318Y88258D01*
X199277Y88567D01*
X199251Y88899D01*
X199178Y88899D01*
X198962Y88533D01*
X198737Y88194D01*
X198504Y87884D01*
X198262Y87601D01*
X198012Y87345D01*
X197753Y87118D01*
X197485Y86918D01*
X197209Y86746D01*
X196920Y86598D01*
X196617Y86470D01*
X196299Y86361D01*
X195965Y86273D01*
X195616Y86204D01*
X195252Y86154D01*
X194873Y86125D01*
X194479Y86115D01*
G37*
%LPC*%
G36*
X194982Y87771D02*
X195281Y87779D01*
X195572Y87805D01*
X195855Y87848D01*
X196129Y87909D01*
X196395Y87986D01*
X196652Y88081D01*
X196901Y88194D01*
X197141Y88323D01*
X197371Y88467D01*
X197589Y88625D01*
X197794Y88795D01*
X197986Y88978D01*
X198166Y89174D01*
X198334Y89382D01*
X198489Y89604D01*
X198632Y89838D01*
X198760Y90080D01*
X198871Y90323D01*
X198964Y90568D01*
X199041Y90815D01*
X199101Y91063D01*
X199144Y91314D01*
X199169Y91566D01*
X199178Y91819D01*
X199178Y92911D01*
X196761Y92862D01*
X196029Y92833D01*
X195391Y92770D01*
X194848Y92673D01*
X194612Y92612D01*
X194399Y92543D01*
X194021Y92376D01*
X193689Y92169D01*
X193404Y91922D01*
X193166Y91635D01*
X193066Y91476D01*
X192978Y91305D01*
X192905Y91122D01*
X192844Y90927D01*
X192797Y90720D01*
X192764Y90501D01*
X192744Y90271D01*
X192737Y90028D01*
X192746Y89766D01*
X192773Y89519D01*
X192819Y89287D01*
X192883Y89071D01*
X192965Y88870D01*
X193065Y88685D01*
X193183Y88515D01*
X193320Y88360D01*
X193473Y88222D01*
X193642Y88102D01*
X193827Y88001D01*
X194027Y87918D01*
X194242Y87854D01*
X194473Y87808D01*
X194720Y87780D01*
X194982Y87771D01*
G37*
%LPD*%
G36*
X73829Y86360D02*
X60211Y86360D01*
X60211Y103646D01*
X73326Y103646D01*
X73326Y101732D01*
X62554Y101732D01*
X62554Y96187D01*
X72590Y96187D01*
X72590Y94297D01*
X62554Y94297D01*
X62554Y88274D01*
X73829Y88274D01*
X73829Y86360D01*
G37*
G36*
X109438Y113030D02*
X95820Y113030D01*
X95820Y130316D01*
X108935Y130316D01*
X108935Y128402D01*
X98164Y128402D01*
X98164Y122857D01*
X108199Y122857D01*
X108199Y120967D01*
X98164Y120967D01*
X98164Y114944D01*
X109438Y114944D01*
X109438Y113030D01*
G37*
G36*
X162282Y139700D02*
X148664Y139700D01*
X148664Y156986D01*
X161779Y156986D01*
X161779Y155072D01*
X151007Y155072D01*
X151007Y149527D01*
X161043Y149527D01*
X161043Y147637D01*
X151007Y147637D01*
X151007Y141614D01*
X162282Y141614D01*
X162282Y139700D01*
G37*
G36*
X185547Y193040D02*
X171930Y193040D01*
X171930Y210326D01*
X185044Y210326D01*
X185044Y208412D01*
X174273Y208412D01*
X174273Y202867D01*
X184308Y202867D01*
X184308Y200977D01*
X174273Y200977D01*
X174273Y194954D01*
X185547Y194954D01*
X185547Y193040D01*
G37*
G36*
X102928Y86115D02*
X102566Y86122D01*
X102214Y86142D01*
X101874Y86176D01*
X101544Y86224D01*
X101225Y86286D01*
X100918Y86361D01*
X100621Y86450D01*
X100335Y86553D01*
X100061Y86670D01*
X99797Y86800D01*
X99544Y86944D01*
X99302Y87101D01*
X99071Y87273D01*
X98851Y87458D01*
X98642Y87657D01*
X98444Y87869D01*
X98258Y88095D01*
X98084Y88334D01*
X97921Y88587D01*
X97771Y88853D01*
X97633Y89132D01*
X97506Y89425D01*
X97392Y89730D01*
X97290Y90050D01*
X97200Y90382D01*
X97121Y90728D01*
X97055Y91087D01*
X97001Y91460D01*
X96959Y91846D01*
X96929Y92245D01*
X96911Y92657D01*
X96905Y93083D01*
X96911Y93488D01*
X96929Y93881D01*
X96959Y94262D01*
X97001Y94631D01*
X97055Y94988D01*
X97121Y95333D01*
X97200Y95666D01*
X97290Y95987D01*
X97392Y96297D01*
X97506Y96594D01*
X97633Y96879D01*
X97771Y97152D01*
X97921Y97413D01*
X98084Y97663D01*
X98258Y97900D01*
X98444Y98125D01*
X98642Y98338D01*
X98850Y98536D01*
X99068Y98721D01*
X99297Y98893D01*
X99536Y99050D01*
X99785Y99194D01*
X100044Y99324D01*
X100314Y99441D01*
X100594Y99544D01*
X100884Y99633D01*
X101185Y99708D01*
X101496Y99770D01*
X101817Y99818D01*
X102149Y99852D01*
X102490Y99873D01*
X102843Y99879D01*
X103203Y99873D01*
X103551Y99852D01*
X103888Y99817D01*
X104214Y99769D01*
X104528Y99707D01*
X104831Y99631D01*
X105123Y99542D01*
X105403Y99439D01*
X105671Y99321D01*
X105929Y99191D01*
X106174Y99046D01*
X106409Y98887D01*
X106631Y98715D01*
X106843Y98529D01*
X107043Y98329D01*
X107231Y98116D01*
X107409Y97889D01*
X107574Y97647D01*
X107729Y97393D01*
X107872Y97124D01*
X108003Y96841D01*
X108123Y96545D01*
X108232Y96235D01*
X108329Y95911D01*
X108414Y95574D01*
X108489Y95223D01*
X108552Y94857D01*
X108603Y94479D01*
X108672Y93679D01*
X108694Y92825D01*
X108694Y92531D01*
X99223Y92531D01*
X99238Y91977D01*
X99283Y91455D01*
X99356Y90966D01*
X99460Y90510D01*
X99592Y90086D01*
X99755Y89695D01*
X99947Y89336D01*
X100168Y89010D01*
X100418Y88719D01*
X100695Y88468D01*
X100999Y88255D01*
X101331Y88081D01*
X101689Y87945D01*
X102075Y87848D01*
X102488Y87790D01*
X102928Y87771D01*
X103278Y87780D01*
X103610Y87807D01*
X103925Y87852D01*
X104221Y87915D01*
X104500Y87996D01*
X104761Y88095D01*
X105004Y88212D01*
X105229Y88347D01*
X105436Y88496D01*
X105626Y88655D01*
X105799Y88823D01*
X105954Y89001D01*
X106092Y89188D01*
X106212Y89385D01*
X106315Y89591D01*
X106400Y89807D01*
X108339Y89255D01*
X108178Y88875D01*
X107994Y88519D01*
X107786Y88188D01*
X107554Y87881D01*
X107299Y87599D01*
X107020Y87341D01*
X106717Y87108D01*
X106391Y86900D01*
X106041Y86716D01*
X105667Y86556D01*
X105270Y86421D01*
X104849Y86311D01*
X104404Y86225D01*
X103936Y86164D01*
X103444Y86127D01*
X102928Y86115D01*
G37*
%LPC*%
G36*
X106413Y94224D02*
X106356Y94731D01*
X106277Y95202D01*
X106176Y95638D01*
X106054Y96038D01*
X105909Y96403D01*
X105743Y96732D01*
X105555Y97026D01*
X105345Y97285D01*
X105112Y97510D01*
X104855Y97706D01*
X104574Y97872D01*
X104269Y98007D01*
X103939Y98112D01*
X103586Y98188D01*
X103208Y98233D01*
X102806Y98248D01*
X102414Y98231D01*
X102044Y98181D01*
X101694Y98097D01*
X101366Y97979D01*
X101058Y97828D01*
X100771Y97644D01*
X100505Y97426D01*
X100260Y97174D01*
X100039Y96893D01*
X99845Y96587D01*
X99678Y96256D01*
X99538Y95900D01*
X99425Y95519D01*
X99339Y95112D01*
X99280Y94681D01*
X99248Y94224D01*
X106413Y94224D01*
G37*
%LPD*%
G36*
X139241Y86115D02*
X138878Y86122D01*
X138527Y86142D01*
X138186Y86176D01*
X137857Y86224D01*
X137538Y86286D01*
X137230Y86361D01*
X136934Y86450D01*
X136648Y86553D01*
X136373Y86670D01*
X136109Y86800D01*
X135856Y86944D01*
X135615Y87101D01*
X135384Y87273D01*
X135164Y87458D01*
X134955Y87657D01*
X134757Y87869D01*
X134571Y88095D01*
X134396Y88334D01*
X134234Y88587D01*
X134083Y88853D01*
X133945Y89132D01*
X133819Y89425D01*
X133704Y89730D01*
X133602Y90050D01*
X133512Y90382D01*
X133434Y90728D01*
X133368Y91087D01*
X133314Y91460D01*
X133271Y91846D01*
X133241Y92245D01*
X133223Y92657D01*
X133217Y93083D01*
X133223Y93488D01*
X133241Y93881D01*
X133271Y94262D01*
X133314Y94631D01*
X133368Y94988D01*
X133434Y95333D01*
X133512Y95666D01*
X133602Y95987D01*
X133704Y96297D01*
X133819Y96594D01*
X133945Y96879D01*
X134083Y97152D01*
X134234Y97413D01*
X134396Y97663D01*
X134571Y97900D01*
X134757Y98125D01*
X134955Y98338D01*
X135162Y98536D01*
X135381Y98721D01*
X135609Y98893D01*
X135848Y99050D01*
X136097Y99194D01*
X136357Y99324D01*
X136626Y99441D01*
X136906Y99544D01*
X137197Y99633D01*
X137497Y99708D01*
X137808Y99770D01*
X138130Y99818D01*
X138461Y99852D01*
X138803Y99873D01*
X139155Y99879D01*
X139515Y99873D01*
X139864Y99852D01*
X140201Y99817D01*
X140527Y99769D01*
X140841Y99707D01*
X141144Y99631D01*
X141435Y99542D01*
X141715Y99439D01*
X141984Y99321D01*
X142241Y99191D01*
X142487Y99046D01*
X142721Y98887D01*
X142944Y98715D01*
X143155Y98529D01*
X143355Y98329D01*
X143544Y98116D01*
X143721Y97889D01*
X143887Y97647D01*
X144041Y97393D01*
X144184Y97124D01*
X144315Y96841D01*
X144435Y96545D01*
X144544Y96235D01*
X144641Y95911D01*
X144727Y95574D01*
X144801Y95223D01*
X144864Y94857D01*
X144915Y94479D01*
X144984Y93679D01*
X145007Y92825D01*
X145007Y92531D01*
X135536Y92531D01*
X135551Y91977D01*
X135595Y91455D01*
X135669Y90966D01*
X135772Y90510D01*
X135905Y90086D01*
X136067Y89695D01*
X136259Y89336D01*
X136481Y89010D01*
X136730Y88719D01*
X137007Y88468D01*
X137312Y88255D01*
X137643Y88081D01*
X138002Y87945D01*
X138388Y87848D01*
X138801Y87790D01*
X139241Y87771D01*
X139591Y87780D01*
X139923Y87807D01*
X140237Y87852D01*
X140534Y87915D01*
X140812Y87996D01*
X141073Y88095D01*
X141316Y88212D01*
X141541Y88347D01*
X141749Y88496D01*
X141939Y88655D01*
X142111Y88823D01*
X142267Y89001D01*
X142404Y89188D01*
X142525Y89385D01*
X142627Y89591D01*
X142713Y89807D01*
X144651Y89255D01*
X144491Y88875D01*
X144306Y88519D01*
X144098Y88188D01*
X143867Y87881D01*
X143611Y87599D01*
X143333Y87341D01*
X143030Y87108D01*
X142704Y86900D01*
X142354Y86716D01*
X141980Y86556D01*
X141583Y86421D01*
X141162Y86311D01*
X140717Y86225D01*
X140249Y86164D01*
X139757Y86127D01*
X139241Y86115D01*
G37*
%LPC*%
G36*
X142725Y94224D02*
X142668Y94731D01*
X142589Y95202D01*
X142489Y95638D01*
X142366Y96038D01*
X142222Y96403D01*
X142056Y96732D01*
X141868Y97026D01*
X141658Y97285D01*
X141425Y97510D01*
X141168Y97706D01*
X140887Y97872D01*
X140581Y98007D01*
X140252Y98112D01*
X139898Y98188D01*
X139520Y98233D01*
X139118Y98248D01*
X138727Y98231D01*
X138356Y98181D01*
X138007Y98097D01*
X137678Y97979D01*
X137371Y97828D01*
X137084Y97644D01*
X136818Y97426D01*
X136573Y97174D01*
X136352Y96893D01*
X136157Y96587D01*
X135990Y96256D01*
X135850Y95900D01*
X135737Y95519D01*
X135651Y95112D01*
X135592Y94681D01*
X135561Y94224D01*
X142725Y94224D01*
G37*
%LPD*%
G36*
X144835Y166125D02*
X144472Y166132D01*
X144121Y166152D01*
X143780Y166186D01*
X143450Y166234D01*
X143132Y166296D01*
X142824Y166371D01*
X142527Y166460D01*
X142242Y166563D01*
X141967Y166680D01*
X141703Y166810D01*
X141450Y166954D01*
X141208Y167111D01*
X140977Y167283D01*
X140758Y167468D01*
X140549Y167667D01*
X140351Y167879D01*
X140164Y168105D01*
X139990Y168344D01*
X139827Y168597D01*
X139677Y168863D01*
X139539Y169142D01*
X139412Y169435D01*
X139298Y169740D01*
X139196Y170060D01*
X139106Y170392D01*
X139028Y170738D01*
X138961Y171097D01*
X138907Y171470D01*
X138865Y171856D01*
X138835Y172255D01*
X138817Y172667D01*
X138811Y173093D01*
X138817Y173498D01*
X138835Y173891D01*
X138865Y174272D01*
X138907Y174641D01*
X138961Y174998D01*
X139028Y175343D01*
X139106Y175676D01*
X139196Y175997D01*
X139298Y176307D01*
X139412Y176604D01*
X139539Y176889D01*
X139677Y177162D01*
X139827Y177423D01*
X139990Y177673D01*
X140164Y177910D01*
X140351Y178135D01*
X140548Y178348D01*
X140756Y178546D01*
X140974Y178731D01*
X141203Y178903D01*
X141442Y179060D01*
X141691Y179204D01*
X141950Y179334D01*
X142220Y179451D01*
X142500Y179554D01*
X142790Y179643D01*
X143091Y179718D01*
X143402Y179780D01*
X143723Y179828D01*
X144055Y179862D01*
X144397Y179883D01*
X144749Y179889D01*
X145109Y179883D01*
X145457Y179862D01*
X145795Y179827D01*
X146120Y179779D01*
X146435Y179717D01*
X146738Y179641D01*
X147029Y179552D01*
X147309Y179449D01*
X147578Y179331D01*
X147835Y179201D01*
X148080Y179056D01*
X148315Y178897D01*
X148538Y178725D01*
X148749Y178539D01*
X148949Y178339D01*
X149138Y178126D01*
X149315Y177899D01*
X149481Y177657D01*
X149635Y177403D01*
X149778Y177134D01*
X149909Y176851D01*
X150029Y176555D01*
X150138Y176245D01*
X150235Y175921D01*
X150321Y175584D01*
X150395Y175233D01*
X150458Y174867D01*
X150509Y174489D01*
X150578Y173689D01*
X150601Y172835D01*
X150601Y172541D01*
X141130Y172541D01*
X141144Y171987D01*
X141189Y171465D01*
X141263Y170976D01*
X141366Y170520D01*
X141499Y170096D01*
X141661Y169705D01*
X141853Y169346D01*
X142074Y169020D01*
X142324Y168729D01*
X142601Y168478D01*
X142905Y168265D01*
X143237Y168091D01*
X143595Y167955D01*
X143981Y167858D01*
X144394Y167800D01*
X144835Y167781D01*
X145185Y167790D01*
X145517Y167817D01*
X145831Y167862D01*
X146127Y167925D01*
X146406Y168006D01*
X146667Y168105D01*
X146910Y168222D01*
X147135Y168357D01*
X147342Y168506D01*
X147533Y168665D01*
X147705Y168833D01*
X147860Y169011D01*
X147998Y169198D01*
X148118Y169395D01*
X148221Y169601D01*
X148307Y169817D01*
X150245Y169265D01*
X150084Y168885D01*
X149900Y168529D01*
X149692Y168198D01*
X149461Y167891D01*
X149205Y167609D01*
X148926Y167351D01*
X148624Y167118D01*
X148297Y166910D01*
X147947Y166726D01*
X147574Y166566D01*
X147176Y166431D01*
X146755Y166321D01*
X146311Y166235D01*
X145842Y166174D01*
X145350Y166137D01*
X144835Y166125D01*
G37*
%LPC*%
G36*
X148319Y174234D02*
X148262Y174741D01*
X148183Y175212D01*
X148082Y175648D01*
X147960Y176048D01*
X147816Y176413D01*
X147649Y176742D01*
X147461Y177036D01*
X147252Y177295D01*
X147019Y177520D01*
X146762Y177716D01*
X146480Y177882D01*
X146175Y178017D01*
X145845Y178122D01*
X145492Y178198D01*
X145114Y178243D01*
X144712Y178258D01*
X144321Y178241D01*
X143950Y178191D01*
X143601Y178107D01*
X143272Y177989D01*
X142964Y177838D01*
X142677Y177654D01*
X142411Y177436D01*
X142166Y177184D01*
X141945Y176903D01*
X141751Y176597D01*
X141584Y176266D01*
X141444Y175910D01*
X141331Y175529D01*
X141245Y175122D01*
X141186Y174691D01*
X141154Y174234D01*
X148319Y174234D01*
G37*
%LPD*%
G36*
X150428Y192795D02*
X150066Y192802D01*
X149714Y192822D01*
X149374Y192856D01*
X149044Y192904D01*
X148725Y192966D01*
X148418Y193041D01*
X148121Y193130D01*
X147835Y193233D01*
X147561Y193350D01*
X147297Y193480D01*
X147044Y193624D01*
X146802Y193781D01*
X146571Y193953D01*
X146351Y194138D01*
X146142Y194337D01*
X145944Y194549D01*
X145758Y194775D01*
X145584Y195014D01*
X145421Y195267D01*
X145271Y195533D01*
X145133Y195812D01*
X145006Y196105D01*
X144892Y196410D01*
X144790Y196730D01*
X144700Y197062D01*
X144621Y197408D01*
X144555Y197767D01*
X144501Y198140D01*
X144459Y198526D01*
X144429Y198925D01*
X144411Y199337D01*
X144405Y199763D01*
X144411Y200168D01*
X144429Y200561D01*
X144459Y200942D01*
X144501Y201311D01*
X144555Y201668D01*
X144621Y202013D01*
X144700Y202346D01*
X144790Y202667D01*
X144892Y202977D01*
X145006Y203274D01*
X145133Y203559D01*
X145271Y203832D01*
X145421Y204093D01*
X145584Y204343D01*
X145758Y204580D01*
X145944Y204805D01*
X146142Y205018D01*
X146350Y205216D01*
X146568Y205401D01*
X146797Y205573D01*
X147036Y205730D01*
X147285Y205874D01*
X147544Y206004D01*
X147814Y206121D01*
X148094Y206224D01*
X148384Y206313D01*
X148685Y206388D01*
X148996Y206450D01*
X149317Y206498D01*
X149649Y206532D01*
X149990Y206553D01*
X150343Y206559D01*
X150703Y206553D01*
X151051Y206532D01*
X151388Y206497D01*
X151714Y206449D01*
X152028Y206387D01*
X152331Y206311D01*
X152623Y206222D01*
X152903Y206119D01*
X153171Y206001D01*
X153429Y205871D01*
X153674Y205726D01*
X153909Y205567D01*
X154131Y205395D01*
X154343Y205209D01*
X154543Y205009D01*
X154731Y204796D01*
X154909Y204569D01*
X155074Y204327D01*
X155229Y204073D01*
X155372Y203804D01*
X155503Y203521D01*
X155623Y203225D01*
X155732Y202915D01*
X155829Y202591D01*
X155914Y202254D01*
X155989Y201903D01*
X156052Y201537D01*
X156103Y201159D01*
X156172Y200359D01*
X156194Y199505D01*
X156194Y199211D01*
X146723Y199211D01*
X146738Y198657D01*
X146783Y198135D01*
X146856Y197646D01*
X146960Y197190D01*
X147092Y196766D01*
X147255Y196375D01*
X147447Y196016D01*
X147668Y195690D01*
X147918Y195399D01*
X148195Y195148D01*
X148499Y194935D01*
X148831Y194761D01*
X149189Y194625D01*
X149575Y194528D01*
X149988Y194470D01*
X150428Y194451D01*
X150778Y194460D01*
X151110Y194487D01*
X151425Y194532D01*
X151721Y194595D01*
X152000Y194676D01*
X152261Y194775D01*
X152504Y194892D01*
X152729Y195027D01*
X152936Y195176D01*
X153126Y195335D01*
X153299Y195503D01*
X153454Y195681D01*
X153592Y195868D01*
X153712Y196065D01*
X153815Y196271D01*
X153900Y196487D01*
X155839Y195935D01*
X155678Y195555D01*
X155494Y195199D01*
X155286Y194868D01*
X155054Y194561D01*
X154799Y194279D01*
X154520Y194021D01*
X154217Y193788D01*
X153891Y193580D01*
X153541Y193396D01*
X153167Y193236D01*
X152770Y193101D01*
X152349Y192991D01*
X151904Y192905D01*
X151436Y192844D01*
X150944Y192807D01*
X150428Y192795D01*
G37*
%LPC*%
G36*
X153913Y200904D02*
X153856Y201411D01*
X153777Y201882D01*
X153676Y202318D01*
X153554Y202718D01*
X153409Y203083D01*
X153243Y203412D01*
X153055Y203706D01*
X152845Y203965D01*
X152612Y204190D01*
X152355Y204386D01*
X152074Y204552D01*
X151769Y204687D01*
X151439Y204792D01*
X151086Y204868D01*
X150708Y204913D01*
X150306Y204928D01*
X149914Y204911D01*
X149544Y204861D01*
X149194Y204777D01*
X148866Y204659D01*
X148558Y204508D01*
X148271Y204324D01*
X148005Y204106D01*
X147760Y203854D01*
X147539Y203573D01*
X147345Y203267D01*
X147178Y202936D01*
X147038Y202580D01*
X146925Y202199D01*
X146839Y201792D01*
X146780Y201361D01*
X146748Y200904D01*
X153913Y200904D01*
G37*
%LPD*%
G36*
X158803Y219465D02*
X158441Y219472D01*
X158089Y219492D01*
X157749Y219526D01*
X157419Y219574D01*
X157100Y219636D01*
X156793Y219711D01*
X156496Y219800D01*
X156210Y219903D01*
X155936Y220020D01*
X155672Y220150D01*
X155419Y220294D01*
X155177Y220451D01*
X154946Y220623D01*
X154726Y220808D01*
X154517Y221007D01*
X154319Y221219D01*
X154133Y221445D01*
X153959Y221684D01*
X153796Y221937D01*
X153646Y222203D01*
X153508Y222482D01*
X153381Y222775D01*
X153267Y223080D01*
X153165Y223400D01*
X153075Y223732D01*
X152996Y224078D01*
X152930Y224437D01*
X152876Y224810D01*
X152834Y225196D01*
X152804Y225595D01*
X152786Y226007D01*
X152780Y226433D01*
X152786Y226838D01*
X152804Y227231D01*
X152834Y227612D01*
X152876Y227981D01*
X152930Y228338D01*
X152996Y228683D01*
X153075Y229016D01*
X153165Y229337D01*
X153267Y229647D01*
X153381Y229944D01*
X153508Y230229D01*
X153646Y230502D01*
X153796Y230763D01*
X153959Y231013D01*
X154133Y231250D01*
X154319Y231475D01*
X154517Y231688D01*
X154725Y231886D01*
X154943Y232071D01*
X155172Y232243D01*
X155411Y232400D01*
X155660Y232544D01*
X155919Y232674D01*
X156189Y232791D01*
X156469Y232894D01*
X156759Y232983D01*
X157060Y233058D01*
X157371Y233120D01*
X157692Y233168D01*
X158024Y233202D01*
X158365Y233223D01*
X158718Y233229D01*
X159078Y233223D01*
X159426Y233202D01*
X159763Y233167D01*
X160089Y233119D01*
X160403Y233057D01*
X160706Y232981D01*
X160998Y232892D01*
X161278Y232789D01*
X161546Y232671D01*
X161804Y232541D01*
X162049Y232396D01*
X162284Y232237D01*
X162506Y232065D01*
X162718Y231879D01*
X162918Y231679D01*
X163106Y231466D01*
X163284Y231239D01*
X163449Y230997D01*
X163604Y230743D01*
X163747Y230474D01*
X163878Y230191D01*
X163998Y229895D01*
X164107Y229585D01*
X164204Y229261D01*
X164289Y228924D01*
X164364Y228573D01*
X164427Y228207D01*
X164478Y227829D01*
X164547Y227029D01*
X164569Y226175D01*
X164569Y225881D01*
X155098Y225881D01*
X155113Y225327D01*
X155158Y224805D01*
X155231Y224316D01*
X155335Y223860D01*
X155467Y223436D01*
X155630Y223045D01*
X155822Y222686D01*
X156043Y222360D01*
X156293Y222069D01*
X156570Y221818D01*
X156874Y221605D01*
X157206Y221431D01*
X157564Y221295D01*
X157950Y221198D01*
X158363Y221140D01*
X158803Y221121D01*
X159153Y221130D01*
X159485Y221157D01*
X159800Y221202D01*
X160096Y221265D01*
X160375Y221346D01*
X160636Y221445D01*
X160879Y221562D01*
X161104Y221697D01*
X161311Y221846D01*
X161501Y222005D01*
X161674Y222173D01*
X161829Y222351D01*
X161967Y222538D01*
X162087Y222735D01*
X162190Y222941D01*
X162275Y223157D01*
X164214Y222605D01*
X164053Y222225D01*
X163869Y221869D01*
X163661Y221538D01*
X163429Y221231D01*
X163174Y220949D01*
X162895Y220691D01*
X162592Y220458D01*
X162266Y220250D01*
X161916Y220066D01*
X161542Y219906D01*
X161145Y219771D01*
X160724Y219661D01*
X160279Y219575D01*
X159811Y219514D01*
X159319Y219477D01*
X158803Y219465D01*
G37*
%LPC*%
G36*
X162288Y227574D02*
X162231Y228081D01*
X162152Y228552D01*
X162051Y228988D01*
X161929Y229388D01*
X161784Y229753D01*
X161618Y230082D01*
X161430Y230376D01*
X161220Y230635D01*
X160987Y230860D01*
X160730Y231056D01*
X160449Y231222D01*
X160144Y231357D01*
X159814Y231462D01*
X159461Y231538D01*
X159083Y231583D01*
X158681Y231598D01*
X158289Y231581D01*
X157919Y231531D01*
X157569Y231447D01*
X157241Y231329D01*
X156933Y231178D01*
X156646Y230994D01*
X156380Y230776D01*
X156135Y230524D01*
X155914Y230243D01*
X155720Y229937D01*
X155553Y229606D01*
X155413Y229250D01*
X155300Y228869D01*
X155214Y228462D01*
X155155Y228031D01*
X155123Y227574D01*
X162288Y227574D01*
G37*
%LPD*%
G36*
X165772Y166125D02*
X165410Y166132D01*
X165058Y166152D01*
X164717Y166186D01*
X164388Y166234D01*
X164069Y166296D01*
X163761Y166371D01*
X163465Y166460D01*
X163179Y166563D01*
X162904Y166680D01*
X162640Y166810D01*
X162388Y166954D01*
X162146Y167111D01*
X161915Y167283D01*
X161695Y167468D01*
X161486Y167667D01*
X161288Y167879D01*
X161102Y168105D01*
X160927Y168344D01*
X160765Y168597D01*
X160615Y168863D01*
X160476Y169142D01*
X160350Y169435D01*
X160236Y169740D01*
X160133Y170060D01*
X160043Y170392D01*
X159965Y170738D01*
X159899Y171097D01*
X159845Y171470D01*
X159803Y171856D01*
X159773Y172255D01*
X159755Y172667D01*
X159749Y173093D01*
X159755Y173498D01*
X159773Y173891D01*
X159803Y174272D01*
X159845Y174641D01*
X159899Y174998D01*
X159965Y175343D01*
X160043Y175676D01*
X160133Y175997D01*
X160236Y176307D01*
X160350Y176604D01*
X160476Y176889D01*
X160615Y177162D01*
X160765Y177423D01*
X160927Y177673D01*
X161102Y177910D01*
X161288Y178135D01*
X161486Y178348D01*
X161694Y178546D01*
X161912Y178731D01*
X162140Y178903D01*
X162379Y179060D01*
X162628Y179204D01*
X162888Y179334D01*
X163158Y179451D01*
X163438Y179554D01*
X163728Y179643D01*
X164029Y179718D01*
X164340Y179780D01*
X164661Y179828D01*
X164992Y179862D01*
X165334Y179883D01*
X165686Y179889D01*
X166046Y179883D01*
X166395Y179862D01*
X166732Y179827D01*
X167058Y179779D01*
X167372Y179717D01*
X167675Y179641D01*
X167966Y179552D01*
X168247Y179449D01*
X168515Y179331D01*
X168772Y179201D01*
X169018Y179056D01*
X169252Y178897D01*
X169475Y178725D01*
X169687Y178539D01*
X169887Y178339D01*
X170075Y178126D01*
X170252Y177899D01*
X170418Y177657D01*
X170572Y177403D01*
X170715Y177134D01*
X170847Y176851D01*
X170967Y176555D01*
X171075Y176245D01*
X171172Y175921D01*
X171258Y175584D01*
X171332Y175233D01*
X171395Y174867D01*
X171447Y174489D01*
X171515Y173689D01*
X171538Y172835D01*
X171538Y172541D01*
X162067Y172541D01*
X162082Y171987D01*
X162126Y171465D01*
X162200Y170976D01*
X162303Y170520D01*
X162436Y170096D01*
X162599Y169705D01*
X162790Y169346D01*
X163012Y169020D01*
X163262Y168729D01*
X163539Y168478D01*
X163843Y168265D01*
X164174Y168091D01*
X164533Y167955D01*
X164919Y167858D01*
X165332Y167800D01*
X165772Y167781D01*
X166122Y167790D01*
X166454Y167817D01*
X166768Y167862D01*
X167065Y167925D01*
X167344Y168006D01*
X167604Y168105D01*
X167847Y168222D01*
X168072Y168357D01*
X168280Y168506D01*
X168470Y168665D01*
X168643Y168833D01*
X168798Y169011D01*
X168936Y169198D01*
X169056Y169395D01*
X169159Y169601D01*
X169244Y169817D01*
X171182Y169265D01*
X171022Y168885D01*
X170838Y168529D01*
X170630Y168198D01*
X170398Y167891D01*
X170143Y167609D01*
X169864Y167351D01*
X169561Y167118D01*
X169235Y166910D01*
X168885Y166726D01*
X168511Y166566D01*
X168114Y166431D01*
X167693Y166321D01*
X167248Y166235D01*
X166780Y166174D01*
X166288Y166137D01*
X165772Y166125D01*
G37*
%LPC*%
G36*
X169256Y174234D02*
X169199Y174741D01*
X169121Y175212D01*
X169020Y175648D01*
X168897Y176048D01*
X168753Y176413D01*
X168587Y176742D01*
X168399Y177036D01*
X168189Y177295D01*
X167956Y177520D01*
X167699Y177716D01*
X167418Y177882D01*
X167112Y178017D01*
X166783Y178122D01*
X166429Y178198D01*
X166051Y178243D01*
X165650Y178258D01*
X165258Y178241D01*
X164888Y178191D01*
X164538Y178107D01*
X164210Y177989D01*
X163902Y177838D01*
X163615Y177654D01*
X163349Y177436D01*
X163104Y177184D01*
X162883Y176903D01*
X162689Y176597D01*
X162522Y176266D01*
X162382Y175910D01*
X162269Y175529D01*
X162183Y175122D01*
X162124Y174691D01*
X162092Y174234D01*
X169256Y174234D01*
G37*
%LPD*%
G36*
X207678Y192795D02*
X207316Y192802D01*
X206964Y192822D01*
X206624Y192856D01*
X206294Y192904D01*
X205975Y192966D01*
X205668Y193041D01*
X205371Y193130D01*
X205085Y193233D01*
X204811Y193350D01*
X204547Y193480D01*
X204294Y193624D01*
X204052Y193781D01*
X203821Y193953D01*
X203601Y194138D01*
X203392Y194337D01*
X203194Y194549D01*
X203008Y194775D01*
X202834Y195014D01*
X202671Y195267D01*
X202521Y195533D01*
X202383Y195812D01*
X202256Y196105D01*
X202142Y196410D01*
X202040Y196730D01*
X201950Y197062D01*
X201871Y197408D01*
X201805Y197767D01*
X201751Y198140D01*
X201709Y198526D01*
X201679Y198925D01*
X201661Y199337D01*
X201655Y199763D01*
X201661Y200168D01*
X201679Y200561D01*
X201709Y200942D01*
X201751Y201311D01*
X201805Y201668D01*
X201871Y202013D01*
X201950Y202346D01*
X202040Y202667D01*
X202142Y202977D01*
X202256Y203274D01*
X202383Y203559D01*
X202521Y203832D01*
X202671Y204093D01*
X202834Y204343D01*
X203008Y204580D01*
X203194Y204805D01*
X203392Y205018D01*
X203600Y205216D01*
X203818Y205401D01*
X204047Y205573D01*
X204286Y205730D01*
X204535Y205874D01*
X204794Y206004D01*
X205064Y206121D01*
X205344Y206224D01*
X205634Y206313D01*
X205935Y206388D01*
X206246Y206450D01*
X206567Y206498D01*
X206899Y206532D01*
X207240Y206553D01*
X207593Y206559D01*
X207953Y206553D01*
X208301Y206532D01*
X208638Y206497D01*
X208964Y206449D01*
X209278Y206387D01*
X209581Y206311D01*
X209873Y206222D01*
X210153Y206119D01*
X210421Y206001D01*
X210679Y205871D01*
X210924Y205726D01*
X211159Y205567D01*
X211381Y205395D01*
X211593Y205209D01*
X211793Y205009D01*
X211981Y204796D01*
X212159Y204569D01*
X212324Y204327D01*
X212479Y204073D01*
X212622Y203804D01*
X212753Y203521D01*
X212873Y203225D01*
X212982Y202915D01*
X213079Y202591D01*
X213164Y202254D01*
X213239Y201903D01*
X213302Y201537D01*
X213353Y201159D01*
X213422Y200359D01*
X213444Y199505D01*
X213444Y199211D01*
X203973Y199211D01*
X203988Y198657D01*
X204033Y198135D01*
X204106Y197646D01*
X204210Y197190D01*
X204342Y196766D01*
X204505Y196375D01*
X204697Y196016D01*
X204918Y195690D01*
X205168Y195399D01*
X205445Y195148D01*
X205749Y194935D01*
X206081Y194761D01*
X206439Y194625D01*
X206825Y194528D01*
X207238Y194470D01*
X207678Y194451D01*
X208028Y194460D01*
X208360Y194487D01*
X208675Y194532D01*
X208971Y194595D01*
X209250Y194676D01*
X209511Y194775D01*
X209754Y194892D01*
X209979Y195027D01*
X210186Y195176D01*
X210376Y195335D01*
X210549Y195503D01*
X210704Y195681D01*
X210842Y195868D01*
X210962Y196065D01*
X211065Y196271D01*
X211150Y196487D01*
X213089Y195935D01*
X212928Y195555D01*
X212744Y195199D01*
X212536Y194868D01*
X212304Y194561D01*
X212049Y194279D01*
X211770Y194021D01*
X211467Y193788D01*
X211141Y193580D01*
X210791Y193396D01*
X210417Y193236D01*
X210020Y193101D01*
X209599Y192991D01*
X209154Y192905D01*
X208686Y192844D01*
X208194Y192807D01*
X207678Y192795D01*
G37*
%LPC*%
G36*
X211163Y200904D02*
X211106Y201411D01*
X211027Y201882D01*
X210926Y202318D01*
X210804Y202718D01*
X210659Y203083D01*
X210493Y203412D01*
X210305Y203706D01*
X210095Y203965D01*
X209862Y204190D01*
X209605Y204386D01*
X209324Y204552D01*
X209019Y204687D01*
X208689Y204792D01*
X208336Y204868D01*
X207958Y204913D01*
X207556Y204928D01*
X207164Y204911D01*
X206794Y204861D01*
X206444Y204777D01*
X206116Y204659D01*
X205808Y204508D01*
X205521Y204324D01*
X205255Y204106D01*
X205010Y203854D01*
X204789Y203573D01*
X204595Y203267D01*
X204428Y202936D01*
X204288Y202580D01*
X204175Y202199D01*
X204089Y201792D01*
X204030Y201361D01*
X203998Y200904D01*
X211163Y200904D01*
G37*
%LPD*%
G36*
X231397Y86115D02*
X231035Y86122D01*
X230683Y86142D01*
X230342Y86176D01*
X230013Y86224D01*
X229694Y86286D01*
X229386Y86361D01*
X229090Y86450D01*
X228804Y86553D01*
X228529Y86670D01*
X228265Y86800D01*
X228013Y86944D01*
X227771Y87101D01*
X227540Y87273D01*
X227320Y87458D01*
X227111Y87657D01*
X226913Y87869D01*
X226727Y88095D01*
X226552Y88334D01*
X226390Y88587D01*
X226240Y88853D01*
X226101Y89132D01*
X225975Y89425D01*
X225861Y89730D01*
X225758Y90050D01*
X225668Y90382D01*
X225590Y90728D01*
X225524Y91087D01*
X225470Y91460D01*
X225428Y91846D01*
X225398Y92245D01*
X225380Y92657D01*
X225374Y93083D01*
X225380Y93488D01*
X225398Y93881D01*
X225428Y94262D01*
X225470Y94631D01*
X225524Y94988D01*
X225590Y95333D01*
X225668Y95666D01*
X225758Y95987D01*
X225861Y96297D01*
X225975Y96594D01*
X226101Y96879D01*
X226240Y97152D01*
X226390Y97413D01*
X226552Y97663D01*
X226727Y97900D01*
X226913Y98125D01*
X227111Y98338D01*
X227319Y98536D01*
X227537Y98721D01*
X227765Y98893D01*
X228004Y99050D01*
X228253Y99194D01*
X228513Y99324D01*
X228783Y99441D01*
X229063Y99544D01*
X229353Y99633D01*
X229654Y99708D01*
X229965Y99770D01*
X230286Y99818D01*
X230617Y99852D01*
X230959Y99873D01*
X231311Y99879D01*
X231671Y99873D01*
X232020Y99852D01*
X232357Y99817D01*
X232683Y99769D01*
X232997Y99707D01*
X233300Y99631D01*
X233591Y99542D01*
X233872Y99439D01*
X234140Y99321D01*
X234397Y99191D01*
X234643Y99046D01*
X234877Y98887D01*
X235100Y98715D01*
X235312Y98529D01*
X235512Y98329D01*
X235700Y98116D01*
X235877Y97889D01*
X236043Y97647D01*
X236197Y97393D01*
X236340Y97124D01*
X236472Y96841D01*
X236592Y96545D01*
X236700Y96235D01*
X236797Y95911D01*
X236883Y95574D01*
X236957Y95223D01*
X237020Y94857D01*
X237072Y94479D01*
X237140Y93679D01*
X237163Y92825D01*
X237163Y92531D01*
X227692Y92531D01*
X227707Y91977D01*
X227751Y91455D01*
X227825Y90966D01*
X227928Y90510D01*
X228061Y90086D01*
X228224Y89695D01*
X228415Y89336D01*
X228637Y89010D01*
X228887Y88719D01*
X229164Y88468D01*
X229468Y88255D01*
X229799Y88081D01*
X230158Y87945D01*
X230544Y87848D01*
X230957Y87790D01*
X231397Y87771D01*
X231747Y87780D01*
X232079Y87807D01*
X232393Y87852D01*
X232690Y87915D01*
X232969Y87996D01*
X233229Y88095D01*
X233472Y88212D01*
X233697Y88347D01*
X233905Y88496D01*
X234095Y88655D01*
X234268Y88823D01*
X234423Y89001D01*
X234561Y89188D01*
X234681Y89385D01*
X234784Y89591D01*
X234869Y89807D01*
X236807Y89255D01*
X236647Y88875D01*
X236463Y88519D01*
X236255Y88188D01*
X236023Y87881D01*
X235768Y87599D01*
X235489Y87341D01*
X235186Y87108D01*
X234860Y86900D01*
X234510Y86716D01*
X234136Y86556D01*
X233739Y86421D01*
X233318Y86311D01*
X232873Y86225D01*
X232405Y86164D01*
X231913Y86127D01*
X231397Y86115D01*
G37*
%LPC*%
G36*
X234881Y94224D02*
X234824Y94731D01*
X234746Y95202D01*
X234645Y95638D01*
X234522Y96038D01*
X234378Y96403D01*
X234212Y96732D01*
X234024Y97026D01*
X233814Y97285D01*
X233581Y97510D01*
X233324Y97706D01*
X233043Y97872D01*
X232737Y98007D01*
X232408Y98112D01*
X232054Y98188D01*
X231676Y98233D01*
X231275Y98248D01*
X230883Y98231D01*
X230513Y98181D01*
X230163Y98097D01*
X229835Y97979D01*
X229527Y97828D01*
X229240Y97644D01*
X228974Y97426D01*
X228729Y97174D01*
X228508Y96893D01*
X228314Y96587D01*
X228147Y96256D01*
X228007Y95900D01*
X227894Y95519D01*
X227808Y95112D01*
X227749Y94681D01*
X227717Y94224D01*
X234881Y94224D01*
G37*
%LPD*%
G36*
X238850Y139455D02*
X238488Y139462D01*
X238136Y139482D01*
X237796Y139516D01*
X237466Y139564D01*
X237147Y139626D01*
X236840Y139701D01*
X236543Y139790D01*
X236257Y139893D01*
X235982Y140010D01*
X235719Y140140D01*
X235466Y140284D01*
X235224Y140441D01*
X234993Y140613D01*
X234773Y140798D01*
X234564Y140997D01*
X234366Y141209D01*
X234180Y141435D01*
X234005Y141674D01*
X233843Y141927D01*
X233693Y142193D01*
X233554Y142472D01*
X233428Y142765D01*
X233314Y143070D01*
X233212Y143390D01*
X233121Y143722D01*
X233043Y144068D01*
X232977Y144427D01*
X232923Y144800D01*
X232881Y145186D01*
X232851Y145585D01*
X232833Y145997D01*
X232827Y146423D01*
X232833Y146828D01*
X232851Y147221D01*
X232881Y147602D01*
X232923Y147971D01*
X232977Y148328D01*
X233043Y148673D01*
X233121Y149006D01*
X233212Y149327D01*
X233314Y149637D01*
X233428Y149934D01*
X233554Y150219D01*
X233693Y150492D01*
X233843Y150753D01*
X234005Y151003D01*
X234180Y151240D01*
X234366Y151465D01*
X234564Y151678D01*
X234772Y151876D01*
X234990Y152061D01*
X235219Y152233D01*
X235457Y152390D01*
X235707Y152534D01*
X235966Y152664D01*
X236236Y152781D01*
X236516Y152884D01*
X236806Y152973D01*
X237107Y153048D01*
X237418Y153110D01*
X237739Y153158D01*
X238070Y153192D01*
X238412Y153213D01*
X238764Y153219D01*
X239124Y153213D01*
X239473Y153192D01*
X239810Y153157D01*
X240136Y153109D01*
X240450Y153047D01*
X240753Y152971D01*
X241045Y152882D01*
X241325Y152779D01*
X241593Y152661D01*
X241850Y152531D01*
X242096Y152386D01*
X242330Y152227D01*
X242553Y152055D01*
X242765Y151869D01*
X242965Y151669D01*
X243153Y151456D01*
X243330Y151229D01*
X243496Y150987D01*
X243651Y150733D01*
X243793Y150464D01*
X243925Y150181D01*
X244045Y149885D01*
X244153Y149575D01*
X244251Y149251D01*
X244336Y148914D01*
X244411Y148563D01*
X244473Y148197D01*
X244525Y147819D01*
X244593Y147019D01*
X244616Y146165D01*
X244616Y145871D01*
X235145Y145871D01*
X235160Y145317D01*
X235204Y144795D01*
X235278Y144306D01*
X235382Y143850D01*
X235514Y143426D01*
X235677Y143035D01*
X235869Y142676D01*
X236090Y142350D01*
X236340Y142059D01*
X236617Y141808D01*
X236921Y141595D01*
X237252Y141421D01*
X237611Y141285D01*
X237997Y141188D01*
X238410Y141130D01*
X238850Y141111D01*
X239200Y141120D01*
X239532Y141147D01*
X239847Y141192D01*
X240143Y141255D01*
X240422Y141336D01*
X240682Y141435D01*
X240925Y141552D01*
X241151Y141687D01*
X241358Y141836D01*
X241548Y141995D01*
X241721Y142163D01*
X241876Y142341D01*
X242014Y142528D01*
X242134Y142725D01*
X242237Y142931D01*
X242322Y143147D01*
X244261Y142595D01*
X244100Y142215D01*
X243916Y141859D01*
X243708Y141528D01*
X243476Y141221D01*
X243221Y140939D01*
X242942Y140681D01*
X242639Y140448D01*
X242313Y140240D01*
X241963Y140056D01*
X241589Y139896D01*
X241192Y139761D01*
X240771Y139651D01*
X240326Y139565D01*
X239858Y139504D01*
X239366Y139467D01*
X238850Y139455D01*
G37*
%LPC*%
G36*
X242334Y147564D02*
X242278Y148071D01*
X242199Y148542D01*
X242098Y148978D01*
X241976Y149378D01*
X241831Y149743D01*
X241665Y150072D01*
X241477Y150366D01*
X241267Y150625D01*
X241034Y150850D01*
X240777Y151046D01*
X240496Y151212D01*
X240191Y151347D01*
X239861Y151452D01*
X239507Y151528D01*
X239130Y151573D01*
X238728Y151588D01*
X238336Y151571D01*
X237966Y151521D01*
X237616Y151437D01*
X237288Y151319D01*
X236980Y151168D01*
X236693Y150984D01*
X236427Y150766D01*
X236182Y150514D01*
X235961Y150233D01*
X235767Y149927D01*
X235600Y149596D01*
X235460Y149240D01*
X235347Y148859D01*
X235261Y148452D01*
X235202Y148021D01*
X235170Y147564D01*
X242334Y147564D01*
G37*
%LPD*%
G36*
X183101Y139700D02*
X180758Y139700D01*
X180758Y156986D01*
X183101Y156986D01*
X183101Y149674D01*
X192449Y149674D01*
X192449Y156986D01*
X194793Y156986D01*
X194793Y139700D01*
X192449Y139700D01*
X192449Y147711D01*
X183101Y147711D01*
X183101Y139700D01*
G37*
G36*
X118974Y112785D02*
X118205Y112802D01*
X117478Y112853D01*
X116792Y112939D01*
X116147Y113059D01*
X115544Y113214D01*
X114983Y113402D01*
X114463Y113625D01*
X113984Y113883D01*
X113547Y114174D01*
X113152Y114500D01*
X112798Y114861D01*
X112485Y115255D01*
X112214Y115684D01*
X111985Y116147D01*
X111797Y116645D01*
X111650Y117177D01*
X113920Y117631D01*
X114032Y117254D01*
X114171Y116903D01*
X114339Y116578D01*
X114533Y116280D01*
X114756Y116006D01*
X115006Y115759D01*
X115283Y115538D01*
X115588Y115343D01*
X115922Y115171D01*
X116284Y115023D01*
X116675Y114898D01*
X117094Y114795D01*
X117543Y114715D01*
X118020Y114658D01*
X118526Y114624D01*
X119060Y114613D01*
X119611Y114625D01*
X120130Y114661D01*
X120617Y114722D01*
X121071Y114807D01*
X121492Y114917D01*
X121881Y115051D01*
X122238Y115209D01*
X122563Y115392D01*
X122852Y115598D01*
X123102Y115827D01*
X123314Y116079D01*
X123487Y116353D01*
X123622Y116651D01*
X123719Y116971D01*
X123776Y117314D01*
X123796Y117680D01*
X123790Y117886D01*
X123772Y118083D01*
X123741Y118270D01*
X123699Y118446D01*
X123578Y118770D01*
X123409Y119054D01*
X123196Y119306D01*
X122945Y119535D01*
X122654Y119741D01*
X122324Y119925D01*
X121957Y120090D01*
X121557Y120241D01*
X121123Y120378D01*
X120655Y120501D01*
X118508Y121004D01*
X117545Y121231D01*
X116706Y121458D01*
X115991Y121685D01*
X115398Y121912D01*
X114896Y122146D01*
X114449Y122392D01*
X114058Y122652D01*
X113724Y122924D01*
X113435Y123215D01*
X113182Y123530D01*
X112966Y123868D01*
X112785Y124231D01*
X112643Y124619D01*
X112541Y125034D01*
X112480Y125477D01*
X112460Y125948D01*
X112467Y126222D01*
X112487Y126487D01*
X112520Y126745D01*
X112566Y126995D01*
X112626Y127237D01*
X112699Y127470D01*
X112885Y127914D01*
X113124Y128326D01*
X113416Y128706D01*
X113761Y129055D01*
X114159Y129371D01*
X114607Y129653D01*
X115100Y129897D01*
X115640Y130104D01*
X116225Y130273D01*
X116856Y130404D01*
X117532Y130498D01*
X118255Y130555D01*
X119023Y130573D01*
X119738Y130559D01*
X120409Y130517D01*
X121037Y130447D01*
X121621Y130348D01*
X122162Y130221D01*
X122660Y130066D01*
X123115Y129883D01*
X123526Y129672D01*
X123901Y129426D01*
X124247Y129141D01*
X124563Y128817D01*
X124851Y128452D01*
X125109Y128049D01*
X125338Y127605D01*
X125539Y127122D01*
X125710Y126598D01*
X123403Y126194D01*
X123297Y126525D01*
X123170Y126833D01*
X123021Y127118D01*
X122851Y127379D01*
X122659Y127616D01*
X122446Y127830D01*
X122212Y128021D01*
X121955Y128187D01*
X121676Y128332D01*
X121370Y128458D01*
X121039Y128565D01*
X120683Y128652D01*
X120300Y128720D01*
X119892Y128768D01*
X119458Y128797D01*
X118999Y128807D01*
X118496Y128796D01*
X118024Y128764D01*
X117582Y128710D01*
X117171Y128635D01*
X116791Y128538D01*
X116441Y128420D01*
X116122Y128281D01*
X115834Y128120D01*
X115578Y127937D01*
X115356Y127734D01*
X115168Y127510D01*
X115015Y127264D01*
X114895Y126997D01*
X114810Y126710D01*
X114759Y126401D01*
X114742Y126071D01*
X114748Y125876D01*
X114768Y125689D01*
X114801Y125512D01*
X114848Y125343D01*
X114907Y125182D01*
X114980Y125030D01*
X115165Y124752D01*
X115400Y124501D01*
X115682Y124271D01*
X116010Y124060D01*
X116386Y123869D01*
X116883Y123678D01*
X117579Y123466D01*
X118472Y123233D01*
X119563Y122979D01*
X121152Y122605D01*
X121926Y122397D01*
X122667Y122151D01*
X123368Y121865D01*
X124023Y121532D01*
X124328Y121344D01*
X124613Y121136D01*
X124877Y120908D01*
X125121Y120661D01*
X125341Y120392D01*
X125536Y120099D01*
X125706Y119784D01*
X125851Y119446D01*
X125966Y119081D01*
X126048Y118686D01*
X126098Y118259D01*
X126114Y117802D01*
X126107Y117507D01*
X126085Y117221D01*
X126049Y116943D01*
X125997Y116674D01*
X125932Y116413D01*
X125851Y116160D01*
X125756Y115916D01*
X125647Y115680D01*
X125522Y115453D01*
X125384Y115234D01*
X125230Y115023D01*
X125062Y114821D01*
X124682Y114442D01*
X124243Y114097D01*
X123752Y113790D01*
X123213Y113523D01*
X122626Y113297D01*
X121991Y113113D01*
X121308Y112969D01*
X120578Y112867D01*
X119800Y112805D01*
X118974Y112785D01*
G37*
G36*
X143427Y219465D02*
X142658Y219482D01*
X141931Y219533D01*
X141245Y219619D01*
X140600Y219739D01*
X139997Y219894D01*
X139436Y220082D01*
X138916Y220305D01*
X138437Y220563D01*
X138000Y220854D01*
X137605Y221180D01*
X137251Y221541D01*
X136938Y221935D01*
X136667Y222364D01*
X136438Y222827D01*
X136250Y223325D01*
X136103Y223857D01*
X138373Y224311D01*
X138485Y223934D01*
X138625Y223583D01*
X138792Y223258D01*
X138986Y222960D01*
X139209Y222686D01*
X139459Y222439D01*
X139736Y222218D01*
X140041Y222023D01*
X140375Y221851D01*
X140737Y221703D01*
X141128Y221578D01*
X141547Y221475D01*
X141996Y221395D01*
X142473Y221338D01*
X142979Y221304D01*
X143513Y221293D01*
X144065Y221305D01*
X144583Y221341D01*
X145070Y221402D01*
X145524Y221487D01*
X145945Y221597D01*
X146335Y221731D01*
X146691Y221889D01*
X147016Y222072D01*
X147305Y222278D01*
X147555Y222507D01*
X147767Y222759D01*
X147941Y223033D01*
X148075Y223331D01*
X148172Y223651D01*
X148230Y223994D01*
X148249Y224360D01*
X148243Y224566D01*
X148225Y224763D01*
X148194Y224950D01*
X148152Y225126D01*
X148031Y225450D01*
X147862Y225734D01*
X147650Y225986D01*
X147398Y226215D01*
X147107Y226421D01*
X146777Y226605D01*
X146410Y226770D01*
X146010Y226921D01*
X145576Y227058D01*
X145108Y227181D01*
X142961Y227684D01*
X141999Y227911D01*
X141159Y228138D01*
X140444Y228365D01*
X139851Y228592D01*
X139349Y228826D01*
X138902Y229072D01*
X138511Y229332D01*
X138177Y229604D01*
X137888Y229895D01*
X137635Y230210D01*
X137419Y230548D01*
X137238Y230911D01*
X137096Y231299D01*
X136994Y231714D01*
X136933Y232157D01*
X136913Y232628D01*
X136920Y232902D01*
X136940Y233167D01*
X136973Y233425D01*
X137019Y233675D01*
X137079Y233917D01*
X137152Y234150D01*
X137338Y234594D01*
X137577Y235006D01*
X137869Y235386D01*
X138214Y235735D01*
X138612Y236051D01*
X139060Y236333D01*
X139553Y236577D01*
X140093Y236784D01*
X140678Y236953D01*
X141309Y237084D01*
X141986Y237178D01*
X142708Y237235D01*
X143477Y237253D01*
X144191Y237239D01*
X144862Y237197D01*
X145490Y237127D01*
X146074Y237028D01*
X146615Y236901D01*
X147113Y236746D01*
X147568Y236563D01*
X147979Y236352D01*
X148354Y236106D01*
X148700Y235821D01*
X149016Y235497D01*
X149304Y235132D01*
X149562Y234729D01*
X149792Y234285D01*
X149992Y233802D01*
X150163Y233278D01*
X147856Y232874D01*
X147750Y233205D01*
X147623Y233513D01*
X147474Y233798D01*
X147304Y234059D01*
X147112Y234296D01*
X146899Y234510D01*
X146665Y234701D01*
X146409Y234867D01*
X146129Y235012D01*
X145824Y235138D01*
X145493Y235245D01*
X145136Y235332D01*
X144753Y235400D01*
X144345Y235448D01*
X143911Y235477D01*
X143452Y235487D01*
X142949Y235476D01*
X142477Y235444D01*
X142035Y235390D01*
X141624Y235315D01*
X141244Y235218D01*
X140894Y235100D01*
X140575Y234961D01*
X140287Y234800D01*
X140031Y234617D01*
X139809Y234414D01*
X139621Y234190D01*
X139468Y233944D01*
X139349Y233677D01*
X139263Y233390D01*
X139212Y233081D01*
X139195Y232751D01*
X139202Y232556D01*
X139221Y232369D01*
X139255Y232192D01*
X139301Y232023D01*
X139360Y231862D01*
X139433Y231710D01*
X139618Y231432D01*
X139853Y231181D01*
X140135Y230951D01*
X140464Y230740D01*
X140839Y230549D01*
X141337Y230358D01*
X142032Y230146D01*
X142925Y229913D01*
X144016Y229659D01*
X145605Y229285D01*
X146379Y229077D01*
X147120Y228831D01*
X147821Y228545D01*
X148476Y228212D01*
X148781Y228024D01*
X149066Y227816D01*
X149330Y227588D01*
X149574Y227341D01*
X149794Y227072D01*
X149989Y226779D01*
X150159Y226464D01*
X150304Y226126D01*
X150419Y225761D01*
X150502Y225366D01*
X150551Y224939D01*
X150567Y224482D01*
X150560Y224187D01*
X150538Y223901D01*
X150502Y223623D01*
X150451Y223354D01*
X150385Y223093D01*
X150304Y222840D01*
X150209Y222596D01*
X150100Y222360D01*
X149976Y222133D01*
X149837Y221914D01*
X149683Y221703D01*
X149515Y221501D01*
X149135Y221122D01*
X148697Y220777D01*
X148205Y220470D01*
X147666Y220203D01*
X147079Y219977D01*
X146444Y219793D01*
X145761Y219649D01*
X145031Y219547D01*
X144253Y219485D01*
X143427Y219465D01*
G37*
G36*
X188787Y112785D02*
X188018Y112802D01*
X187290Y112853D01*
X186604Y112939D01*
X185960Y113059D01*
X185357Y113214D01*
X184795Y113402D01*
X184275Y113625D01*
X183797Y113883D01*
X183360Y114174D01*
X182964Y114500D01*
X182610Y114861D01*
X182298Y115255D01*
X182027Y115684D01*
X181797Y116147D01*
X181609Y116645D01*
X181463Y117177D01*
X183732Y117631D01*
X183844Y117254D01*
X183984Y116903D01*
X184151Y116578D01*
X184346Y116280D01*
X184568Y116006D01*
X184818Y115759D01*
X185096Y115538D01*
X185401Y115343D01*
X185734Y115171D01*
X186096Y115023D01*
X186487Y114898D01*
X186907Y114795D01*
X187355Y114715D01*
X187832Y114658D01*
X188338Y114624D01*
X188873Y114613D01*
X189424Y114625D01*
X189943Y114661D01*
X190429Y114722D01*
X190883Y114807D01*
X191305Y114917D01*
X191694Y115051D01*
X192051Y115209D01*
X192375Y115392D01*
X192664Y115598D01*
X192915Y115827D01*
X193127Y116079D01*
X193300Y116353D01*
X193435Y116651D01*
X193531Y116971D01*
X193589Y117314D01*
X193608Y117680D01*
X193602Y117886D01*
X193584Y118083D01*
X193554Y118270D01*
X193512Y118446D01*
X193391Y118770D01*
X193222Y119054D01*
X193009Y119306D01*
X192757Y119535D01*
X192466Y119741D01*
X192136Y119925D01*
X191770Y120090D01*
X191369Y120241D01*
X190935Y120378D01*
X190468Y120501D01*
X188321Y121004D01*
X187358Y121231D01*
X186519Y121458D01*
X185803Y121685D01*
X185211Y121912D01*
X184708Y122146D01*
X184261Y122392D01*
X183871Y122652D01*
X183536Y122924D01*
X183247Y123215D01*
X182995Y123530D01*
X182778Y123868D01*
X182598Y124231D01*
X182455Y124619D01*
X182354Y125034D01*
X182293Y125477D01*
X182272Y125948D01*
X182279Y126222D01*
X182299Y126487D01*
X182332Y126745D01*
X182379Y126995D01*
X182438Y127237D01*
X182511Y127470D01*
X182697Y127914D01*
X182936Y128326D01*
X183228Y128706D01*
X183573Y129055D01*
X183972Y129371D01*
X184419Y129653D01*
X184913Y129897D01*
X185452Y130104D01*
X186037Y130273D01*
X186668Y130404D01*
X187345Y130498D01*
X188068Y130555D01*
X188836Y130573D01*
X189550Y130559D01*
X190221Y130517D01*
X190849Y130447D01*
X191434Y130348D01*
X191975Y130221D01*
X192473Y130066D01*
X192927Y129883D01*
X193338Y129672D01*
X193713Y129426D01*
X194059Y129141D01*
X194376Y128817D01*
X194663Y128452D01*
X194922Y128049D01*
X195151Y127605D01*
X195351Y127122D01*
X195522Y126598D01*
X193216Y126194D01*
X193110Y126525D01*
X192983Y126833D01*
X192834Y127118D01*
X192664Y127379D01*
X192472Y127616D01*
X192259Y127830D01*
X192024Y128021D01*
X191768Y128187D01*
X191488Y128332D01*
X191183Y128458D01*
X190852Y128565D01*
X190495Y128652D01*
X190113Y128720D01*
X189705Y128768D01*
X189271Y128797D01*
X188811Y128807D01*
X188308Y128796D01*
X187836Y128764D01*
X187394Y128710D01*
X186983Y128635D01*
X186603Y128538D01*
X186253Y128420D01*
X185935Y128281D01*
X185646Y128120D01*
X185390Y127937D01*
X185169Y127734D01*
X184981Y127510D01*
X184827Y127264D01*
X184708Y126997D01*
X184623Y126710D01*
X184571Y126401D01*
X184554Y126071D01*
X184561Y125876D01*
X184581Y125689D01*
X184614Y125512D01*
X184660Y125343D01*
X184720Y125182D01*
X184792Y125030D01*
X184978Y124752D01*
X185213Y124501D01*
X185494Y124271D01*
X185823Y124060D01*
X186198Y123869D01*
X186696Y123678D01*
X187391Y123466D01*
X188285Y123233D01*
X189376Y122979D01*
X190964Y122605D01*
X191739Y122397D01*
X192480Y122151D01*
X193180Y121865D01*
X193835Y121532D01*
X194141Y121344D01*
X194426Y121136D01*
X194690Y120908D01*
X194933Y120661D01*
X195154Y120392D01*
X195349Y120099D01*
X195519Y119784D01*
X195663Y119446D01*
X195778Y119081D01*
X195861Y118686D01*
X195910Y118259D01*
X195927Y117802D01*
X195920Y117507D01*
X195898Y117221D01*
X195861Y116943D01*
X195810Y116674D01*
X195744Y116413D01*
X195664Y116160D01*
X195569Y115916D01*
X195459Y115680D01*
X195335Y115453D01*
X195196Y115234D01*
X195043Y115023D01*
X194874Y114821D01*
X194494Y114442D01*
X194056Y114097D01*
X193564Y113790D01*
X193025Y113523D01*
X192438Y113297D01*
X191803Y113113D01*
X191121Y112969D01*
X190391Y112867D01*
X189613Y112805D01*
X188787Y112785D01*
G37*
G36*
X73448Y219465D02*
X72806Y219482D01*
X72185Y219533D01*
X71587Y219617D01*
X71011Y219736D01*
X70457Y219889D01*
X69925Y220075D01*
X69415Y220296D01*
X68927Y220550D01*
X68464Y220836D01*
X68030Y221151D01*
X67624Y221496D01*
X67246Y221869D01*
X66897Y222272D01*
X66576Y222703D01*
X66284Y223164D01*
X66019Y223654D01*
X65785Y224170D01*
X65582Y224710D01*
X65410Y225272D01*
X65270Y225858D01*
X65160Y226467D01*
X65082Y227099D01*
X65035Y227754D01*
X65020Y228433D01*
X65028Y228942D01*
X65055Y229438D01*
X65098Y229920D01*
X65159Y230388D01*
X65238Y230842D01*
X65334Y231281D01*
X65447Y231707D01*
X65578Y232119D01*
X65726Y232517D01*
X65892Y232901D01*
X66075Y233271D01*
X66276Y233627D01*
X66494Y233968D01*
X66729Y234296D01*
X66982Y234610D01*
X67252Y234910D01*
X67538Y235194D01*
X67837Y235459D01*
X68150Y235706D01*
X68476Y235935D01*
X68816Y236146D01*
X69169Y236338D01*
X69535Y236512D01*
X69915Y236668D01*
X70308Y236805D01*
X70714Y236924D01*
X71134Y237025D01*
X71568Y237107D01*
X72015Y237171D01*
X72475Y237217D01*
X72948Y237244D01*
X73436Y237253D01*
X74111Y237236D01*
X74759Y237186D01*
X75378Y237102D01*
X75969Y236983D01*
X76531Y236832D01*
X77065Y236646D01*
X77571Y236427D01*
X78048Y236174D01*
X78496Y235888D01*
X78913Y235569D01*
X79300Y235217D01*
X79655Y234833D01*
X79981Y234417D01*
X80275Y233968D01*
X80539Y233486D01*
X80772Y232972D01*
X78551Y232236D01*
X78390Y232602D01*
X78205Y232946D01*
X77998Y233267D01*
X77768Y233567D01*
X77515Y233844D01*
X77239Y234099D01*
X76940Y234332D01*
X76619Y234542D01*
X76279Y234729D01*
X75922Y234891D01*
X75551Y235028D01*
X75164Y235140D01*
X74761Y235227D01*
X74343Y235290D01*
X73909Y235327D01*
X73460Y235340D01*
X73106Y235332D01*
X72762Y235311D01*
X72428Y235275D01*
X72104Y235224D01*
X71790Y235159D01*
X71486Y235080D01*
X71192Y234986D01*
X70908Y234878D01*
X70634Y234755D01*
X70370Y234618D01*
X70116Y234467D01*
X69872Y234301D01*
X69637Y234121D01*
X69413Y233926D01*
X69199Y233717D01*
X68994Y233493D01*
X68621Y233010D01*
X68452Y232753D01*
X68297Y232485D01*
X68153Y232206D01*
X68023Y231916D01*
X67904Y231616D01*
X67798Y231305D01*
X67705Y230983D01*
X67624Y230651D01*
X67555Y230308D01*
X67499Y229954D01*
X67456Y229590D01*
X67425Y229215D01*
X67406Y228829D01*
X67400Y228433D01*
X67406Y228040D01*
X67426Y227658D01*
X67458Y227285D01*
X67504Y226922D01*
X67562Y226568D01*
X67633Y226225D01*
X67718Y225891D01*
X67815Y225566D01*
X67926Y225252D01*
X68049Y224947D01*
X68185Y224652D01*
X68335Y224367D01*
X68497Y224091D01*
X68672Y223825D01*
X69062Y223323D01*
X69274Y223089D01*
X69496Y222870D01*
X69727Y222666D01*
X69966Y222478D01*
X70215Y222304D01*
X70473Y222145D01*
X70741Y222002D01*
X71017Y221874D01*
X71303Y221761D01*
X71598Y221662D01*
X71901Y221579D01*
X72214Y221511D01*
X72537Y221459D01*
X72868Y221421D01*
X73209Y221398D01*
X73558Y221391D01*
X74005Y221405D01*
X74438Y221447D01*
X74857Y221517D01*
X75261Y221615D01*
X75652Y221742D01*
X76028Y221896D01*
X76390Y222079D01*
X76739Y222289D01*
X77073Y222528D01*
X77393Y222795D01*
X77699Y223090D01*
X77991Y223413D01*
X78269Y223764D01*
X78532Y224143D01*
X78782Y224550D01*
X79017Y224985D01*
X80931Y224028D01*
X80651Y223487D01*
X80344Y222979D01*
X80009Y222504D01*
X79648Y222062D01*
X79259Y221654D01*
X78844Y221280D01*
X78401Y220938D01*
X77932Y220630D01*
X77439Y220357D01*
X76927Y220120D01*
X76395Y219920D01*
X75845Y219756D01*
X75274Y219629D01*
X74685Y219538D01*
X74076Y219483D01*
X73448Y219465D01*
G37*
G36*
X79010Y192795D02*
X78368Y192812D01*
X77748Y192863D01*
X77150Y192947D01*
X76574Y193066D01*
X76019Y193219D01*
X75487Y193405D01*
X74977Y193626D01*
X74490Y193880D01*
X74027Y194166D01*
X73592Y194481D01*
X73186Y194826D01*
X72809Y195199D01*
X72460Y195602D01*
X72139Y196033D01*
X71846Y196494D01*
X71582Y196984D01*
X71348Y197500D01*
X71145Y198040D01*
X70973Y198602D01*
X70832Y199188D01*
X70723Y199797D01*
X70645Y200429D01*
X70598Y201084D01*
X70582Y201763D01*
X70591Y202272D01*
X70617Y202768D01*
X70661Y203250D01*
X70722Y203718D01*
X70800Y204172D01*
X70896Y204611D01*
X71009Y205037D01*
X71140Y205449D01*
X71289Y205847D01*
X71454Y206231D01*
X71637Y206601D01*
X71838Y206957D01*
X72056Y207298D01*
X72292Y207626D01*
X72545Y207940D01*
X72815Y208240D01*
X73101Y208524D01*
X73400Y208789D01*
X73713Y209036D01*
X74039Y209265D01*
X74378Y209476D01*
X74731Y209668D01*
X75097Y209842D01*
X75477Y209998D01*
X75870Y210135D01*
X76277Y210254D01*
X76697Y210355D01*
X77130Y210437D01*
X77577Y210501D01*
X78037Y210547D01*
X78511Y210574D01*
X78998Y210583D01*
X79674Y210566D01*
X80321Y210516D01*
X80941Y210432D01*
X81531Y210313D01*
X82094Y210162D01*
X82628Y209976D01*
X83134Y209757D01*
X83611Y209504D01*
X84059Y209218D01*
X84476Y208899D01*
X84862Y208547D01*
X85218Y208163D01*
X85543Y207747D01*
X85837Y207298D01*
X86101Y206816D01*
X86334Y206302D01*
X84114Y205566D01*
X83952Y205932D01*
X83768Y206276D01*
X83560Y206597D01*
X83330Y206897D01*
X83077Y207174D01*
X82802Y207429D01*
X82503Y207662D01*
X82182Y207872D01*
X81841Y208059D01*
X81485Y208221D01*
X81113Y208358D01*
X80726Y208470D01*
X80324Y208557D01*
X79905Y208620D01*
X79472Y208657D01*
X79023Y208670D01*
X78669Y208662D01*
X78325Y208641D01*
X77991Y208605D01*
X77667Y208554D01*
X77353Y208489D01*
X77049Y208410D01*
X76755Y208316D01*
X76471Y208208D01*
X76197Y208085D01*
X75933Y207948D01*
X75678Y207797D01*
X75434Y207631D01*
X75200Y207451D01*
X74976Y207256D01*
X74761Y207047D01*
X74557Y206823D01*
X74183Y206340D01*
X74015Y206083D01*
X73859Y205815D01*
X73716Y205536D01*
X73585Y205246D01*
X73467Y204946D01*
X73361Y204635D01*
X73267Y204313D01*
X73186Y203981D01*
X73118Y203638D01*
X73062Y203284D01*
X73018Y202920D01*
X72987Y202545D01*
X72968Y202159D01*
X72962Y201763D01*
X72969Y201370D01*
X72988Y200988D01*
X73021Y200615D01*
X73066Y200252D01*
X73124Y199898D01*
X73196Y199555D01*
X73280Y199221D01*
X73378Y198896D01*
X73488Y198582D01*
X73611Y198277D01*
X73748Y197982D01*
X73897Y197697D01*
X74060Y197421D01*
X74235Y197155D01*
X74624Y196653D01*
X74837Y196419D01*
X75058Y196200D01*
X75289Y195996D01*
X75529Y195808D01*
X75778Y195634D01*
X76036Y195475D01*
X76303Y195332D01*
X76580Y195204D01*
X76865Y195091D01*
X77160Y194992D01*
X77464Y194909D01*
X77777Y194841D01*
X78099Y194789D01*
X78431Y194751D01*
X78771Y194728D01*
X79121Y194721D01*
X79568Y194735D01*
X80000Y194777D01*
X80419Y194847D01*
X80824Y194945D01*
X81214Y195072D01*
X81591Y195226D01*
X81953Y195409D01*
X82301Y195619D01*
X82635Y195858D01*
X82955Y196125D01*
X83261Y196420D01*
X83553Y196743D01*
X83831Y197094D01*
X84095Y197473D01*
X84344Y197880D01*
X84580Y198315D01*
X86494Y197358D01*
X86213Y196817D01*
X85906Y196309D01*
X85572Y195834D01*
X85210Y195392D01*
X84822Y194984D01*
X84406Y194610D01*
X83964Y194268D01*
X83494Y193960D01*
X83002Y193687D01*
X82489Y193450D01*
X81958Y193250D01*
X81407Y193086D01*
X80837Y192959D01*
X80247Y192868D01*
X79639Y192813D01*
X79010Y192795D01*
G37*
G36*
X151014Y112785D02*
X150375Y112803D01*
X149768Y112859D01*
X149195Y112951D01*
X148654Y113081D01*
X148147Y113247D01*
X147673Y113451D01*
X147233Y113691D01*
X146825Y113969D01*
X146454Y114282D01*
X146122Y114631D01*
X145830Y115016D01*
X145578Y115436D01*
X145366Y115892D01*
X145193Y116383D01*
X145060Y116909D01*
X144966Y117471D01*
X147248Y117680D01*
X147315Y117308D01*
X147404Y116961D01*
X147515Y116637D01*
X147649Y116338D01*
X147806Y116062D01*
X147985Y115811D01*
X148186Y115583D01*
X148411Y115379D01*
X148657Y115200D01*
X148926Y115044D01*
X149218Y114912D01*
X149532Y114804D01*
X149869Y114720D01*
X150228Y114661D01*
X150610Y114625D01*
X151014Y114613D01*
X151420Y114625D01*
X151804Y114664D01*
X152165Y114728D01*
X152503Y114818D01*
X152820Y114934D01*
X153113Y115075D01*
X153385Y115242D01*
X153634Y115435D01*
X153857Y115652D01*
X154050Y115895D01*
X154213Y116163D01*
X154347Y116456D01*
X154451Y116773D01*
X154525Y117116D01*
X154570Y117483D01*
X154584Y117876D01*
X154567Y118219D01*
X154517Y118543D01*
X154432Y118847D01*
X154313Y119132D01*
X154160Y119397D01*
X153974Y119644D01*
X153753Y119871D01*
X153499Y120078D01*
X153212Y120263D01*
X152896Y120424D01*
X152549Y120560D01*
X152172Y120671D01*
X151765Y120758D01*
X151328Y120820D01*
X150861Y120857D01*
X150364Y120869D01*
X149113Y120869D01*
X149113Y122783D01*
X150315Y122783D01*
X150756Y122795D01*
X151172Y122833D01*
X151562Y122894D01*
X151927Y122981D01*
X152266Y123092D01*
X152580Y123228D01*
X152868Y123389D01*
X153131Y123574D01*
X153365Y123782D01*
X153568Y124008D01*
X153740Y124253D01*
X153881Y124518D01*
X153990Y124801D01*
X154068Y125103D01*
X154115Y125424D01*
X154131Y125764D01*
X154118Y126102D01*
X154080Y126421D01*
X154016Y126722D01*
X153927Y127005D01*
X153812Y127269D01*
X153672Y127516D01*
X153506Y127744D01*
X153315Y127954D01*
X153098Y128142D01*
X152857Y128306D01*
X152592Y128444D01*
X152301Y128557D01*
X151986Y128645D01*
X151646Y128707D01*
X151281Y128745D01*
X150892Y128758D01*
X150536Y128746D01*
X150197Y128711D01*
X149875Y128652D01*
X149571Y128571D01*
X149285Y128465D01*
X149016Y128337D01*
X148764Y128185D01*
X148530Y128009D01*
X148317Y127813D01*
X148126Y127597D01*
X147960Y127362D01*
X147817Y127108D01*
X147698Y126834D01*
X147602Y126542D01*
X147530Y126230D01*
X147481Y125899D01*
X145261Y126071D01*
X145342Y126587D01*
X145463Y127074D01*
X145623Y127532D01*
X145824Y127960D01*
X146063Y128360D01*
X146343Y128730D01*
X146662Y129071D01*
X147021Y129383D01*
X147413Y129662D01*
X147833Y129904D01*
X148279Y130108D01*
X148753Y130276D01*
X149253Y130406D01*
X149780Y130499D01*
X150335Y130555D01*
X150916Y130573D01*
X151548Y130554D01*
X152144Y130498D01*
X152704Y130403D01*
X153227Y130271D01*
X153714Y130101D01*
X154165Y129894D01*
X154580Y129648D01*
X154959Y129365D01*
X155296Y129048D01*
X155589Y128701D01*
X155837Y128325D01*
X156040Y127919D01*
X156197Y127483D01*
X156310Y127018D01*
X156378Y126522D01*
X156400Y125997D01*
X156386Y125593D01*
X156342Y125208D01*
X156270Y124842D01*
X156169Y124496D01*
X156038Y124169D01*
X155879Y123862D01*
X155691Y123573D01*
X155474Y123305D01*
X155229Y123056D01*
X154958Y122828D01*
X154661Y122621D01*
X154338Y122435D01*
X153988Y122270D01*
X153612Y122126D01*
X153210Y122002D01*
X152781Y121900D01*
X152781Y121851D01*
X153252Y121785D01*
X153697Y121691D01*
X154114Y121570D01*
X154505Y121421D01*
X154869Y121245D01*
X155206Y121041D01*
X155516Y120809D01*
X155799Y120550D01*
X156052Y120269D01*
X156271Y119969D01*
X156457Y119652D01*
X156609Y119317D01*
X156727Y118965D01*
X156811Y118595D01*
X156862Y118208D01*
X156879Y117802D01*
X156873Y117507D01*
X156855Y117221D01*
X156783Y116674D01*
X156665Y116160D01*
X156498Y115680D01*
X156284Y115234D01*
X156023Y114821D01*
X155714Y114442D01*
X155357Y114097D01*
X154957Y113790D01*
X154515Y113523D01*
X154034Y113297D01*
X153511Y113113D01*
X152948Y112969D01*
X152344Y112867D01*
X151700Y112805D01*
X151014Y112785D01*
G37*
G36*
X204077Y112785D02*
X203437Y112803D01*
X202831Y112859D01*
X202257Y112951D01*
X201717Y113081D01*
X201210Y113247D01*
X200736Y113451D01*
X200295Y113691D01*
X199887Y113969D01*
X199516Y114282D01*
X199185Y114631D01*
X198893Y115016D01*
X198641Y115436D01*
X198428Y115892D01*
X198255Y116383D01*
X198122Y116909D01*
X198029Y117471D01*
X200311Y117680D01*
X200377Y117308D01*
X200466Y116961D01*
X200578Y116637D01*
X200712Y116338D01*
X200868Y116062D01*
X201047Y115811D01*
X201249Y115583D01*
X201473Y115379D01*
X201720Y115200D01*
X201989Y115044D01*
X202281Y114912D01*
X202595Y114804D01*
X202932Y114720D01*
X203291Y114661D01*
X203673Y114625D01*
X204077Y114613D01*
X204483Y114625D01*
X204866Y114664D01*
X205227Y114728D01*
X205566Y114818D01*
X205882Y114934D01*
X206176Y115075D01*
X206447Y115242D01*
X206696Y115435D01*
X206919Y115652D01*
X207112Y115895D01*
X207276Y116163D01*
X207409Y116456D01*
X207513Y116773D01*
X207588Y117116D01*
X207632Y117483D01*
X207647Y117876D01*
X207630Y118219D01*
X207579Y118543D01*
X207494Y118847D01*
X207376Y119132D01*
X207223Y119397D01*
X207036Y119644D01*
X206816Y119871D01*
X206561Y120078D01*
X206275Y120263D01*
X205958Y120424D01*
X205612Y120560D01*
X205235Y120671D01*
X204828Y120758D01*
X204391Y120820D01*
X203924Y120857D01*
X203427Y120869D01*
X202175Y120869D01*
X202175Y122783D01*
X203378Y122783D01*
X203819Y122795D01*
X204235Y122833D01*
X204625Y122894D01*
X204989Y122981D01*
X205329Y123092D01*
X205642Y123228D01*
X205930Y123389D01*
X206193Y123574D01*
X206428Y123782D01*
X206631Y124008D01*
X206802Y124253D01*
X206943Y124518D01*
X207052Y124801D01*
X207131Y125103D01*
X207177Y125424D01*
X207193Y125764D01*
X207180Y126102D01*
X207142Y126421D01*
X207078Y126722D01*
X206989Y127005D01*
X206874Y127269D01*
X206734Y127516D01*
X206568Y127744D01*
X206377Y127954D01*
X206161Y128142D01*
X205920Y128306D01*
X205654Y128444D01*
X205364Y128557D01*
X205048Y128645D01*
X204708Y128707D01*
X204344Y128745D01*
X203954Y128758D01*
X203598Y128746D01*
X203259Y128711D01*
X202938Y128652D01*
X202634Y128571D01*
X202347Y128465D01*
X202078Y128337D01*
X201827Y128185D01*
X201593Y128009D01*
X201379Y127813D01*
X201189Y127597D01*
X201022Y127362D01*
X200880Y127108D01*
X200760Y126834D01*
X200665Y126542D01*
X200592Y126230D01*
X200544Y125899D01*
X198323Y126071D01*
X198404Y126587D01*
X198525Y127074D01*
X198686Y127532D01*
X198886Y127960D01*
X199126Y128360D01*
X199405Y128730D01*
X199725Y129071D01*
X200084Y129383D01*
X200476Y129662D01*
X200895Y129904D01*
X201342Y130108D01*
X201815Y130276D01*
X202315Y130406D01*
X202843Y130499D01*
X203397Y130555D01*
X203979Y130573D01*
X204611Y130554D01*
X205207Y130498D01*
X205766Y130403D01*
X206290Y130271D01*
X206777Y130101D01*
X207228Y129894D01*
X207643Y129648D01*
X208021Y129365D01*
X208359Y129048D01*
X208652Y128701D01*
X208900Y128325D01*
X209102Y127919D01*
X209260Y127483D01*
X209373Y127018D01*
X209440Y126522D01*
X209463Y125997D01*
X209448Y125593D01*
X209405Y125208D01*
X209332Y124842D01*
X209231Y124496D01*
X209101Y124169D01*
X208942Y123862D01*
X208753Y123573D01*
X208536Y123305D01*
X208292Y123056D01*
X208021Y122828D01*
X207724Y122621D01*
X207400Y122435D01*
X207050Y122270D01*
X206674Y122126D01*
X206272Y122002D01*
X205844Y121900D01*
X205844Y121851D01*
X206315Y121785D01*
X206759Y121691D01*
X207177Y121570D01*
X207567Y121421D01*
X207931Y121245D01*
X208268Y121041D01*
X208578Y120809D01*
X208861Y120550D01*
X209115Y120269D01*
X209334Y119969D01*
X209519Y119652D01*
X209671Y119317D01*
X209789Y118965D01*
X209874Y118595D01*
X209924Y118208D01*
X209941Y117802D01*
X209935Y117507D01*
X209917Y117221D01*
X209846Y116674D01*
X209727Y116160D01*
X209561Y115680D01*
X209347Y115234D01*
X209085Y114821D01*
X208776Y114442D01*
X208420Y114097D01*
X208019Y113790D01*
X207578Y113523D01*
X207096Y113297D01*
X206573Y113113D01*
X206010Y112969D01*
X205406Y112867D01*
X204762Y112805D01*
X204077Y112785D01*
G37*
G36*
X85819Y86360D02*
X83611Y86360D01*
X83611Y104566D01*
X85819Y104566D01*
X85819Y99830D01*
X85808Y99070D01*
X85776Y98285D01*
X85721Y97364D01*
X85758Y97364D01*
X85940Y97679D01*
X86132Y97971D01*
X86332Y98242D01*
X86541Y98492D01*
X86760Y98719D01*
X86987Y98925D01*
X87224Y99109D01*
X87469Y99272D01*
X87727Y99414D01*
X88002Y99538D01*
X88294Y99642D01*
X88602Y99728D01*
X88927Y99794D01*
X89269Y99841D01*
X89627Y99870D01*
X90002Y99879D01*
X90525Y99863D01*
X91011Y99812D01*
X91462Y99728D01*
X91878Y99611D01*
X92258Y99460D01*
X92603Y99276D01*
X92912Y99058D01*
X93186Y98806D01*
X93426Y98515D01*
X93634Y98178D01*
X93810Y97796D01*
X93954Y97369D01*
X94066Y96896D01*
X94146Y96378D01*
X94194Y95814D01*
X94210Y95205D01*
X94210Y86360D01*
X91990Y86360D01*
X91990Y94776D01*
X91974Y95430D01*
X91925Y95995D01*
X91845Y96470D01*
X91732Y96855D01*
X91583Y97173D01*
X91392Y97446D01*
X91160Y97673D01*
X90886Y97855D01*
X90563Y97995D01*
X90183Y98094D01*
X89747Y98154D01*
X89254Y98174D01*
X88874Y98157D01*
X88514Y98107D01*
X88173Y98022D01*
X87851Y97904D01*
X87549Y97752D01*
X87266Y97567D01*
X87002Y97348D01*
X86758Y97095D01*
X86538Y96813D01*
X86347Y96508D01*
X86186Y96180D01*
X86054Y95828D01*
X85951Y95453D01*
X85878Y95054D01*
X85834Y94632D01*
X85819Y94187D01*
X85819Y86360D01*
G37*
G36*
X91413Y193040D02*
X89205Y193040D01*
X89205Y211246D01*
X91413Y211246D01*
X91413Y206510D01*
X91402Y205750D01*
X91370Y204965D01*
X91315Y204044D01*
X91351Y204044D01*
X91534Y204359D01*
X91725Y204651D01*
X91926Y204922D01*
X92135Y205172D01*
X92354Y205399D01*
X92581Y205605D01*
X92817Y205789D01*
X93063Y205952D01*
X93321Y206094D01*
X93596Y206218D01*
X93888Y206322D01*
X94196Y206408D01*
X94521Y206474D01*
X94863Y206521D01*
X95221Y206550D01*
X95596Y206559D01*
X96118Y206543D01*
X96605Y206492D01*
X97056Y206408D01*
X97472Y206291D01*
X97852Y206140D01*
X98197Y205956D01*
X98506Y205738D01*
X98780Y205486D01*
X99020Y205195D01*
X99228Y204858D01*
X99404Y204476D01*
X99548Y204049D01*
X99660Y203576D01*
X99740Y203058D01*
X99788Y202494D01*
X99804Y201885D01*
X99804Y193040D01*
X97584Y193040D01*
X97584Y201456D01*
X97568Y202110D01*
X97519Y202675D01*
X97439Y203150D01*
X97326Y203535D01*
X97177Y203853D01*
X96986Y204126D01*
X96753Y204353D01*
X96480Y204535D01*
X96157Y204675D01*
X95777Y204774D01*
X95341Y204834D01*
X94848Y204854D01*
X94468Y204837D01*
X94108Y204787D01*
X93766Y204702D01*
X93445Y204584D01*
X93142Y204432D01*
X92859Y204247D01*
X92596Y204028D01*
X92351Y203775D01*
X92131Y203493D01*
X91941Y203188D01*
X91779Y202860D01*
X91647Y202508D01*
X91545Y202133D01*
X91471Y201734D01*
X91427Y201312D01*
X91413Y200867D01*
X91413Y193040D01*
G37*
G36*
X170688Y113030D02*
X159242Y113030D01*
X159242Y114588D01*
X159572Y115285D01*
X159936Y115939D01*
X160336Y116551D01*
X160769Y117121D01*
X161226Y117657D01*
X161694Y118167D01*
X162173Y118651D01*
X162665Y119109D01*
X163654Y119966D01*
X164634Y120759D01*
X165561Y121520D01*
X166394Y122280D01*
X166768Y122665D01*
X167104Y123059D01*
X167403Y123462D01*
X167664Y123875D01*
X167777Y124087D01*
X167876Y124306D01*
X167959Y124532D01*
X168027Y124764D01*
X168080Y125004D01*
X168118Y125251D01*
X168141Y125504D01*
X168148Y125764D01*
X168135Y126110D01*
X168096Y126436D01*
X168031Y126742D01*
X167940Y127028D01*
X167822Y127294D01*
X167679Y127540D01*
X167510Y127766D01*
X167314Y127973D01*
X167095Y128157D01*
X166856Y128316D01*
X166597Y128451D01*
X166317Y128561D01*
X166017Y128647D01*
X165697Y128709D01*
X165356Y128745D01*
X164995Y128758D01*
X164651Y128746D01*
X164321Y128710D01*
X164007Y128650D01*
X163709Y128566D01*
X163426Y128458D01*
X163159Y128326D01*
X162907Y128171D01*
X162671Y127991D01*
X162454Y127790D01*
X162261Y127569D01*
X162091Y127329D01*
X161945Y127069D01*
X161823Y126790D01*
X161724Y126492D01*
X161649Y126175D01*
X161597Y125838D01*
X159340Y126046D01*
X159421Y126552D01*
X159542Y127030D01*
X159702Y127482D01*
X159903Y127908D01*
X160143Y128307D01*
X160422Y128680D01*
X160741Y129027D01*
X161100Y129347D01*
X161493Y129634D01*
X161912Y129883D01*
X162358Y130094D01*
X162832Y130267D01*
X163332Y130401D01*
X163860Y130497D01*
X164414Y130554D01*
X164995Y130573D01*
X165630Y130554D01*
X166226Y130496D01*
X166785Y130400D01*
X167306Y130265D01*
X167790Y130092D01*
X168235Y129880D01*
X168643Y129629D01*
X169013Y129340D01*
X169342Y129016D01*
X169628Y128659D01*
X169869Y128270D01*
X170067Y127848D01*
X170220Y127394D01*
X170330Y126908D01*
X170396Y126389D01*
X170418Y125838D01*
X170411Y125587D01*
X170389Y125336D01*
X170353Y125085D01*
X170303Y124835D01*
X170159Y124336D01*
X169958Y123838D01*
X169700Y123341D01*
X169386Y122844D01*
X169016Y122348D01*
X168590Y121851D01*
X168033Y121286D01*
X167268Y120584D01*
X166297Y119746D01*
X165118Y118771D01*
X164449Y118209D01*
X163851Y117675D01*
X163326Y117169D01*
X162873Y116692D01*
X162485Y116233D01*
X162155Y115783D01*
X161884Y115341D01*
X161671Y114907D01*
X170688Y114907D01*
X170688Y113030D01*
G37*
G36*
X79603Y134486D02*
X79167Y134495D01*
X78768Y134520D01*
X78406Y134562D01*
X78081Y134621D01*
X78081Y136277D01*
X78572Y136222D01*
X79112Y136204D01*
X79366Y136215D01*
X79614Y136251D01*
X79855Y136310D01*
X80089Y136393D01*
X80316Y136500D01*
X80537Y136630D01*
X80751Y136784D01*
X80958Y136961D01*
X81159Y137162D01*
X81353Y137387D01*
X81540Y137636D01*
X81720Y137908D01*
X81894Y138204D01*
X82061Y138524D01*
X82222Y138867D01*
X82375Y139234D01*
X82584Y139761D01*
X77321Y152974D01*
X79676Y152974D01*
X82473Y145638D01*
X82621Y145227D01*
X83173Y143626D01*
X83531Y142565D01*
X83676Y142105D01*
X84534Y144521D01*
X87442Y152974D01*
X89773Y152974D01*
X84669Y139700D01*
X84265Y138707D01*
X83875Y137849D01*
X83498Y137127D01*
X83136Y136541D01*
X82770Y136056D01*
X82386Y135636D01*
X81982Y135283D01*
X81773Y135131D01*
X81559Y134995D01*
X81340Y134876D01*
X81113Y134772D01*
X80879Y134685D01*
X80638Y134613D01*
X80390Y134558D01*
X80134Y134518D01*
X79872Y134494D01*
X79603Y134486D01*
G37*
G36*
X239243Y187826D02*
X238808Y187835D01*
X238409Y187860D01*
X238047Y187902D01*
X237722Y187961D01*
X237722Y189617D01*
X238213Y189562D01*
X238752Y189544D01*
X239007Y189555D01*
X239254Y189591D01*
X239495Y189650D01*
X239729Y189733D01*
X239957Y189840D01*
X240177Y189970D01*
X240392Y190124D01*
X240599Y190301D01*
X240799Y190502D01*
X240993Y190727D01*
X241181Y190976D01*
X241361Y191248D01*
X241535Y191544D01*
X241702Y191864D01*
X241862Y192207D01*
X242016Y192574D01*
X242224Y193101D01*
X236961Y206314D01*
X239317Y206314D01*
X242114Y198978D01*
X242261Y198567D01*
X242813Y196966D01*
X243172Y195905D01*
X243316Y195445D01*
X244175Y197861D01*
X247082Y206314D01*
X249413Y206314D01*
X244310Y193040D01*
X243906Y192047D01*
X243516Y191189D01*
X243139Y190467D01*
X242776Y189881D01*
X242411Y189396D01*
X242027Y188976D01*
X241623Y188623D01*
X241414Y188471D01*
X241200Y188335D01*
X240980Y188216D01*
X240753Y188112D01*
X240519Y188025D01*
X240278Y187953D01*
X240030Y187898D01*
X239775Y187858D01*
X239513Y187834D01*
X239243Y187826D01*
G37*
G36*
X114271Y219465D02*
X113743Y219482D01*
X113252Y219533D01*
X112798Y219617D01*
X112380Y219736D01*
X111999Y219889D01*
X111654Y220075D01*
X111346Y220296D01*
X111075Y220550D01*
X110838Y220844D01*
X110632Y221182D01*
X110458Y221564D01*
X110316Y221990D01*
X110205Y222461D01*
X110126Y222976D01*
X110079Y223535D01*
X110063Y224139D01*
X110063Y232984D01*
X112283Y232984D01*
X112283Y224568D01*
X112300Y223949D01*
X112348Y223403D01*
X112428Y222930D01*
X112541Y222532D01*
X112689Y222195D01*
X112875Y221909D01*
X113100Y221674D01*
X113363Y221489D01*
X113512Y221414D01*
X113678Y221349D01*
X114059Y221250D01*
X114506Y221190D01*
X115019Y221170D01*
X115407Y221187D01*
X115774Y221238D01*
X116120Y221323D01*
X116445Y221443D01*
X116749Y221596D01*
X117032Y221784D01*
X117294Y222006D01*
X117534Y222262D01*
X117750Y222548D01*
X117937Y222861D01*
X118095Y223200D01*
X118224Y223565D01*
X118325Y223957D01*
X118397Y224376D01*
X118440Y224821D01*
X118454Y225292D01*
X118454Y232984D01*
X120663Y232984D01*
X120663Y222544D01*
X120681Y220676D01*
X120704Y220080D01*
X120736Y219710D01*
X118651Y219710D01*
X118626Y220041D01*
X118595Y220661D01*
X118552Y221980D01*
X118516Y221980D01*
X118322Y221649D01*
X118120Y221343D01*
X117911Y221062D01*
X117695Y220806D01*
X117471Y220576D01*
X117240Y220371D01*
X117001Y220190D01*
X116755Y220035D01*
X116498Y219901D01*
X116225Y219786D01*
X115937Y219688D01*
X115634Y219607D01*
X115316Y219545D01*
X114983Y219500D01*
X114634Y219474D01*
X114271Y219465D01*
G37*
G36*
X178490Y219465D02*
X177962Y219482D01*
X177471Y219533D01*
X177017Y219617D01*
X176599Y219736D01*
X176218Y219889D01*
X175873Y220075D01*
X175565Y220296D01*
X175294Y220550D01*
X175057Y220844D01*
X174851Y221182D01*
X174677Y221564D01*
X174535Y221990D01*
X174424Y222461D01*
X174345Y222976D01*
X174297Y223535D01*
X174282Y224139D01*
X174282Y232984D01*
X176502Y232984D01*
X176502Y224568D01*
X176518Y223949D01*
X176567Y223403D01*
X176647Y222930D01*
X176760Y222532D01*
X176908Y222195D01*
X177094Y221909D01*
X177319Y221674D01*
X177582Y221489D01*
X177731Y221414D01*
X177897Y221349D01*
X178278Y221250D01*
X178725Y221190D01*
X179238Y221170D01*
X179626Y221187D01*
X179993Y221238D01*
X180339Y221323D01*
X180664Y221443D01*
X180968Y221596D01*
X181251Y221784D01*
X181512Y222006D01*
X181753Y222262D01*
X181969Y222548D01*
X182155Y222861D01*
X182314Y223200D01*
X182443Y223565D01*
X182544Y223957D01*
X182616Y224376D01*
X182659Y224821D01*
X182673Y225292D01*
X182673Y232984D01*
X184881Y232984D01*
X184881Y222544D01*
X184900Y220676D01*
X184923Y220080D01*
X184955Y219710D01*
X182869Y219710D01*
X182845Y220041D01*
X182814Y220661D01*
X182771Y221980D01*
X182734Y221980D01*
X182540Y221649D01*
X182339Y221343D01*
X182130Y221062D01*
X181914Y220806D01*
X181690Y220576D01*
X181459Y220371D01*
X181220Y220190D01*
X180974Y220035D01*
X180716Y219901D01*
X180444Y219786D01*
X180156Y219688D01*
X179853Y219607D01*
X179535Y219545D01*
X179202Y219500D01*
X178853Y219474D01*
X178490Y219465D01*
G37*
G36*
X213396Y219465D02*
X212868Y219482D01*
X212377Y219533D01*
X211923Y219617D01*
X211505Y219736D01*
X211124Y219889D01*
X210779Y220075D01*
X210471Y220296D01*
X210200Y220550D01*
X209963Y220844D01*
X209757Y221182D01*
X209583Y221564D01*
X209441Y221990D01*
X209330Y222461D01*
X209251Y222976D01*
X209204Y223535D01*
X209188Y224139D01*
X209188Y232984D01*
X211408Y232984D01*
X211408Y224568D01*
X211425Y223949D01*
X211473Y223403D01*
X211553Y222930D01*
X211666Y222532D01*
X211814Y222195D01*
X212000Y221909D01*
X212225Y221674D01*
X212488Y221489D01*
X212637Y221414D01*
X212803Y221349D01*
X213184Y221250D01*
X213631Y221190D01*
X214144Y221170D01*
X214532Y221187D01*
X214899Y221238D01*
X215245Y221323D01*
X215570Y221443D01*
X215874Y221596D01*
X216157Y221784D01*
X216419Y222006D01*
X216659Y222262D01*
X216875Y222548D01*
X217062Y222861D01*
X217220Y223200D01*
X217349Y223565D01*
X217450Y223957D01*
X217522Y224376D01*
X217565Y224821D01*
X217579Y225292D01*
X217579Y232984D01*
X219788Y232984D01*
X219788Y222544D01*
X219806Y220676D01*
X219829Y220080D01*
X219861Y219710D01*
X217776Y219710D01*
X217751Y220041D01*
X217720Y220661D01*
X217677Y221980D01*
X217641Y221980D01*
X217447Y221649D01*
X217245Y221343D01*
X217036Y221062D01*
X216820Y220806D01*
X216596Y220576D01*
X216365Y220371D01*
X216126Y220190D01*
X215880Y220035D01*
X215623Y219901D01*
X215350Y219786D01*
X215062Y219688D01*
X214759Y219607D01*
X214441Y219545D01*
X214108Y219500D01*
X213759Y219474D01*
X213396Y219465D01*
G37*
G36*
X119350Y193040D02*
X117142Y193040D01*
X117142Y203480D01*
X117124Y205348D01*
X117101Y205944D01*
X117068Y206314D01*
X119154Y206314D01*
X119179Y205983D01*
X119209Y205363D01*
X119252Y204044D01*
X119289Y204044D01*
X119483Y204375D01*
X119684Y204681D01*
X119893Y204962D01*
X120109Y205218D01*
X120333Y205448D01*
X120564Y205653D01*
X120803Y205834D01*
X121049Y205989D01*
X121307Y206123D01*
X121580Y206239D01*
X121867Y206337D01*
X122170Y206417D01*
X122489Y206479D01*
X122822Y206524D01*
X123170Y206550D01*
X123534Y206559D01*
X124061Y206542D01*
X124552Y206492D01*
X125007Y206407D01*
X125425Y206288D01*
X125806Y206135D01*
X126150Y205949D01*
X126458Y205728D01*
X126730Y205474D01*
X126967Y205180D01*
X127172Y204842D01*
X127346Y204460D01*
X127489Y204034D01*
X127599Y203563D01*
X127678Y203048D01*
X127726Y202489D01*
X127742Y201885D01*
X127742Y193040D01*
X125521Y193040D01*
X125521Y201456D01*
X125505Y202075D01*
X125457Y202621D01*
X125376Y203094D01*
X125264Y203492D01*
X125116Y203829D01*
X124929Y204115D01*
X124705Y204350D01*
X124442Y204535D01*
X124292Y204610D01*
X124126Y204675D01*
X123745Y204774D01*
X123298Y204834D01*
X122785Y204854D01*
X122397Y204837D01*
X122030Y204786D01*
X121684Y204701D01*
X121359Y204581D01*
X121055Y204428D01*
X120773Y204240D01*
X120511Y204018D01*
X120270Y203762D01*
X120055Y203476D01*
X119868Y203163D01*
X119710Y202824D01*
X119580Y202459D01*
X119480Y202067D01*
X119408Y201648D01*
X119365Y201203D01*
X119350Y200732D01*
X119350Y193040D01*
G37*
G36*
X122132Y86360D02*
X119923Y86360D01*
X119923Y96800D01*
X119905Y98668D01*
X119882Y99264D01*
X119850Y99634D01*
X121935Y99634D01*
X121960Y99303D01*
X121990Y98683D01*
X122033Y97364D01*
X122070Y97364D01*
X122264Y97695D01*
X122465Y98001D01*
X122674Y98282D01*
X122891Y98538D01*
X123114Y98768D01*
X123346Y98973D01*
X123584Y99154D01*
X123831Y99309D01*
X124088Y99443D01*
X124361Y99559D01*
X124649Y99657D01*
X124952Y99737D01*
X125270Y99799D01*
X125603Y99844D01*
X125951Y99870D01*
X126315Y99879D01*
X126843Y99862D01*
X127334Y99812D01*
X127788Y99727D01*
X128206Y99608D01*
X128587Y99455D01*
X128932Y99269D01*
X129239Y99048D01*
X129511Y98794D01*
X129748Y98500D01*
X129954Y98162D01*
X130128Y97780D01*
X130270Y97354D01*
X130381Y96883D01*
X130460Y96368D01*
X130507Y95809D01*
X130523Y95205D01*
X130523Y86360D01*
X128302Y86360D01*
X128302Y94776D01*
X128286Y95395D01*
X128238Y95941D01*
X128157Y96414D01*
X128045Y96812D01*
X127897Y97149D01*
X127710Y97435D01*
X127486Y97670D01*
X127223Y97855D01*
X127073Y97930D01*
X126908Y97995D01*
X126527Y98094D01*
X126080Y98154D01*
X125567Y98174D01*
X125178Y98157D01*
X124811Y98106D01*
X124465Y98021D01*
X124140Y97901D01*
X123837Y97748D01*
X123554Y97560D01*
X123292Y97338D01*
X123052Y97082D01*
X122836Y96796D01*
X122649Y96483D01*
X122491Y96144D01*
X122362Y95779D01*
X122261Y95387D01*
X122189Y94968D01*
X122146Y94523D01*
X122132Y94052D01*
X122132Y86360D01*
G37*
G36*
X133319Y193040D02*
X131111Y193040D01*
X131111Y203480D01*
X131092Y205348D01*
X131069Y205944D01*
X131037Y206314D01*
X133123Y206314D01*
X133147Y205983D01*
X133178Y205363D01*
X133221Y204044D01*
X133258Y204044D01*
X133452Y204375D01*
X133653Y204681D01*
X133862Y204962D01*
X134078Y205218D01*
X134302Y205448D01*
X134533Y205653D01*
X134772Y205834D01*
X135018Y205989D01*
X135276Y206123D01*
X135548Y206239D01*
X135836Y206337D01*
X136139Y206417D01*
X136457Y206479D01*
X136791Y206524D01*
X137139Y206550D01*
X137502Y206559D01*
X138030Y206542D01*
X138521Y206492D01*
X138976Y206407D01*
X139393Y206288D01*
X139774Y206135D01*
X140119Y205949D01*
X140427Y205728D01*
X140698Y205474D01*
X140936Y205180D01*
X141141Y204842D01*
X141315Y204460D01*
X141457Y204034D01*
X141568Y203563D01*
X141647Y203048D01*
X141695Y202489D01*
X141710Y201885D01*
X141710Y193040D01*
X139490Y193040D01*
X139490Y201456D01*
X139474Y202075D01*
X139425Y202621D01*
X139345Y203094D01*
X139232Y203492D01*
X139084Y203829D01*
X138898Y204115D01*
X138673Y204350D01*
X138410Y204535D01*
X138261Y204610D01*
X138095Y204675D01*
X137714Y204774D01*
X137267Y204834D01*
X136754Y204854D01*
X136366Y204837D01*
X135999Y204786D01*
X135653Y204701D01*
X135328Y204581D01*
X135024Y204428D01*
X134741Y204240D01*
X134480Y204018D01*
X134239Y203762D01*
X134024Y203476D01*
X133837Y203163D01*
X133678Y202824D01*
X133549Y202459D01*
X133448Y202067D01*
X133377Y201648D01*
X133333Y201203D01*
X133319Y200732D01*
X133319Y193040D01*
G37*
G36*
X190569Y193040D02*
X188361Y193040D01*
X188361Y203480D01*
X188342Y205348D01*
X188319Y205944D01*
X188287Y206314D01*
X190373Y206314D01*
X190397Y205983D01*
X190428Y205363D01*
X190471Y204044D01*
X190508Y204044D01*
X190702Y204375D01*
X190903Y204681D01*
X191112Y204962D01*
X191328Y205218D01*
X191552Y205448D01*
X191783Y205653D01*
X192022Y205834D01*
X192268Y205989D01*
X192526Y206123D01*
X192798Y206239D01*
X193086Y206337D01*
X193389Y206417D01*
X193707Y206479D01*
X194041Y206524D01*
X194389Y206550D01*
X194752Y206559D01*
X195280Y206542D01*
X195771Y206492D01*
X196226Y206407D01*
X196643Y206288D01*
X197024Y206135D01*
X197369Y205949D01*
X197677Y205728D01*
X197948Y205474D01*
X198186Y205180D01*
X198391Y204842D01*
X198565Y204460D01*
X198707Y204034D01*
X198818Y203563D01*
X198897Y203048D01*
X198945Y202489D01*
X198960Y201885D01*
X198960Y193040D01*
X196740Y193040D01*
X196740Y201456D01*
X196724Y202075D01*
X196675Y202621D01*
X196595Y203094D01*
X196482Y203492D01*
X196334Y203829D01*
X196148Y204115D01*
X195923Y204350D01*
X195660Y204535D01*
X195511Y204610D01*
X195345Y204675D01*
X194964Y204774D01*
X194517Y204834D01*
X194004Y204854D01*
X193616Y204837D01*
X193249Y204786D01*
X192903Y204701D01*
X192578Y204581D01*
X192274Y204428D01*
X191991Y204240D01*
X191730Y204018D01*
X191489Y203762D01*
X191274Y203476D01*
X191087Y203163D01*
X190928Y202824D01*
X190799Y202459D01*
X190698Y202067D01*
X190627Y201648D01*
X190583Y201203D01*
X190569Y200732D01*
X190569Y193040D01*
G37*
G36*
X227794Y219465D02*
X227192Y219477D01*
X226626Y219516D01*
X226095Y219579D01*
X225600Y219669D01*
X225140Y219783D01*
X224715Y219924D01*
X224326Y220089D01*
X223972Y220280D01*
X223651Y220499D01*
X223359Y220746D01*
X223097Y221021D01*
X222864Y221325D01*
X222660Y221657D01*
X222485Y222018D01*
X222340Y222408D01*
X222224Y222826D01*
X224175Y223206D01*
X224255Y222948D01*
X224354Y222708D01*
X224471Y222486D01*
X224607Y222282D01*
X224762Y222095D01*
X224936Y221926D01*
X225129Y221775D01*
X225340Y221642D01*
X225572Y221526D01*
X225825Y221425D01*
X226099Y221339D01*
X226395Y221270D01*
X226713Y221215D01*
X227052Y221176D01*
X227412Y221153D01*
X227794Y221145D01*
X228200Y221153D01*
X228578Y221178D01*
X228928Y221218D01*
X229249Y221274D01*
X229543Y221347D01*
X229808Y221435D01*
X230045Y221540D01*
X230254Y221661D01*
X230436Y221797D01*
X230595Y221950D01*
X230728Y222120D01*
X230838Y222305D01*
X230923Y222506D01*
X230984Y222723D01*
X231021Y222957D01*
X231033Y223206D01*
X231024Y223398D01*
X230999Y223581D01*
X230957Y223754D01*
X230898Y223918D01*
X230822Y224073D01*
X230729Y224219D01*
X230619Y224355D01*
X230493Y224482D01*
X230348Y224602D01*
X230182Y224717D01*
X229788Y224930D01*
X229311Y225122D01*
X228751Y225292D01*
X227168Y225709D01*
X226286Y225953D01*
X225541Y226195D01*
X224934Y226435D01*
X224463Y226672D01*
X224083Y226921D01*
X223747Y227195D01*
X223455Y227494D01*
X223206Y227819D01*
X223099Y227993D01*
X223007Y228176D01*
X222929Y228368D01*
X222865Y228571D01*
X222816Y228782D01*
X222780Y229004D01*
X222759Y229235D01*
X222752Y229475D01*
X222772Y229916D01*
X222833Y230329D01*
X222934Y230716D01*
X223075Y231075D01*
X223257Y231407D01*
X223480Y231712D01*
X223743Y231991D01*
X224046Y232242D01*
X224388Y232465D01*
X224767Y232658D01*
X225183Y232821D01*
X225636Y232955D01*
X226126Y233059D01*
X226653Y233133D01*
X227217Y233178D01*
X227819Y233193D01*
X228353Y233181D01*
X228860Y233144D01*
X229339Y233084D01*
X229789Y232999D01*
X230211Y232891D01*
X230605Y232758D01*
X230971Y232601D01*
X231309Y232420D01*
X231617Y232212D01*
X231897Y231975D01*
X232146Y231709D01*
X232365Y231414D01*
X232555Y231089D01*
X232715Y230736D01*
X232846Y230353D01*
X232947Y229942D01*
X230959Y229696D01*
X230903Y229911D01*
X230828Y230112D01*
X230734Y230301D01*
X230620Y230477D01*
X230487Y230640D01*
X230335Y230790D01*
X230163Y230927D01*
X229972Y231052D01*
X229762Y231163D01*
X229536Y231258D01*
X229292Y231340D01*
X229032Y231406D01*
X228754Y231458D01*
X228459Y231495D01*
X228147Y231517D01*
X227819Y231524D01*
X227457Y231517D01*
X227119Y231496D01*
X226806Y231460D01*
X226518Y231411D01*
X226254Y231347D01*
X226015Y231269D01*
X225800Y231177D01*
X225610Y231070D01*
X225443Y230949D01*
X225299Y230814D01*
X225177Y230664D01*
X225077Y230500D01*
X224999Y230321D01*
X224943Y230127D01*
X224910Y229919D01*
X224899Y229696D01*
X224917Y229426D01*
X224972Y229181D01*
X225064Y228960D01*
X225193Y228764D01*
X225358Y228587D01*
X225558Y228423D01*
X225794Y228274D01*
X226064Y228138D01*
X226432Y227997D01*
X226960Y227831D01*
X227647Y227641D01*
X228493Y227427D01*
X229309Y227210D01*
X230002Y227002D01*
X230573Y226802D01*
X231020Y226611D01*
X231387Y226419D01*
X231712Y226217D01*
X231997Y226005D01*
X232241Y225783D01*
X232452Y225547D01*
X232638Y225294D01*
X232799Y225022D01*
X232934Y224734D01*
X233042Y224426D01*
X233118Y224097D01*
X233164Y223748D01*
X233180Y223378D01*
X233158Y222922D01*
X233091Y222493D01*
X232980Y222091D01*
X232825Y221716D01*
X232626Y221367D01*
X232383Y221046D01*
X232095Y220751D01*
X231763Y220483D01*
X231391Y220244D01*
X230983Y220037D01*
X230540Y219862D01*
X230062Y219719D01*
X229548Y219608D01*
X228999Y219528D01*
X228414Y219481D01*
X227794Y219465D01*
G37*
G36*
X133092Y139700D02*
X130761Y139700D01*
X130761Y155072D01*
X124824Y155072D01*
X124824Y156986D01*
X139030Y156986D01*
X139030Y155072D01*
X133092Y155072D01*
X133092Y139700D01*
G37*
G36*
X172186Y139700D02*
X169855Y139700D01*
X169855Y155072D01*
X163917Y155072D01*
X163917Y156986D01*
X178124Y156986D01*
X178124Y155072D01*
X172186Y155072D01*
X172186Y139700D01*
G37*
G36*
X102653Y219465D02*
X102310Y219472D01*
X101977Y219492D01*
X101655Y219527D01*
X101343Y219575D01*
X101041Y219637D01*
X100750Y219712D01*
X100469Y219802D01*
X100198Y219905D01*
X99937Y220022D01*
X99687Y220152D01*
X99447Y220297D01*
X99218Y220455D01*
X98998Y220627D01*
X98789Y220812D01*
X98591Y221012D01*
X98402Y221225D01*
X98225Y221451D01*
X98059Y221690D01*
X97904Y221942D01*
X97761Y222206D01*
X97629Y222483D01*
X97509Y222772D01*
X97400Y223074D01*
X97303Y223389D01*
X97142Y224056D01*
X97028Y224773D01*
X96959Y225541D01*
X96936Y226359D01*
X96959Y227172D01*
X97028Y227935D01*
X97143Y228648D01*
X97304Y229311D01*
X97402Y229624D01*
X97511Y229925D01*
X97632Y230214D01*
X97764Y230489D01*
X97908Y230753D01*
X98063Y231004D01*
X98230Y231243D01*
X98408Y231469D01*
X98597Y231682D01*
X98796Y231882D01*
X99005Y232067D01*
X99224Y232239D01*
X99453Y232397D01*
X99692Y232542D01*
X99941Y232672D01*
X100199Y232789D01*
X100468Y232892D01*
X100747Y232982D01*
X101036Y233057D01*
X101334Y233119D01*
X101643Y233168D01*
X101961Y233202D01*
X102290Y233223D01*
X102628Y233229D01*
X103127Y233213D01*
X103603Y233163D01*
X104058Y233081D01*
X104492Y232966D01*
X104903Y232817D01*
X105293Y232636D01*
X105662Y232422D01*
X106008Y232174D01*
X106329Y231898D01*
X106617Y231597D01*
X106875Y231271D01*
X107102Y230920D01*
X107297Y230544D01*
X107461Y230143D01*
X107594Y229717D01*
X107695Y229267D01*
X105426Y229095D01*
X105374Y229364D01*
X105307Y229619D01*
X105223Y229859D01*
X105122Y230086D01*
X105005Y230298D01*
X104871Y230496D01*
X104721Y230680D01*
X104555Y230849D01*
X104371Y231002D01*
X104168Y231134D01*
X103947Y231246D01*
X103708Y231337D01*
X103450Y231408D01*
X103174Y231459D01*
X102880Y231489D01*
X102567Y231500D01*
X102144Y231481D01*
X101751Y231427D01*
X101388Y231336D01*
X101055Y231208D01*
X100753Y231044D01*
X100481Y230844D01*
X100239Y230607D01*
X100028Y230334D01*
X99844Y230018D01*
X99684Y229652D01*
X99549Y229236D01*
X99439Y228770D01*
X99353Y228254D01*
X99292Y227689D01*
X99255Y227074D01*
X99242Y226408D01*
X99256Y225767D01*
X99295Y225169D01*
X99360Y224614D01*
X99451Y224102D01*
X99568Y223633D01*
X99712Y223206D01*
X99881Y222823D01*
X100077Y222483D01*
X100298Y222184D01*
X100547Y221924D01*
X100821Y221705D01*
X101123Y221526D01*
X101450Y221386D01*
X101804Y221286D01*
X102185Y221227D01*
X102592Y221207D01*
X102880Y221217D01*
X103156Y221247D01*
X103421Y221296D01*
X103673Y221366D01*
X103913Y221456D01*
X104141Y221566D01*
X104357Y221695D01*
X104561Y221845D01*
X104749Y222015D01*
X104918Y222207D01*
X105069Y222420D01*
X105200Y222654D01*
X105313Y222910D01*
X105406Y223188D01*
X105480Y223487D01*
X105536Y223808D01*
X107769Y223660D01*
X107687Y223194D01*
X107570Y222752D01*
X107419Y222334D01*
X107232Y221940D01*
X107011Y221570D01*
X106754Y221224D01*
X106463Y220903D01*
X106137Y220606D01*
X105782Y220338D01*
X105404Y220106D01*
X105003Y219910D01*
X104579Y219750D01*
X104132Y219625D01*
X103662Y219536D01*
X103169Y219482D01*
X102653Y219465D01*
G37*
G36*
X65242Y139700D02*
X54164Y139700D01*
X54164Y156986D01*
X56507Y156986D01*
X56507Y141614D01*
X65242Y141614D01*
X65242Y139700D01*
G37*
G36*
X218367Y139700D02*
X207289Y139700D01*
X207289Y156986D01*
X209632Y156986D01*
X209632Y141614D01*
X218367Y141614D01*
X218367Y139700D01*
G37*
G36*
X79464Y86164D02*
X79143Y86175D01*
X78843Y86211D01*
X78563Y86269D01*
X78304Y86352D01*
X78066Y86457D01*
X77849Y86586D01*
X77652Y86739D01*
X77476Y86915D01*
X77321Y87115D01*
X77186Y87338D01*
X77073Y87584D01*
X76979Y87854D01*
X76907Y88148D01*
X76855Y88465D01*
X76824Y88805D01*
X76814Y89169D01*
X76814Y98027D01*
X75280Y98027D01*
X75280Y99634D01*
X76900Y99634D01*
X77550Y102603D01*
X79022Y102603D01*
X79022Y99634D01*
X81476Y99634D01*
X81476Y98027D01*
X79022Y98027D01*
X79022Y89648D01*
X79042Y89205D01*
X79100Y88834D01*
X79144Y88675D01*
X79198Y88533D01*
X79262Y88410D01*
X79335Y88304D01*
X79420Y88214D01*
X79520Y88135D01*
X79634Y88069D01*
X79763Y88015D01*
X79906Y87972D01*
X80063Y87942D01*
X80235Y87924D01*
X80421Y87918D01*
X80666Y87929D01*
X80960Y87961D01*
X81697Y88090D01*
X81697Y86458D01*
X81148Y86329D01*
X80592Y86237D01*
X80031Y86182D01*
X79464Y86164D01*
G37*
G36*
X132557Y219514D02*
X132237Y219525D01*
X131936Y219561D01*
X131657Y219619D01*
X131398Y219702D01*
X131160Y219807D01*
X130943Y219936D01*
X130746Y220089D01*
X130570Y220265D01*
X130415Y220465D01*
X130280Y220688D01*
X130166Y220934D01*
X130073Y221204D01*
X130001Y221498D01*
X129949Y221815D01*
X129918Y222155D01*
X129908Y222519D01*
X129908Y231377D01*
X128374Y231377D01*
X128374Y232984D01*
X129993Y232984D01*
X130644Y235953D01*
X132116Y235953D01*
X132116Y232984D01*
X134569Y232984D01*
X134569Y231377D01*
X132116Y231377D01*
X132116Y222998D01*
X132135Y222555D01*
X132194Y222184D01*
X132238Y222025D01*
X132292Y221883D01*
X132355Y221760D01*
X132429Y221654D01*
X132514Y221564D01*
X132614Y221485D01*
X132728Y221419D01*
X132857Y221365D01*
X132999Y221322D01*
X133157Y221292D01*
X133328Y221274D01*
X133514Y221268D01*
X133760Y221279D01*
X134054Y221311D01*
X134790Y221440D01*
X134790Y219808D01*
X134241Y219679D01*
X133686Y219587D01*
X133125Y219532D01*
X132557Y219514D01*
G37*
G36*
X150682Y86164D02*
X150362Y86175D01*
X150061Y86211D01*
X149782Y86269D01*
X149523Y86352D01*
X149285Y86457D01*
X149068Y86586D01*
X148871Y86739D01*
X148695Y86915D01*
X148540Y87115D01*
X148405Y87338D01*
X148291Y87584D01*
X148198Y87854D01*
X148126Y88148D01*
X148074Y88465D01*
X148043Y88805D01*
X148033Y89169D01*
X148033Y98027D01*
X146499Y98027D01*
X146499Y99634D01*
X148118Y99634D01*
X148769Y102603D01*
X150241Y102603D01*
X150241Y99634D01*
X152694Y99634D01*
X152694Y98027D01*
X150241Y98027D01*
X150241Y89648D01*
X150260Y89205D01*
X150319Y88834D01*
X150363Y88675D01*
X150417Y88533D01*
X150480Y88410D01*
X150554Y88304D01*
X150639Y88214D01*
X150739Y88135D01*
X150853Y88069D01*
X150982Y88015D01*
X151124Y87972D01*
X151282Y87942D01*
X151453Y87924D01*
X151639Y87918D01*
X151885Y87929D01*
X152179Y87961D01*
X152915Y88090D01*
X152915Y86458D01*
X152366Y86329D01*
X151811Y86237D01*
X151250Y86182D01*
X150682Y86164D01*
G37*
G36*
X156276Y166174D02*
X155955Y166185D01*
X155655Y166221D01*
X155376Y166279D01*
X155117Y166362D01*
X154879Y166467D01*
X154661Y166596D01*
X154465Y166749D01*
X154289Y166925D01*
X154134Y167125D01*
X153999Y167348D01*
X153885Y167594D01*
X153792Y167864D01*
X153719Y168158D01*
X153668Y168475D01*
X153637Y168815D01*
X153626Y169179D01*
X153626Y178037D01*
X152093Y178037D01*
X152093Y179644D01*
X153712Y179644D01*
X154362Y182613D01*
X155835Y182613D01*
X155835Y179644D01*
X158288Y179644D01*
X158288Y178037D01*
X155835Y178037D01*
X155835Y169658D01*
X155854Y169215D01*
X155913Y168844D01*
X155957Y168685D01*
X156011Y168543D01*
X156074Y168420D01*
X156147Y168314D01*
X156233Y168224D01*
X156333Y168145D01*
X156447Y168079D01*
X156575Y168025D01*
X156718Y167982D01*
X156875Y167952D01*
X157047Y167934D01*
X157233Y167928D01*
X157478Y167939D01*
X157773Y167971D01*
X158509Y168100D01*
X158509Y166468D01*
X157960Y166339D01*
X157405Y166247D01*
X156844Y166192D01*
X156276Y166174D01*
G37*
G36*
X170245Y219514D02*
X169924Y219525D01*
X169624Y219561D01*
X169344Y219619D01*
X169086Y219702D01*
X168848Y219807D01*
X168630Y219936D01*
X168434Y220089D01*
X168258Y220265D01*
X168102Y220465D01*
X167968Y220688D01*
X167854Y220934D01*
X167761Y221204D01*
X167688Y221498D01*
X167636Y221815D01*
X167605Y222155D01*
X167595Y222519D01*
X167595Y231377D01*
X166062Y231377D01*
X166062Y232984D01*
X167681Y232984D01*
X168331Y235953D01*
X169803Y235953D01*
X169803Y232984D01*
X172257Y232984D01*
X172257Y231377D01*
X169803Y231377D01*
X169803Y222998D01*
X169823Y222555D01*
X169882Y222184D01*
X169926Y222025D01*
X169979Y221883D01*
X170043Y221760D01*
X170116Y221654D01*
X170202Y221564D01*
X170301Y221485D01*
X170415Y221419D01*
X170544Y221365D01*
X170687Y221322D01*
X170844Y221292D01*
X171016Y221274D01*
X171202Y221268D01*
X171447Y221279D01*
X171742Y221311D01*
X172478Y221440D01*
X172478Y219808D01*
X171929Y219679D01*
X171374Y219587D01*
X170812Y219532D01*
X170245Y219514D01*
G37*
G36*
X221901Y86164D02*
X221580Y86175D01*
X221280Y86211D01*
X221001Y86269D01*
X220742Y86352D01*
X220504Y86457D01*
X220286Y86586D01*
X220090Y86739D01*
X219914Y86915D01*
X219759Y87115D01*
X219624Y87338D01*
X219510Y87584D01*
X219417Y87854D01*
X219344Y88148D01*
X219293Y88465D01*
X219262Y88805D01*
X219251Y89169D01*
X219251Y98027D01*
X217718Y98027D01*
X217718Y99634D01*
X219337Y99634D01*
X219987Y102603D01*
X221460Y102603D01*
X221460Y99634D01*
X223913Y99634D01*
X223913Y98027D01*
X221460Y98027D01*
X221460Y89648D01*
X221479Y89205D01*
X221538Y88834D01*
X221582Y88675D01*
X221636Y88533D01*
X221699Y88410D01*
X221772Y88304D01*
X221858Y88214D01*
X221958Y88135D01*
X222072Y88069D01*
X222200Y88015D01*
X222343Y87972D01*
X222500Y87942D01*
X222672Y87924D01*
X222858Y87918D01*
X223103Y87929D01*
X223398Y87961D01*
X224134Y88090D01*
X224134Y86458D01*
X223585Y86329D01*
X223030Y86237D01*
X222469Y86182D01*
X221901Y86164D01*
G37*
G36*
X229354Y139504D02*
X229033Y139515D01*
X228733Y139551D01*
X228454Y139609D01*
X228195Y139692D01*
X227957Y139797D01*
X227740Y139926D01*
X227543Y140079D01*
X227367Y140255D01*
X227212Y140455D01*
X227077Y140678D01*
X226963Y140924D01*
X226870Y141194D01*
X226798Y141488D01*
X226746Y141805D01*
X226715Y142145D01*
X226704Y142509D01*
X226704Y151367D01*
X225171Y151367D01*
X225171Y152974D01*
X226790Y152974D01*
X227441Y155943D01*
X228913Y155943D01*
X228913Y152974D01*
X231366Y152974D01*
X231366Y151367D01*
X228913Y151367D01*
X228913Y142988D01*
X228932Y142545D01*
X228991Y142174D01*
X229035Y142015D01*
X229089Y141873D01*
X229152Y141750D01*
X229226Y141644D01*
X229311Y141554D01*
X229411Y141475D01*
X229525Y141409D01*
X229653Y141355D01*
X229796Y141312D01*
X229954Y141282D01*
X230125Y141264D01*
X230311Y141258D01*
X230557Y141269D01*
X230851Y141301D01*
X231587Y141430D01*
X231587Y139798D01*
X231038Y139669D01*
X230483Y139577D01*
X229922Y139522D01*
X229354Y139504D01*
G37*
G36*
X75567Y139700D02*
X73359Y139700D01*
X73359Y157906D01*
X75567Y157906D01*
X75567Y139700D01*
G37*
G36*
X161207Y193040D02*
X158999Y193040D01*
X158999Y211246D01*
X161207Y211246D01*
X161207Y193040D01*
G37*
G36*
X91444Y219710D02*
X89236Y219710D01*
X89236Y229892D01*
X89217Y231365D01*
X89162Y232984D01*
X91248Y232984D01*
X91321Y231178D01*
X91346Y230273D01*
X91395Y230273D01*
X91529Y230682D01*
X91669Y231058D01*
X91813Y231400D01*
X91962Y231708D01*
X92117Y231983D01*
X92276Y232223D01*
X92440Y232430D01*
X92610Y232604D01*
X92790Y232750D01*
X92988Y232877D01*
X93204Y232985D01*
X93438Y233073D01*
X93689Y233141D01*
X93957Y233190D01*
X94244Y233220D01*
X94548Y233229D01*
X94769Y233222D01*
X94993Y233199D01*
X95217Y233160D01*
X95443Y233107D01*
X95443Y231082D01*
X95204Y231136D01*
X94928Y231175D01*
X94615Y231198D01*
X94266Y231205D01*
X93932Y231187D01*
X93619Y231131D01*
X93327Y231039D01*
X93054Y230909D01*
X92802Y230743D01*
X92570Y230539D01*
X92359Y230299D01*
X92168Y230021D01*
X91998Y229709D01*
X91851Y229365D01*
X91727Y228989D01*
X91625Y228581D01*
X91546Y228141D01*
X91489Y227669D01*
X91455Y227165D01*
X91444Y226629D01*
X91444Y219710D01*
G37*
G36*
X113757Y86360D02*
X111548Y86360D01*
X111548Y96542D01*
X111530Y98015D01*
X111475Y99634D01*
X113560Y99634D01*
X113634Y97828D01*
X113658Y96923D01*
X113707Y96923D01*
X113842Y97332D01*
X113981Y97708D01*
X114126Y98050D01*
X114275Y98358D01*
X114429Y98633D01*
X114588Y98873D01*
X114753Y99080D01*
X114922Y99254D01*
X115103Y99400D01*
X115301Y99527D01*
X115517Y99635D01*
X115750Y99723D01*
X116001Y99791D01*
X116270Y99840D01*
X116556Y99870D01*
X116860Y99879D01*
X117082Y99872D01*
X117305Y99849D01*
X117530Y99810D01*
X117756Y99757D01*
X117756Y97732D01*
X117517Y97786D01*
X117241Y97825D01*
X116928Y97848D01*
X116578Y97855D01*
X116245Y97837D01*
X115932Y97781D01*
X115639Y97689D01*
X115367Y97559D01*
X115115Y97393D01*
X114883Y97189D01*
X114671Y96949D01*
X114480Y96671D01*
X114311Y96359D01*
X114164Y96015D01*
X114039Y95639D01*
X113938Y95231D01*
X113858Y94791D01*
X113802Y94319D01*
X113768Y93815D01*
X113757Y93279D01*
X113757Y86360D01*
G37*
G36*
X176600Y166370D02*
X174392Y166370D01*
X174392Y176552D01*
X174374Y178025D01*
X174318Y179644D01*
X176404Y179644D01*
X176478Y177838D01*
X176502Y176933D01*
X176551Y176933D01*
X176686Y177342D01*
X176825Y177718D01*
X176969Y178060D01*
X177119Y178368D01*
X177273Y178643D01*
X177432Y178883D01*
X177597Y179090D01*
X177766Y179264D01*
X177946Y179410D01*
X178145Y179537D01*
X178360Y179645D01*
X178594Y179733D01*
X178845Y179801D01*
X179114Y179850D01*
X179400Y179880D01*
X179704Y179889D01*
X179926Y179882D01*
X180149Y179859D01*
X180374Y179820D01*
X180600Y179767D01*
X180600Y177742D01*
X180360Y177796D01*
X180084Y177835D01*
X179772Y177858D01*
X179422Y177865D01*
X179089Y177847D01*
X178776Y177791D01*
X178483Y177699D01*
X178211Y177569D01*
X177958Y177403D01*
X177727Y177199D01*
X177515Y176959D01*
X177324Y176681D01*
X177154Y176369D01*
X177007Y176025D01*
X176883Y175649D01*
X176781Y175241D01*
X176702Y174801D01*
X176646Y174329D01*
X176612Y173825D01*
X176600Y173289D01*
X176600Y166370D01*
G37*
G36*
X218507Y193040D02*
X216298Y193040D01*
X216298Y203222D01*
X216280Y204695D01*
X216225Y206314D01*
X218310Y206314D01*
X218384Y204508D01*
X218408Y203603D01*
X218457Y203603D01*
X218592Y204012D01*
X218731Y204388D01*
X218876Y204730D01*
X219025Y205038D01*
X219179Y205313D01*
X219338Y205553D01*
X219503Y205760D01*
X219672Y205934D01*
X219853Y206080D01*
X220051Y206207D01*
X220267Y206315D01*
X220500Y206403D01*
X220751Y206471D01*
X221020Y206520D01*
X221306Y206550D01*
X221610Y206559D01*
X221832Y206552D01*
X222055Y206529D01*
X222280Y206490D01*
X222506Y206437D01*
X222506Y204412D01*
X222267Y204466D01*
X221991Y204505D01*
X221678Y204528D01*
X221328Y204535D01*
X220995Y204517D01*
X220682Y204461D01*
X220389Y204369D01*
X220117Y204239D01*
X219865Y204073D01*
X219633Y203869D01*
X219421Y203629D01*
X219230Y203351D01*
X219061Y203039D01*
X218914Y202695D01*
X218789Y202319D01*
X218688Y201911D01*
X218608Y201471D01*
X218552Y200999D01*
X218518Y200495D01*
X218507Y199959D01*
X218507Y193040D01*
G37*
G36*
X242225Y86360D02*
X240017Y86360D01*
X240017Y96542D01*
X239999Y98015D01*
X239943Y99634D01*
X242029Y99634D01*
X242103Y97828D01*
X242127Y96923D01*
X242176Y96923D01*
X242311Y97332D01*
X242450Y97708D01*
X242594Y98050D01*
X242744Y98358D01*
X242898Y98633D01*
X243057Y98873D01*
X243222Y99080D01*
X243391Y99254D01*
X243571Y99400D01*
X243770Y99527D01*
X243985Y99635D01*
X244219Y99723D01*
X244470Y99791D01*
X244739Y99840D01*
X245025Y99870D01*
X245329Y99879D01*
X245551Y99872D01*
X245774Y99849D01*
X245999Y99810D01*
X246225Y99757D01*
X246225Y97732D01*
X245985Y97786D01*
X245709Y97825D01*
X245397Y97848D01*
X245047Y97855D01*
X244714Y97837D01*
X244401Y97781D01*
X244108Y97689D01*
X243836Y97559D01*
X243583Y97393D01*
X243352Y97189D01*
X243140Y96949D01*
X242949Y96671D01*
X242779Y96359D01*
X242632Y96015D01*
X242508Y95639D01*
X242406Y95231D01*
X242327Y94791D01*
X242271Y94319D01*
X242237Y93815D01*
X242225Y93279D01*
X242225Y86360D01*
G37*
G36*
X69961Y139700D02*
X67753Y139700D01*
X67753Y152974D01*
X69961Y152974D01*
X69961Y139700D01*
G37*
G36*
X85789Y219710D02*
X83581Y219710D01*
X83581Y232984D01*
X85789Y232984D01*
X85789Y219710D01*
G37*
G36*
X126289Y219710D02*
X124081Y219710D01*
X124081Y232984D01*
X126289Y232984D01*
X126289Y219710D01*
G37*
G36*
X223086Y139700D02*
X220878Y139700D01*
X220878Y152974D01*
X223086Y152974D01*
X223086Y139700D01*
G37*
G36*
X145479Y145392D02*
X139345Y145392D01*
X139345Y147355D01*
X145479Y147355D01*
X145479Y145392D01*
G37*
G36*
X179197Y118722D02*
X173063Y118722D01*
X173063Y120685D01*
X179197Y120685D01*
X179197Y118722D01*
G37*
G36*
X204104Y145392D02*
X197970Y145392D01*
X197970Y147355D01*
X204104Y147355D01*
X204104Y145392D01*
G37*
G36*
X205274Y219710D02*
X202882Y219710D01*
X202882Y222397D01*
X205274Y222397D01*
X205274Y219710D01*
G37*
G36*
X69961Y155796D02*
X67753Y155796D01*
X67753Y157906D01*
X69961Y157906D01*
X69961Y155796D01*
G37*
G36*
X85789Y235806D02*
X83581Y235806D01*
X83581Y237916D01*
X85789Y237916D01*
X85789Y235806D01*
G37*
G36*
X126289Y235806D02*
X124081Y235806D01*
X124081Y237916D01*
X126289Y237916D01*
X126289Y235806D01*
G37*
G36*
X223086Y155796D02*
X220878Y155796D01*
X220878Y157906D01*
X223086Y157906D01*
X223086Y155796D01*
G37*
G36*
X53261Y425275D02*
X52804Y425288D01*
X52371Y425328D01*
X51962Y425394D01*
X51576Y425486D01*
X51214Y425605D01*
X50876Y425750D01*
X50561Y425922D01*
X50270Y426120D01*
X50005Y426344D01*
X49768Y426593D01*
X49560Y426868D01*
X49380Y427168D01*
X49228Y427493D01*
X49105Y427844D01*
X49010Y428219D01*
X48943Y428621D01*
X50572Y428769D01*
X50620Y428504D01*
X50683Y428256D01*
X50763Y428025D01*
X50859Y427812D01*
X50970Y427615D01*
X51098Y427435D01*
X51242Y427273D01*
X51402Y427127D01*
X51578Y426999D01*
X51770Y426888D01*
X51979Y426794D01*
X52203Y426717D01*
X52443Y426657D01*
X52700Y426614D01*
X52972Y426588D01*
X53261Y426580D01*
X53551Y426589D01*
X53825Y426617D01*
X54082Y426662D01*
X54324Y426727D01*
X54550Y426809D01*
X54760Y426910D01*
X54953Y427029D01*
X55131Y427167D01*
X55290Y427322D01*
X55428Y427496D01*
X55545Y427687D01*
X55640Y427896D01*
X55714Y428123D01*
X55767Y428367D01*
X55799Y428629D01*
X55810Y428910D01*
X55798Y429155D01*
X55761Y429386D01*
X55701Y429603D01*
X55616Y429806D01*
X55507Y429996D01*
X55374Y430172D01*
X55216Y430334D01*
X55035Y430482D01*
X54830Y430614D01*
X54604Y430729D01*
X54357Y430826D01*
X54088Y430905D01*
X53797Y430967D01*
X53485Y431011D01*
X53152Y431038D01*
X52797Y431047D01*
X51904Y431047D01*
X51904Y432413D01*
X52762Y432413D01*
X53077Y432422D01*
X53374Y432448D01*
X53652Y432492D01*
X53913Y432554D01*
X54155Y432634D01*
X54379Y432731D01*
X54584Y432846D01*
X54772Y432978D01*
X54939Y433126D01*
X55084Y433288D01*
X55207Y433463D01*
X55307Y433651D01*
X55385Y433853D01*
X55441Y434069D01*
X55475Y434299D01*
X55486Y434541D01*
X55477Y434782D01*
X55449Y435010D01*
X55404Y435225D01*
X55340Y435427D01*
X55258Y435616D01*
X55158Y435792D01*
X55040Y435955D01*
X54903Y436105D01*
X54749Y436239D01*
X54577Y436356D01*
X54387Y436454D01*
X54180Y436535D01*
X53955Y436598D01*
X53712Y436643D01*
X53452Y436669D01*
X53174Y436678D01*
X52919Y436670D01*
X52677Y436645D01*
X52448Y436603D01*
X52231Y436545D01*
X52026Y436470D01*
X51834Y436378D01*
X51655Y436269D01*
X51488Y436144D01*
X51335Y436004D01*
X51199Y435850D01*
X51080Y435682D01*
X50978Y435500D01*
X50893Y435305D01*
X50825Y435096D01*
X50773Y434874D01*
X50739Y434638D01*
X49153Y434760D01*
X49211Y435129D01*
X49298Y435476D01*
X49412Y435803D01*
X49555Y436109D01*
X49726Y436394D01*
X49926Y436659D01*
X50154Y436902D01*
X50410Y437125D01*
X50690Y437324D01*
X50990Y437497D01*
X51308Y437643D01*
X51646Y437762D01*
X52004Y437855D01*
X52380Y437922D01*
X52776Y437961D01*
X53191Y437975D01*
X53642Y437961D01*
X54068Y437921D01*
X54467Y437853D01*
X54841Y437759D01*
X55189Y437638D01*
X55511Y437489D01*
X55807Y437314D01*
X56077Y437112D01*
X56318Y436886D01*
X56527Y436638D01*
X56704Y436370D01*
X56849Y436080D01*
X56961Y435768D01*
X57042Y435436D01*
X57090Y435083D01*
X57106Y434708D01*
X57096Y434419D01*
X57065Y434144D01*
X57013Y433883D01*
X56941Y433636D01*
X56848Y433403D01*
X56734Y433183D01*
X56600Y432977D01*
X56445Y432785D01*
X56270Y432608D01*
X56077Y432445D01*
X55865Y432297D01*
X55634Y432165D01*
X55384Y432047D01*
X55115Y431944D01*
X54828Y431856D01*
X54522Y431782D01*
X54522Y431747D01*
X54859Y431700D01*
X55176Y431634D01*
X55474Y431547D01*
X55753Y431441D01*
X56013Y431315D01*
X56253Y431169D01*
X56475Y431004D01*
X56677Y430819D01*
X56858Y430618D01*
X57014Y430404D01*
X57147Y430178D01*
X57255Y429939D01*
X57339Y429687D01*
X57400Y429423D01*
X57436Y429146D01*
X57448Y428857D01*
X57431Y428442D01*
X57380Y428051D01*
X57295Y427685D01*
X57176Y427342D01*
X57023Y427023D01*
X56837Y426729D01*
X56616Y426458D01*
X56362Y426212D01*
X56076Y425992D01*
X55761Y425802D01*
X55417Y425641D01*
X55043Y425509D01*
X54641Y425407D01*
X54210Y425333D01*
X53750Y425290D01*
X53261Y425275D01*
G37*
G36*
X72199Y425275D02*
X71742Y425288D01*
X71309Y425328D01*
X70899Y425394D01*
X70514Y425486D01*
X70152Y425605D01*
X69813Y425750D01*
X69499Y425922D01*
X69208Y426120D01*
X68943Y426344D01*
X68706Y426593D01*
X68498Y426868D01*
X68317Y427168D01*
X68166Y427493D01*
X68042Y427844D01*
X67947Y428219D01*
X67881Y428621D01*
X69510Y428769D01*
X69557Y428504D01*
X69621Y428256D01*
X69700Y428025D01*
X69796Y427812D01*
X69908Y427615D01*
X70036Y427435D01*
X70180Y427273D01*
X70340Y427127D01*
X70516Y426999D01*
X70708Y426888D01*
X70916Y426794D01*
X71140Y426717D01*
X71381Y426657D01*
X71637Y426614D01*
X71910Y426588D01*
X72199Y426580D01*
X72488Y426589D01*
X72762Y426617D01*
X73020Y426662D01*
X73262Y426727D01*
X73487Y426809D01*
X73697Y426910D01*
X73891Y427029D01*
X74069Y427167D01*
X74228Y427322D01*
X74366Y427496D01*
X74482Y427687D01*
X74578Y427896D01*
X74652Y428123D01*
X74705Y428367D01*
X74737Y428629D01*
X74747Y428910D01*
X74735Y429155D01*
X74699Y429386D01*
X74638Y429603D01*
X74554Y429806D01*
X74445Y429996D01*
X74311Y430172D01*
X74154Y430334D01*
X73972Y430482D01*
X73768Y430614D01*
X73542Y430729D01*
X73294Y430826D01*
X73025Y430905D01*
X72735Y430967D01*
X72423Y431011D01*
X72089Y431038D01*
X71734Y431047D01*
X70841Y431047D01*
X70841Y432413D01*
X71699Y432413D01*
X72014Y432422D01*
X72311Y432448D01*
X72590Y432492D01*
X72850Y432554D01*
X73092Y432634D01*
X73316Y432731D01*
X73522Y432846D01*
X73709Y432978D01*
X73877Y433126D01*
X74022Y433288D01*
X74144Y433463D01*
X74245Y433651D01*
X74323Y433853D01*
X74379Y434069D01*
X74412Y434299D01*
X74423Y434541D01*
X74414Y434782D01*
X74387Y435010D01*
X74341Y435225D01*
X74278Y435427D01*
X74196Y435616D01*
X74096Y435792D01*
X73977Y435955D01*
X73841Y436105D01*
X73686Y436239D01*
X73514Y436356D01*
X73325Y436454D01*
X73117Y436535D01*
X72892Y436598D01*
X72649Y436643D01*
X72389Y436669D01*
X72111Y436678D01*
X71857Y436670D01*
X71615Y436645D01*
X71385Y436603D01*
X71168Y436545D01*
X70964Y436470D01*
X70772Y436378D01*
X70592Y436269D01*
X70425Y436144D01*
X70273Y436004D01*
X70137Y435850D01*
X70018Y435682D01*
X69916Y435500D01*
X69831Y435305D01*
X69762Y435096D01*
X69711Y434874D01*
X69676Y434638D01*
X68091Y434760D01*
X68149Y435129D01*
X68235Y435476D01*
X68350Y435803D01*
X68493Y436109D01*
X68664Y436394D01*
X68864Y436659D01*
X69091Y436902D01*
X69348Y437125D01*
X69628Y437324D01*
X69927Y437497D01*
X70246Y437643D01*
X70584Y437762D01*
X70941Y437855D01*
X71318Y437922D01*
X71713Y437961D01*
X72129Y437975D01*
X72580Y437961D01*
X73005Y437921D01*
X73405Y437853D01*
X73778Y437759D01*
X74126Y437638D01*
X74448Y437489D01*
X74744Y437314D01*
X75015Y437112D01*
X75256Y436886D01*
X75465Y436638D01*
X75642Y436370D01*
X75786Y436080D01*
X75899Y435768D01*
X75979Y435436D01*
X76028Y435083D01*
X76044Y434708D01*
X76033Y434419D01*
X76002Y434144D01*
X75951Y433883D01*
X75878Y433636D01*
X75785Y433403D01*
X75672Y433183D01*
X75537Y432977D01*
X75382Y432785D01*
X75208Y432608D01*
X75014Y432445D01*
X74802Y432297D01*
X74571Y432165D01*
X74321Y432047D01*
X74053Y431944D01*
X73766Y431856D01*
X73460Y431782D01*
X73460Y431747D01*
X73796Y431700D01*
X74113Y431634D01*
X74412Y431547D01*
X74690Y431441D01*
X74950Y431315D01*
X75191Y431169D01*
X75412Y431004D01*
X75614Y430819D01*
X75795Y430618D01*
X75952Y430404D01*
X76084Y430178D01*
X76193Y429939D01*
X76277Y429687D01*
X76337Y429423D01*
X76373Y429146D01*
X76385Y428857D01*
X76368Y428442D01*
X76317Y428051D01*
X76232Y427685D01*
X76114Y427342D01*
X75961Y427023D01*
X75774Y426729D01*
X75554Y426458D01*
X75299Y426212D01*
X75013Y425992D01*
X74698Y425802D01*
X74354Y425641D01*
X73981Y425509D01*
X73579Y425407D01*
X73148Y425333D01*
X72688Y425290D01*
X72199Y425275D01*
G37*
G36*
X63598Y425450D02*
X61732Y425450D01*
X58290Y434927D01*
X59972Y434927D01*
X62056Y428761D01*
X62661Y426685D01*
X62967Y427710D01*
X63309Y428743D01*
X65463Y434927D01*
X67136Y434927D01*
X63598Y425450D01*
G37*
D10*
X86360Y257810D02*
X86360Y436880D01*
X248920Y436880D01*
X248920Y257810D01*
X86360Y257810D01*
D11*
X25400Y474509D02*
X25366Y475195D01*
X25349Y475883D01*
X25349Y476570D01*
X25365Y477258D01*
X25399Y477944D01*
X25449Y478630D01*
X25515Y479314D01*
X25599Y479997D01*
X25699Y480677D01*
X25815Y481355D01*
X25948Y482029D01*
X26098Y482700D01*
X26264Y483368D01*
X26446Y484031D01*
X26644Y484689D01*
X26858Y485342D01*
X27088Y485990D01*
X27334Y486633D01*
X27595Y487269D01*
X27872Y487898D01*
X28164Y488520D01*
X28471Y489136D01*
X28793Y489743D01*
X29129Y490342D01*
X29481Y490933D01*
X29846Y491516D01*
X30226Y492089D01*
X30620Y492653D01*
X31027Y493207D01*
X31447Y493751D01*
X31881Y494284D01*
X32328Y494807D01*
X32787Y495319D01*
X33258Y495819D01*
X33742Y496308D01*
X34237Y496785D01*
X34744Y497249D01*
X35262Y497701D01*
X35791Y498140D01*
X36331Y498567D01*
X36880Y498980D01*
X37440Y499379D01*
X38009Y499765D01*
X38588Y500136D01*
X39175Y500494D01*
X39771Y500837D01*
X40375Y501165D01*
X40987Y501479D01*
X41606Y501777D01*
X42232Y502061D01*
X42866Y502329D01*
X43505Y502581D01*
X44151Y502818D01*
X44802Y503039D01*
X45458Y503244D01*
X46119Y503433D01*
X46785Y503606D01*
X47454Y503762D01*
X48127Y503902D01*
X48803Y504026D01*
X49483Y504133D01*
X50164Y504224D01*
X50848Y504298D01*
X51533Y504355D01*
X52219Y504395D01*
X52906Y504419D01*
X53594Y504426D01*
X54281Y504416D01*
X276332Y504415D02*
X276933Y504453D01*
X277534Y504475D01*
X278137Y504483D01*
X278739Y504476D01*
X279340Y504455D01*
X279942Y504419D01*
X280542Y504368D01*
X281140Y504302D01*
X281737Y504222D01*
X282332Y504128D01*
X282924Y504019D01*
X283513Y503896D01*
X284100Y503758D01*
X284682Y503606D01*
X285261Y503440D01*
X285836Y503260D01*
X286406Y503065D01*
X286971Y502858D01*
X287531Y502636D01*
X288085Y502401D01*
X288633Y502152D01*
X289176Y501890D01*
X289711Y501615D01*
X290240Y501327D01*
X290762Y501026D01*
X291276Y500712D01*
X291782Y500386D01*
X292280Y500048D01*
X292770Y499698D01*
X293251Y499336D01*
X293724Y498962D01*
X294186Y498577D01*
X294640Y498181D01*
X295083Y497773D01*
X295517Y497356D01*
X295940Y496927D01*
X296353Y496489D01*
X296755Y496040D01*
X297146Y495582D01*
X297525Y495115D01*
X297893Y494638D01*
X298250Y494153D01*
X298594Y493659D01*
X298926Y493156D01*
X299246Y492646D01*
X299553Y492128D01*
X299848Y491603D01*
X300130Y491071D01*
X300398Y490532D01*
X300654Y489987D01*
X300896Y489435D01*
X301125Y488878D01*
X301339Y488316D01*
X301541Y487748D01*
X301728Y487176D01*
X301901Y486599D01*
X302060Y486018D01*
X302205Y485434D01*
X302336Y484846D01*
X302452Y484255D01*
X302554Y483662D01*
X302641Y483066D01*
X302714Y482468D01*
X302773Y481869D01*
X302816Y481268D01*
X302845Y480667D01*
X302859Y480065D01*
X302859Y479463D01*
X302844Y478861D01*
X302814Y478259D01*
X276332Y504416D02*
X54281Y504416D01*
X302814Y478260D02*
X302814Y5D01*
X302819Y0D01*
X25400Y0D02*
X25400Y474508D01*
D12*
X25400Y44450D02*
X25400Y31750D01*
X19050Y25400D01*
X6350Y25400D01*
X0Y31750D01*
X25400Y69850D02*
X19050Y76200D01*
X25400Y69850D02*
X25400Y57150D01*
X19050Y50800D01*
X6350Y50800D01*
X0Y57150D01*
X0Y69850D01*
X6350Y76200D01*
X19050Y50800D02*
X25400Y44450D01*
X6350Y50800D02*
X0Y44450D01*
X0Y31750D01*
X25400Y107950D02*
X25400Y120650D01*
X25400Y107950D02*
X19050Y101600D01*
X6350Y101600D01*
X0Y107950D01*
X19050Y101600D02*
X25400Y95250D01*
X25400Y82550D01*
X19050Y76200D01*
X6350Y76200D01*
X0Y82550D01*
X0Y95250D01*
X6350Y101600D01*
X25400Y146050D02*
X19050Y152400D01*
X25400Y146050D02*
X25400Y133350D01*
X19050Y127000D01*
X6350Y127000D01*
X0Y133350D01*
X0Y146050D01*
X6350Y152400D01*
X19050Y127000D02*
X25400Y120650D01*
X6350Y127000D02*
X0Y120650D01*
X0Y107950D01*
X25400Y184150D02*
X25400Y196850D01*
X25400Y184150D02*
X19050Y177800D01*
X6350Y177800D01*
X0Y184150D01*
X19050Y177800D02*
X25400Y171450D01*
X25400Y158750D01*
X19050Y152400D01*
X6350Y152400D01*
X0Y158750D01*
X0Y171450D01*
X6350Y177800D01*
X25400Y222250D02*
X19050Y228600D01*
X25400Y222250D02*
X25400Y209550D01*
X19050Y203200D01*
X6350Y203200D01*
X0Y209550D01*
X0Y222250D01*
X6350Y228600D01*
X19050Y203200D02*
X25400Y196850D01*
X6350Y203200D02*
X0Y196850D01*
X0Y184150D01*
X25400Y260350D02*
X25400Y273050D01*
X25400Y260350D02*
X19050Y254000D01*
X6350Y254000D01*
X0Y260350D01*
X19050Y254000D02*
X25400Y247650D01*
X25400Y234950D01*
X19050Y228600D01*
X6350Y228600D01*
X0Y234950D01*
X0Y247650D01*
X6350Y254000D01*
X25400Y298450D02*
X19050Y304800D01*
X25400Y298450D02*
X25400Y285750D01*
X19050Y279400D01*
X6350Y279400D01*
X0Y285750D01*
X0Y298450D01*
X6350Y304800D01*
X19050Y279400D02*
X25400Y273050D01*
X6350Y279400D02*
X0Y273050D01*
X0Y260350D01*
X25400Y336550D02*
X25400Y349250D01*
X25400Y336550D02*
X19050Y330200D01*
X6350Y330200D01*
X0Y336550D01*
X19050Y330200D02*
X25400Y323850D01*
X25400Y311150D01*
X19050Y304800D01*
X6350Y304800D01*
X0Y311150D01*
X0Y323850D01*
X6350Y330200D01*
X25400Y374650D02*
X19050Y381000D01*
X25400Y374650D02*
X25400Y361950D01*
X19050Y355600D01*
X6350Y355600D01*
X0Y361950D01*
X0Y374650D01*
X6350Y381000D01*
X19050Y355600D02*
X25400Y349250D01*
X6350Y355600D02*
X0Y349250D01*
X0Y336550D01*
X25400Y412750D02*
X25400Y425450D01*
X25400Y412750D02*
X19050Y406400D01*
X6350Y406400D01*
X0Y412750D01*
X19050Y406400D02*
X25400Y400050D01*
X25400Y387350D01*
X19050Y381000D01*
X6350Y381000D01*
X0Y387350D01*
X0Y400050D01*
X6350Y406400D01*
X25400Y450850D02*
X19050Y457200D01*
X25400Y450850D02*
X25400Y438150D01*
X19050Y431800D01*
X6350Y431800D01*
X0Y438150D01*
X0Y450850D01*
X6350Y457200D01*
X19050Y431800D02*
X25400Y425450D01*
X6350Y431800D02*
X0Y425450D01*
X0Y412750D01*
X25400Y488950D02*
X25400Y501650D01*
X25400Y488950D02*
X19050Y482600D01*
X6350Y482600D01*
X0Y488950D01*
X19050Y482600D02*
X25400Y476250D01*
X25400Y463550D01*
X19050Y457200D01*
X6350Y457200D01*
X0Y463550D01*
X0Y476250D01*
X6350Y482600D01*
X6350Y508000D02*
X19050Y508000D01*
X25400Y501650D01*
X6350Y508000D02*
X0Y501650D01*
X0Y488950D01*
X25400Y19050D02*
X25400Y6350D01*
X19050Y0D01*
X6350Y0D01*
X0Y6350D01*
X19050Y25400D02*
X25400Y19050D01*
X6350Y25400D02*
X0Y19050D01*
X0Y6350D01*
X279400Y31750D02*
X279400Y44450D01*
X279400Y31750D02*
X273050Y25400D01*
X260350Y25400D01*
X254000Y31750D01*
X279400Y69850D02*
X273050Y76200D01*
X279400Y69850D02*
X279400Y57150D01*
X273050Y50800D01*
X260350Y50800D01*
X254000Y57150D01*
X254000Y69850D01*
X260350Y76200D01*
X273050Y50800D02*
X279400Y44450D01*
X260350Y50800D02*
X254000Y44450D01*
X254000Y31750D01*
X279400Y107950D02*
X279400Y120650D01*
X279400Y107950D02*
X273050Y101600D01*
X260350Y101600D01*
X254000Y107950D01*
X273050Y101600D02*
X279400Y95250D01*
X279400Y82550D01*
X273050Y76200D01*
X260350Y76200D01*
X254000Y82550D01*
X254000Y95250D01*
X260350Y101600D01*
X279400Y146050D02*
X273050Y152400D01*
X279400Y146050D02*
X279400Y133350D01*
X273050Y127000D01*
X260350Y127000D01*
X254000Y133350D01*
X254000Y146050D01*
X260350Y152400D01*
X273050Y127000D02*
X279400Y120650D01*
X260350Y127000D02*
X254000Y120650D01*
X254000Y107950D01*
X279400Y184150D02*
X279400Y196850D01*
X279400Y184150D02*
X273050Y177800D01*
X260350Y177800D01*
X254000Y184150D01*
X273050Y177800D02*
X279400Y171450D01*
X279400Y158750D01*
X273050Y152400D01*
X260350Y152400D01*
X254000Y158750D01*
X254000Y171450D01*
X260350Y177800D01*
X279400Y222250D02*
X273050Y228600D01*
X279400Y222250D02*
X279400Y209550D01*
X273050Y203200D01*
X260350Y203200D01*
X254000Y209550D01*
X254000Y222250D01*
X260350Y228600D01*
X273050Y203200D02*
X279400Y196850D01*
X260350Y203200D02*
X254000Y196850D01*
X254000Y184150D01*
X279400Y260350D02*
X279400Y273050D01*
X279400Y260350D02*
X273050Y254000D01*
X260350Y254000D01*
X254000Y260350D01*
X273050Y254000D02*
X279400Y247650D01*
X279400Y234950D01*
X273050Y228600D01*
X260350Y228600D01*
X254000Y234950D01*
X254000Y247650D01*
X260350Y254000D01*
X279400Y298450D02*
X273050Y304800D01*
X279400Y298450D02*
X279400Y285750D01*
X273050Y279400D01*
X260350Y279400D01*
X254000Y285750D01*
X254000Y298450D01*
X260350Y304800D01*
X273050Y279400D02*
X279400Y273050D01*
X260350Y279400D02*
X254000Y273050D01*
X254000Y260350D01*
X279400Y336550D02*
X279400Y349250D01*
X279400Y336550D02*
X273050Y330200D01*
X260350Y330200D01*
X254000Y336550D01*
X273050Y330200D02*
X279400Y323850D01*
X279400Y311150D01*
X273050Y304800D01*
X260350Y304800D01*
X254000Y311150D01*
X254000Y323850D01*
X260350Y330200D01*
X279400Y374650D02*
X273050Y381000D01*
X279400Y374650D02*
X279400Y361950D01*
X273050Y355600D01*
X260350Y355600D01*
X254000Y361950D01*
X254000Y374650D01*
X260350Y381000D01*
X273050Y355600D02*
X279400Y349250D01*
X260350Y355600D02*
X254000Y349250D01*
X254000Y336550D01*
X279400Y412750D02*
X279400Y425450D01*
X279400Y412750D02*
X273050Y406400D01*
X260350Y406400D01*
X254000Y412750D01*
X273050Y406400D02*
X279400Y400050D01*
X279400Y387350D01*
X273050Y381000D01*
X260350Y381000D01*
X254000Y387350D01*
X254000Y400050D01*
X260350Y406400D01*
X279400Y450850D02*
X273050Y457200D01*
X279400Y450850D02*
X279400Y438150D01*
X273050Y431800D01*
X260350Y431800D01*
X254000Y438150D01*
X254000Y450850D01*
X260350Y457200D01*
X273050Y431800D02*
X279400Y425450D01*
X260350Y431800D02*
X254000Y425450D01*
X254000Y412750D01*
X279400Y488950D02*
X279400Y501650D01*
X279400Y488950D02*
X273050Y482600D01*
X260350Y482600D01*
X254000Y488950D01*
X273050Y482600D02*
X279400Y476250D01*
X279400Y463550D01*
X273050Y457200D01*
X260350Y457200D01*
X254000Y463550D01*
X254000Y476250D01*
X260350Y482600D01*
X260350Y508000D02*
X273050Y508000D01*
X279400Y501650D01*
X260350Y508000D02*
X254000Y501650D01*
X254000Y488950D01*
X279400Y19050D02*
X279400Y6350D01*
X273050Y0D01*
X260350Y0D01*
X254000Y6350D01*
X273050Y25400D02*
X279400Y19050D01*
X260350Y25400D02*
X254000Y19050D01*
X254000Y6350D01*
M02*
