G04 EAGLE Gerber RS-274X export*
G75*
%MOMM*%
%FSLAX34Y34*%
%LPD*%
%INSoldermask Top*%
%IPPOS*%
%AMOC8*
5,1,8,0,0,1.08239X$1,22.5*%
G01*
G04 Define Apertures*
%ADD10C,1.981200*%
D10*
X38100Y431800D03*
X38100Y406400D03*
X38100Y381000D03*
X38100Y355600D03*
X38100Y330200D03*
X38100Y304800D03*
X38100Y279400D03*
X38100Y254000D03*
X38100Y228600D03*
X38100Y203200D03*
X38100Y177800D03*
X38100Y152400D03*
X38100Y127000D03*
X38100Y101600D03*
X38100Y76200D03*
X292100Y431800D03*
X292100Y406400D03*
X292100Y381000D03*
X292100Y355600D03*
X292100Y330200D03*
X292100Y304800D03*
X292100Y279400D03*
X292100Y254000D03*
X292100Y228600D03*
X292100Y203200D03*
X292100Y177800D03*
X292100Y152400D03*
X292100Y127000D03*
X292100Y101600D03*
X292100Y76200D03*
X12700Y495300D03*
X12700Y469900D03*
X12700Y444500D03*
X12700Y419100D03*
X12700Y393700D03*
X12700Y368300D03*
X12700Y342900D03*
X12700Y317500D03*
X12700Y292100D03*
X12700Y266700D03*
X12700Y241300D03*
X12700Y215900D03*
X12700Y190500D03*
X12700Y165100D03*
X12700Y139700D03*
X12700Y114300D03*
X12700Y88900D03*
X12700Y63500D03*
X12700Y38100D03*
X12700Y12700D03*
X266700Y495300D03*
X266700Y469900D03*
X266700Y444500D03*
X266700Y419100D03*
X266700Y393700D03*
X266700Y368300D03*
X266700Y342900D03*
X266700Y317500D03*
X266700Y292100D03*
X266700Y266700D03*
X266700Y241300D03*
X266700Y215900D03*
X266700Y190500D03*
X266700Y165100D03*
X266700Y139700D03*
X266700Y114300D03*
X266700Y88900D03*
X266700Y63500D03*
X266700Y38100D03*
X266700Y12700D03*
M02*
